<?xml version="1.0" encoding="UTF-8"?>
<svg fill="#fff" class="svglogo" width="120" height="39" version="1.1" xmlns="http://www.w3.org/2000/svg" xmlns:xlink="http://www.w3.org/1999/xlink" x="0px" y="0px" viewBox="0 0 139.05 44.55" style="enable-background:new 0 0 139.05 44.55;" xml:space="preserve">

		<g>
			<path d="M47.55,14.28h7.72c1.89,0,3.23,0.47,4.11,1.36c0.6,0.6,0.97,1.4,0.97,2.43v0.04c0,1.74-0.99,2.78-2.32,3.36
				c1.83,0.6,2.99,1.63,2.99,3.68v0.04c0,2.58-2.11,4.15-5.7,4.15h-7.77V14.28z M54.25,20.29c1.27,0,1.98-0.43,1.98-1.31v-0.04
				c0-0.82-0.65-1.29-1.89-1.29h-2.71v2.65H54.25z M54.85,25.99c1.27,0,2-0.49,2-1.38v-0.04c0-0.82-0.65-1.36-2.04-1.36h-3.18v2.78
				H54.85z"></path>
			<path d="M64.55,21.86v-0.04c0-4.39,3.38-7.83,7.94-7.83c3.08,0,5.06,1.29,6.39,3.14l-3.14,2.43c-0.86-1.08-1.85-1.76-3.29-1.76
				c-2.11,0-3.59,1.79-3.59,3.98v0.04c0,2.26,1.48,4.02,3.59,4.02c1.57,0,2.5-0.73,3.4-1.83l3.14,2.24c-1.42,1.96-3.33,3.4-6.67,3.4
				C68.01,29.65,64.55,26.36,64.55,21.86z"></path>
			<path d="M82.9,14.28h3.89l6.2,7.96v-7.96h4.13v15.06h-3.66l-6.43-8.26v8.26H82.9V14.28z"></path>
			<path d="M100.97,26.98l2.62-2.63c1.08,1.1,2.22,1.72,3.59,1.72c1.18,0,1.94-0.6,1.94-1.53v-0.04c0-0.97-0.88-1.55-2.45-1.55
				h-1.76l-0.6-2.17l3.46-3.12H102v-3.38h10.89v2.99l-3.59,3.08c2.15,0.47,3.89,1.68,3.89,4.24v0.04c0,3.06-2.45,5.01-5.81,5.01
				C104.48,29.65,102.43,28.59,100.97,26.98z"></path>
			<path d="M117.4,14.28h5.81c5.38,0,8.5,3.1,8.5,7.44v0.04c0,4.35-3.16,7.57-8.59,7.57h-5.72V14.28z M123.28,25.65
				c2.5,0,4.15-1.38,4.15-3.81v-0.04c0-2.41-1.66-3.81-4.15-3.81h-1.7v7.66H123.28z"></path>
		</g>
		<polygon points="13.68,9.57 20.2,9.57 20.2,7.28 11.39,7.28 11.39,16.09 13.68,16.09 		"></polygon>
		<polygon points="32.59,7.28 32.59,9.57 39.1,9.57 39.1,16.11 41.39,16.11 41.39,7.28 		"></polygon>
		<polygon points="13.68,28.49 11.39,28.49 11.39,37.28 20.23,37.28 20.23,34.98 13.68,34.98 		"></polygon>
		<polygon points="39.1,34.98 32.6,34.98 32.6,37.28 41.39,37.28 41.39,28.49 39.1,28.49 		"></polygon>
		<g>
			<path d="M26.39,16.94c-2.94,0-5.34,2.4-5.34,5.34s2.4,5.34,5.34,5.34s5.34-2.4,5.34-5.34S29.33,16.94,26.39,16.94z M26.39,24.03
				c-0.97,0-1.75-0.79-1.75-1.75c0-0.97,0.79-1.75,1.75-1.75c0.97,0,1.75,0.79,1.75,1.75C28.14,23.24,27.35,24.03,26.39,24.03z"></path>
			<path d="M36.08,21.64l1.82-1.25l-1.09-3.36l-2.21,0.06l-0.75-1.03l0.74-2.08l-2.86-2.08l-1.75,1.35l-1.21-0.39l-0.62-2.12
				l-3.53,0L24,12.86l-1.21,0.39l-1.75-1.35l-2.86,2.07l0.74,2.08l-0.75,1.03l-2.21-0.06l-1.09,3.36l1.82,1.25l0,1.27l-1.82,1.25
				l1.09,3.36l2.21-0.06l0.75,1.03l-0.74,2.08l2.86,2.08l1.75-1.35l1.21,0.39l0.62,2.12l3.53,0l0.63-2.12l1.21-0.39l1.75,1.35
				l2.86-2.07l-0.74-2.08l0.75-1.03l2.21,0.06l1.09-3.36l-1.82-1.25L36.08,21.64z M26.39,29.18c-3.81,0-6.9-3.1-6.9-6.9
				s3.1-6.9,6.9-6.9c3.81,0,6.9,3.1,6.9,6.9S30.19,29.18,26.39,29.18z"></path>
		</g>
</svg>