<?xml version="1.0" encoding="UTF-8"?>
<svg fill="#fff" xmlns="http://www.w3.org/2000/svg" width="181.668" height="53.162" viewBox="0 0 181.668 53.162" class="lvp-logo"><g transform="translate(-2539.762 787)"><g transform="translate(2569.816 -743.141)"><path class="la" d="M2629.582-658.971h-4.28c-2.64,0-3.9-.462-3.9-3.08v-5.735a.074.074,0,0,1,.074-.073h2.186a.074.074,0,0,1,.075.073v5.735c0,.784.422,1.073,1.563,1.073h4.28a.073.073,0,0,1,.073.075v1.856a.074.074,0,0,1-.073.075" transform="translate(-2621.405 667.858)"></path><path class="la" d="M2656.828-667.858h-2.185a.074.074,0,0,0-.076.073v1.933a18.168,18.168,0,0,1-2.689,4.866h-.282a18.407,18.407,0,0,1-2.693-4.866v-1.933a.073.073,0,0,0-.073-.073h-2.186a.075.075,0,0,0-.076.073v1.933c0,1.642,3.159,6.911,3.971,6.911h2.4c.812,0,3.96-5.269,3.96-6.911v-1.933a.072.072,0,0,0-.073-.073" transform="translate(-2637.305 667.858)"></path><path class="la" d="M2691.483-664.018c0,2.529-1.629,3.025-4.444,3.025H2684.5v1.946a.077.077,0,0,1-.075.076h-2.184a.075.075,0,0,1-.073-.076v-5.734c0-2.618,1.255-3.077,3.9-3.077h.98c2.814,0,4.444.494,4.444,3.022Zm-2.334-.819c0-.739-.571-1.018-2.109-1.018h-.98c-1.138,0-1.564.29-1.564,1.073V-663h2.544c1.538,0,2.109-.277,2.109-1.02Z" transform="translate(-2659.797 667.858)"></path></g><g transform="translate(2539.761 -787)"><path class="la" d="M2628.616-718.293h1.542a.353.353,0,0,0,.353-.354v-2.136h2.134a.351.351,0,0,0,.353-.354v-1.539a.353.353,0,0,0-.353-.358h-2.134v-2.132a.353.353,0,0,0-.353-.355h-1.542a.353.353,0,0,0-.353.355v2.132h-2.134a.354.354,0,0,0-.356.358v1.539a.352.352,0,0,0,.356.354h2.134v2.136A.352.352,0,0,0,2628.616-718.293Z" transform="translate(-2594.111 748.153)"></path><path class="la" d="M2585.038-753.458a53.494,53.494,0,0,0-6.5.432l-5.729.942a6.462,6.462,0,0,1-3.431-.2,8.192,8.192,0,0,1-.938-.48c-4.723-3.565-3.954-9.365-3.954-9.365a7.744,7.744,0,0,1,6.775-7.312l2.919-.058c1.039.149,4.261.5,5.785.5l2.342.42.085.022.074.056.893.659-.657-2.067-1.28-1.253a2.039,2.039,0,0,1-.719-1.058c-.026-.07-.052-.149-.084-.239a5.088,5.088,0,0,0-2.686-3.362l-10.544-3.416-1.866-.747s-.364,1.506,1.562,3.188l-.077-.018c-.042-.011-.1-.024-.163-.037a9.115,9.115,0,0,1-4.331-2.461l-7.146-5.967-.2-.168-.042-.034a5.1,5.1,0,0,0-3.481-1.52c-.116,0-.236,0-.355.011-1.793.106-2.323.7-3.378,1.881l-.02.024-.023.02-.049.042a32.723,32.723,0,0,0-5.959,9.618,31.04,31.04,0,0,0-2.089,11.556,28.764,28.764,0,0,0,7.445,19.309,35.123,35.123,0,0,0,7.969,6.623,39.1,39.1,0,0,0,9.1,4.078c.4-1.694.3-2.855-1.491-3.861a30.1,30.1,0,0,1-7.309-4.173,29.594,29.594,0,0,1-5.859-6.032,27.372,27.372,0,0,1-5.284-16.137,28.078,28.078,0,0,1,1.55-9.053,27.875,27.875,0,0,1,3.857-7.513l.061-.083,0-.005a2.321,2.321,0,0,1,1.741-1.117,2.333,2.333,0,0,1,1.447.617l.009.008.007,0,5.524,4.747,0,0,.657.553a4.949,4.949,0,0,0,1.861.968,3.707,3.707,0,0,1-3.1-.506l-6.38-4.507a41.769,41.769,0,0,0-4.263,8.256,22.172,22.172,0,0,0-1.326,7.815,26.013,26.013,0,0,0,2.529,11.3,25.9,25.9,0,0,0,6.878,8.817l.008.009.007.005a52.673,52.673,0,0,0,6.383,4.16c-.228-1.612-.49-4.35-.561-6.092-.195-.146-.444-.33-.723-.533-.915-.669-2.168-1.583-3.007-2.35l-.02-.019-.018-.019-.007-.008a19.812,19.812,0,0,1-4.458-5.478,14.579,14.579,0,0,1-2.308-8.429c1.785,9.544,10.575,14.945,10.575,14.945l-.2-4.543.011-.73.677.277a14.2,14.2,0,0,1,4.313,3.123c.032.017.062.028.095.042a3.865,3.865,0,0,1,.986,3.254c2.561.373,5.493-1.549,5.493-1.549a18.087,18.087,0,0,1,6.827-2.684c.318-.037.8-.087,1.422-.136.112,0,.173,0,.173,0l-.009-.01c.259-.021.542-.04.841-.057Zm-7.413-18.19.55.782-1.706.041a2.257,2.257,0,0,1-2.317-1.953Z" transform="translate(-2539.761 787)"></path></g><g transform="translate(2584.229 -787)"><path class="lb" d="M2704.1-775.4a32.71,32.71,0,0,0-5.96-9.618l-.048-.042-.024-.02-.02-.024c-1.057-1.183-1.585-1.775-3.379-1.881-.118-.007-.237-.011-.354-.011a5.1,5.1,0,0,0-3.482,1.52l-.043.034-.2.168-7.145,5.967a9.109,9.109,0,0,1-4.333,2.461c-.064.013-.119.026-.163.037l-.076.018c1.926-1.682,1.564-3.188,1.564-3.188l-1.869.747-10.542,3.416a5.087,5.087,0,0,0-2.687,3.362c-.031.09-.056.169-.084.239a2.034,2.034,0,0,1-.718,1.058l-1.281,1.253-.657,2.067.893-.659.075-.056.085-.022,2.343-.42c1.522,0,4.744-.349,5.784-.5l2.919.058a7.742,7.742,0,0,1,6.773,7.312s.77,5.8-3.954,9.365a8.159,8.159,0,0,1-.939.48,6.461,6.461,0,0,1-3.431.2l-5.729-.942a27.757,27.757,0,0,0-3.638-.376l-3.217,2.909c1.38-.017,2.938.015,4.58.143l-.015.018s.128,0,.35.01q.584.051,1.178.117a16.572,16.572,0,0,1,6.662,2.536s2.93,1.922,5.491,1.549a3.862,3.862,0,0,1,.988-3.254c.031-.014.059-.025.092-.042a14.18,14.18,0,0,1,4.315-3.123l.677-.277.01.73-.2,4.543s8.79-5.4,10.574-14.945a14.561,14.561,0,0,1-2.308,8.429,19.83,19.83,0,0,1-4.457,5.478l-.009.008-.017.019-.02.019c-.839.767-2.093,1.68-3.007,2.35-.278.2-.53.387-.721.533-.072,1.742-.334,4.48-.563,6.092a52.719,52.719,0,0,0,6.383-4.16l.007-.005.008-.009a25.917,25.917,0,0,0,6.879-8.817,26.025,26.025,0,0,0,2.527-11.3,22.166,22.166,0,0,0-1.326-7.815,41.657,41.657,0,0,0-4.262-8.256L2688-775.417a3.71,3.71,0,0,1-3.1.506,4.933,4.933,0,0,0,1.862-.968l.657-.553,0,0,5.524-4.747.008,0,.009-.008a2.328,2.328,0,0,1,1.446-.617,2.32,2.32,0,0,1,1.742,1.117l0,.005.061.083a27.9,27.9,0,0,1,3.859,7.513,28.1,28.1,0,0,1,1.548,9.053,27.369,27.369,0,0,1-5.284,16.137,29.539,29.539,0,0,1-5.858,6.032,30.116,30.116,0,0,1-7.309,4.173c-1.8,1.006-1.9,2.168-1.492,3.861a39.148,39.148,0,0,0,9.1-4.078,35.157,35.157,0,0,0,7.969-6.623,28.77,28.77,0,0,0,7.443-19.309A31.049,31.049,0,0,0,2704.1-775.4Zm-34.619,4.579-1.706-.041.55-.782,3.474-1.13A2.258,2.258,0,0,1,2669.478-770.825Z" transform="translate(-2660.557 787)"></path><g transform="translate(6.702 22.109)"><path class="lb" d="M2688.9-707.25a1.319,1.319,0,0,0,1.32-1.319,1.319,1.319,0,0,0-1.32-1.316,1.317,1.317,0,0,0-1.317,1.316A1.317,1.317,0,0,0,2688.9-707.25Z" transform="translate(-2684.337 716.164)"></path><path class="lb" d="M2688.9-724.307a1.32,1.32,0,0,0,1.32-1.318,1.319,1.319,0,0,0-1.32-1.316,1.317,1.317,0,0,0-1.317,1.316A1.318,1.318,0,0,0,2688.9-724.307Z" transform="translate(-2684.337 726.941)"></path><path class="lb" d="M2699.394-717.277a1.317,1.317,0,0,0-1.315-1.319,1.317,1.317,0,0,0-1.317,1.319,1.316,1.316,0,0,0,1.317,1.317A1.315,1.315,0,0,0,2699.394-717.277Z" transform="translate(-2690.136 721.668)"></path><path class="lb" d="M2680.081-715.961a1.319,1.319,0,0,0,1.317-1.317,1.32,1.32,0,0,0-1.317-1.319,1.316,1.316,0,0,0-1.318,1.319A1.315,1.315,0,0,0,2680.081-715.961Z" transform="translate(-2678.763 721.668)"></path></g></g><g transform="translate(2637.455 -777.801)"><g transform="translate(0 0)"><path class="la" d="M2811.664-752.947a19.916,19.916,0,0,1-2.325.107c-1.277,0-2.542-.25-2.542-2.218v-6.49a.239.239,0,0,1,.237-.239h.609a.24.24,0,0,1,.239.239v6.49c0,.906.2,1.241,1.468,1.241h2.3a.129.129,0,0,1,.132.142v.561A.168.168,0,0,1,2811.664-752.947Z" transform="translate(-2806.189 761.87)"></path><path class="la" d="M2826.935-752.922h-.657a.227.227,0,0,1-.213-.239v-8.4a.217.217,0,0,1,.213-.227h.657a.218.218,0,0,1,.215.227v8.4A.229.229,0,0,1,2826.935-752.922Z" transform="translate(-2818.364 761.87)"></path><path class="la" d="M2841-753.161a13.524,13.524,0,0,1-2.375.178c-1.491,0-3.089-.977-3.089-3.71v-1.6c0-2.9,1.67-3.722,3.2-3.722a13.819,13.819,0,0,1,2.267.168c.107.012.2.061.2.178v.6c0,.085-.047.12-.155.12H2841c-.707-.059-1.254-.084-2.267-.084-1.111,0-2.112.6-2.112,2.744v1.6c0,1.97.895,2.745,2,2.745.729,0,1.216-.047,1.5-.071v-3.411a.22.22,0,0,1,.215-.239h.644a.236.236,0,0,1,.226.239v4.007A.257.257,0,0,1,2841-753.161Z" transform="translate(-2824.35 762.012)"></path><path class="la" d="M2863.232-753.064h-.655a.228.228,0,0,1-.215-.239v-3.531h-3.65v3.531a.228.228,0,0,1-.215.239h-.657a.236.236,0,0,1-.214-.239v-6.239c0-1.824.846-2.47,2.565-2.47h.692c1.706,0,2.565.645,2.565,2.47v6.239A.235.235,0,0,1,2863.232-753.064Zm-.87-6.478c0-1.241-.393-1.514-1.479-1.514h-.692c-1.085,0-1.479.273-1.479,1.514v1.753h3.65Z" transform="translate(-2838.306 762.012)"></path><path class="la" d="M2894.429-752.983a17.23,17.23,0,0,1-2.172-.117.273.273,0,0,1-.252-.3v-8.2a.28.28,0,0,1,.252-.3,16.8,16.8,0,0,1,2.172-.12c2.208,0,3.615,1.134,3.615,3.711v1.609C2898.043-754.138,2896.636-752.983,2894.429-752.983Zm2.529-5.319c0-2.16-1.1-2.78-2.529-2.78-.561,0-.931.012-1.324.036v7.11c.381.024.763.024,1.324.024,1.432,0,2.529-.632,2.529-2.78Z" transform="translate(-2860.029 762.012)"></path><path class="la" d="M2919.6-753.042c-.454.049-1.622.059-2.326.059-1.67,0-2.542-.631-2.542-2.218v-4.593c0-1.587.872-2.219,2.542-2.219.7,0,1.824.025,2.326.071a.171.171,0,0,1,.12.168v.6a.13.13,0,0,1-.134.142h-2.3c-1.263,0-1.468.334-1.468,1.241v1.658h3.662a.241.241,0,0,1,.24.239v.453a.242.242,0,0,1-.24.239h-3.662v2c0,.906.2,1.241,1.468,1.241h2.3a.13.13,0,0,1,.134.143v.608A.168.168,0,0,1,2919.6-753.042Z" transform="translate(-2874.391 762.012)"></path><path class="la" d="M2812.659-725.341l-1.778,7.4a1.723,1.723,0,0,1-1.967,1.323,1.737,1.737,0,0,1-1.98-1.323l-1.778-7.4c0-.022-.012-.036-.012-.06a.2.2,0,0,1,.215-.191h1.658a.256.256,0,0,1,.239.215l1.49,6.883c.024.132.061.18.168.18s.142-.047.166-.18l1.492-6.883a.242.242,0,0,1,.226-.215h1.671a.185.185,0,0,1,.2.191A.6.6,0,0,0,2812.659-725.341Z" transform="translate(-2805.144 738.999)"></path><path class="la" d="M2832.817-716.728h-1.6a.219.219,0,0,1-.217-.237v-8.4a.211.211,0,0,1,.217-.228h1.6a.221.221,0,0,1,.227.228v8.4A.229.229,0,0,1,2832.817-716.728Z" transform="translate(-2821.484 738.999)"></path><path class="la" d="M2845.982-716.8a17.95,17.95,0,0,1-2.541-.178.362.362,0,0,1-.346-.419v-7.885a.361.361,0,0,1,.346-.417,17.941,17.941,0,0,1,2.541-.178c2.373,0,3.8,1.251,3.8,3.769v1.538C2849.787-718.055,2848.355-716.8,2845.982-716.8Zm1.766-5.308c0-1.611-.694-2.04-1.766-2.04-.3,0-.68.011-.848.024v5.571c.168.012.548.022.848.022,1.072,0,1.766-.429,1.766-2.039Z" transform="translate(-2829.124 739.18)"></path><path class="la" d="M2872.365-716.958a13.931,13.931,0,0,1-2.316.156c-1.539,0-2.9-.393-2.9-2.564v-3.961c0-2.173,1.375-2.553,2.911-2.553a13.979,13.979,0,0,1,2.3.154c.166.024.239.083.239.238v1.11a.239.239,0,0,1-.239.237h-2.422c-.561,0-.764.191-.764.813v1.084h3.09a.238.238,0,0,1,.237.24v1.132a.238.238,0,0,1-.237.24h-3.09v1.264c0,.619.2.811.764.811h2.422a.24.24,0,0,1,.239.239v1.109C2872.6-717.051,2872.531-716.98,2872.365-716.958Z" transform="translate(-2844.324 739.18)"></path><path class="la" d="M2890.9-716.8c-1.968,0-3.531-1.061-3.531-3.828v-1.421c0-2.767,1.563-3.828,3.531-3.828s3.532,1.061,3.532,3.828v1.421C2894.435-717.863,2892.873-716.8,2890.9-716.8Zm1.48-5.249c0-1.431-.478-2.041-1.48-2.041s-1.467.61-1.467,2.041v1.421c0,1.431.465,2.039,1.467,2.039s1.48-.608,1.48-2.039Z" transform="translate(-2857.102 739.18)"></path><path class="la" d="M2910.543-714.593a6.213,6.213,0,0,1-.762-.046.2.2,0,0,1-.18-.2v-1.218a.149.149,0,0,1,.132-.165h.6c.274,0,.31-.132.31-.43v-8.708a.23.23,0,0,1,.24-.228h1.561a.231.231,0,0,1,.242.228v8.708C2912.682-715.033,2911.749-714.593,2910.543-714.593Z" transform="translate(-2871.149 738.999)"></path><path class="la" d="M2927.836-716.62c-1.9,0-3.439-.715-3.439-3.436v-5.307a.231.231,0,0,1,.24-.228h1.563a.231.231,0,0,1,.239.228v5.307c0,1.217.322,1.731,1.4,1.731s1.407-.513,1.407-1.731v-5.307a.23.23,0,0,1,.238-.228h1.55a.241.241,0,0,1,.251.228v5.307C2931.282-717.336,2929.732-716.62,2927.836-716.62Z" transform="translate(-2880.497 738.999)"></path><path class="la" d="M2954.649-716.958a13.908,13.908,0,0,1-2.314.156c-1.54,0-2.9-.393-2.9-2.564v-3.961c0-2.173,1.371-2.553,2.909-2.553a13.964,13.964,0,0,1,2.3.154c.167.024.24.083.24.238v1.11a.239.239,0,0,1-.24.237h-2.422c-.559,0-.762.191-.762.813v1.084h3.089a.239.239,0,0,1,.239.24v1.132a.239.239,0,0,1-.239.24h-3.089v1.264c0,.619.2.811.762.811h2.422a.239.239,0,0,1,.24.239v1.109C2954.888-717.051,2954.816-716.98,2954.649-716.958Z" transform="translate(-2896.319 739.18)"></path><path class="la" d="M2975.757-724.007h-.035c-.572-.022-1.465-.095-2.479-.095-.966,0-1.563.465-1.563,2.029v1.491c0,1.645.753,2.028,1.336,2.028.334,0,.633-.012.919-.036v-2.744a.23.23,0,0,1,.227-.239h1.526a.239.239,0,0,1,.238.239v4.008c0,.166-.058.239-.238.276a13.1,13.1,0,0,1-2.672.249c-1.36,0-3.4-.775-3.4-3.793v-1.479c0-3.043,1.9-3.806,3.628-3.806a11.223,11.223,0,0,1,2.492.275c.12.022.2.071.2.178v1.265C2975.938-724.03,2975.866-724.007,2975.757-724.007Z" transform="translate(-2909.069 739.18)"></path><path class="la" d="M2996.014-716.8c-1.971,0-3.531-1.061-3.531-3.828v-1.421c0-2.767,1.56-3.828,3.531-3.828s3.529,1.061,3.529,3.828v1.421C2999.543-717.863,2997.981-716.8,2996.014-716.8Zm1.477-5.249c0-1.431-.476-2.041-1.477-2.041s-1.469.61-1.469,2.041v1.421c0,1.431.465,2.039,1.469,2.039s1.477-.608,1.477-2.039Z" transform="translate(-2923.519 739.18)"></path><path class="la" d="M3019.683-716.8a8.9,8.9,0,0,1-2.253-.261c-.12-.037-.239-.108-.239-.239v-1.17a.2.2,0,0,1,.215-.226h.037c.488.046,1.8.142,2.266.142.821,0,1.063-.263,1.063-.836,0-.346-.169-.536-.79-.906l-1.646-.978a2.439,2.439,0,0,1-1.406-2.28c0-1.312.738-2.325,3.052-2.325a13.223,13.223,0,0,1,2.53.26.212.212,0,0,1,.179.216v1.2a.182.182,0,0,1-.2.2h-.024c-.332-.024-1.717-.131-2.528-.131-.679,0-.932.2-.932.631,0,.334.155.49.8.836l1.526.824a2.552,2.552,0,0,1,1.611,2.421C3022.941-718.15,3022.1-716.8,3019.683-716.8Z" transform="translate(-2938.966 739.18)"></path><path class="la" d="M2809.064-684.209c-.383,0-.884-.035-1.192-.058v3.352a.227.227,0,0,1-.216.237h-.643a.228.228,0,0,1-.215-.237v-8.316a.292.292,0,0,1,.286-.3,19.273,19.273,0,0,1,1.98-.095c1.933,0,3.34.668,3.34,2.588v.156C2812.4-684.888,2811-684.209,2809.064-684.209Zm2.255-2.828c0-1.2-.715-1.67-2.255-1.67-.371,0-.907.025-1.192.047v3.5c.274.011.882.047,1.192.047,1.635,0,2.255-.525,2.255-1.766Z" transform="translate(-2806.189 716.272)"></path><path class="la" d="M2833.9-680.677h-.763c-.144,0-.217,0-.312-.154l-2.135-3.556h-.31c-.393,0-.68-.011-1.312-.036v3.509a.226.226,0,0,1-.215.237h-.644a.225.225,0,0,1-.212-.237v-8.351c0-.167.07-.239.285-.263.512-.059,1.407-.095,2.1-.095,1.885,0,3.34.631,3.34,2.565v.083a2.348,2.348,0,0,1-1.872,2.409l2.17,3.628a.187.187,0,0,1,.037.107A.15.15,0,0,1,2833.9-680.677Zm-1.253-6.381c0-1.195-.775-1.587-2.267-1.587-.37,0-1.026,0-1.312.034v3.27c.525.012,1.039.024,1.312.024,1.468,0,2.267-.37,2.267-1.658Z" transform="translate(-2819.585 716.272)"></path><path class="la" d="M2852.774-680.594c-1.872,0-3.232-1.1-3.232-3.745v-1.539c0-2.648,1.36-3.745,3.232-3.745s3.221,1.1,3.221,3.745v1.539C2856-681.691,2854.647-680.594,2852.774-680.594Zm2.123-5.284c0-2.005-.811-2.767-2.123-2.767s-2.135.762-2.135,2.767v1.539c0,2.005.823,2.767,2.135,2.767s2.123-.761,2.123-2.767Z" transform="translate(-2833.198 716.272)"></path><path class="la" d="M2878.235-684.817h-3.661v3.9a.24.24,0,0,1-.241.237h-.606a.241.241,0,0,1-.24-.237v-6.49c0-1.588.871-2.219,2.541-2.219.7,0,1.827.024,2.326.071a.168.168,0,0,1,.12.168v.6a.129.129,0,0,1-.132.144h-2.3c-1.265,0-1.467.334-1.467,1.241v1.657h3.661a.24.24,0,0,1,.239.239v.453A.239.239,0,0,1,2878.235-684.817Z" transform="translate(-2848.328 716.272)"></path><path class="la" d="M2898.016-680.652c-.454.048-1.624.058-2.326.058-1.673,0-2.541-.632-2.541-2.219V-687.4c0-1.588.869-2.219,2.541-2.219.7,0,1.824.024,2.326.071a.17.17,0,0,1,.118.168v.6a.13.13,0,0,1-.132.144h-2.3c-1.265,0-1.467.334-1.467,1.241v1.657h3.659a.241.241,0,0,1,.24.239v.453a.24.24,0,0,1-.24.239h-3.659v2c0,.907.2,1.241,1.467,1.241h2.3a.13.13,0,0,1,.132.144v.609A.171.171,0,0,1,2898.016-680.652Z" transform="translate(-2860.752 716.272)"></path><path class="la" d="M2914.5-680.594a11.966,11.966,0,0,1-1.98-.166c-.2-.035-.227-.084-.227-.215v-.476a.186.186,0,0,1,.2-.191h.036c.549.047,1.421.071,1.969.071,1.431,0,1.813-.573,1.813-1.407,0-.6-.346-.931-1.431-1.6l-1.156-.7c-1.1-.668-1.646-1.277-1.646-2.23,0-1.444,1.037-2.112,2.85-2.112a16.177,16.177,0,0,1,2.075.143c.12.024.2.083.2.2v.512a.186.186,0,0,1-.2.192h-.024c-.524-.037-1.358-.071-2.051-.071-1.228,0-1.755.261-1.755,1.134,0,.56.4.894,1.3,1.442l1.1.657c1.383.822,1.873,1.48,1.873,2.433C2917.444-681.835,2916.848-680.594,2914.5-680.594Z" transform="translate(-2872.713 716.272)"></path><path class="la" d="M2933.714-680.534h-.656a.227.227,0,0,1-.216-.237v-8.4a.217.217,0,0,1,.216-.227h.656a.216.216,0,0,1,.215.227v8.4A.227.227,0,0,1,2933.714-680.534Z" transform="translate(-2885.834 716.128)"></path><path class="la" d="M2945.583-680.594c-1.872,0-3.233-1.1-3.233-3.745v-1.539c0-2.648,1.361-3.745,3.233-3.745s3.22,1.1,3.22,3.745v1.539C2948.8-681.691,2947.455-680.594,2945.583-680.594Zm2.124-5.284c0-2.005-.813-2.767-2.124-2.767s-2.136.762-2.136,2.767v1.539c0,2.005.824,2.767,2.136,2.767s2.124-.761,2.124-2.767Z" transform="translate(-2891.841 716.272)"></path><path class="la" d="M2972.263-680.7h-.668a.218.218,0,0,1-.2-.237v-5.274c0-2.074-.716-2.492-2.194-2.492-.512,0-1.468.047-1.767.07v7.7a.226.226,0,0,1-.215.237h-.656a.218.218,0,0,1-.213-.237V-689.1c0-.3.095-.381.331-.416a22.8,22.8,0,0,1,2.542-.144c2.146,0,3.257.811,3.257,3.447v5.274A.227.227,0,0,1,2972.263-680.7Z" transform="translate(-2907.005 716.292)"></path><path class="la" d="M2995.441-680.677h-.654a.227.227,0,0,1-.215-.237v-3.533h-3.65v3.533a.226.226,0,0,1-.214.237h-.656a.234.234,0,0,1-.215-.237v-6.239c0-1.826.847-2.47,2.564-2.47h.691c1.706,0,2.568.644,2.568,2.47v6.239A.236.236,0,0,1,2995.441-680.677Zm-.87-6.476c0-1.242-.395-1.516-1.48-1.516h-.691c-1.086,0-1.479.273-1.479,1.516v1.755h3.65Z" transform="translate(-2921.846 716.272)"></path><path class="la" d="M3017.451-680.558a19.614,19.614,0,0,1-2.325.107c-1.275,0-2.54-.251-2.54-2.219v-6.488a.239.239,0,0,1,.239-.239h.607a.238.238,0,0,1,.238.239v6.488c0,.907.2,1.241,1.468,1.241h2.3a.13.13,0,0,1,.134.144v.56A.167.167,0,0,1,3017.451-680.558Z" transform="translate(-2936.222 716.128)"></path></g></g><g class="lc" transform="translate(2542.213 -787)"><path class="lc" d="M2630.512-720.783h2.134a.351.351,0,0,0,.353-.354v-1.539a.353.353,0,0,0-.353-.358h-2.134v-2.132a.353.353,0,0,0-.353-.355h-1.542a.353.353,0,0,0-.353.355v2.132h-2.134a.354.354,0,0,0-.356.358v1.539a.352.352,0,0,0,.356.354h2.134v1.892q1.115.143,2.247.254s0-.007,0-.01Z" transform="translate(-2596.563 748.153)"></path><path class="lc" d="M2568.69-762.125a7.744,7.744,0,0,1,6.775-7.312l2.919-.058c1.039.149,4.261.5,5.785.5l2.342.42.085.022.074.056.893.659-.657-2.067-1.28-1.253a2.042,2.042,0,0,1-.719-1.058c-.026-.07-.052-.149-.084-.239a5.087,5.087,0,0,0-2.686-3.362l-10.545-3.416-1.865-.747s-.364,1.506,1.562,3.188l-.077-.018c-.042-.011-.1-.024-.163-.037a9.115,9.115,0,0,1-4.332-2.461l-7.146-5.967-.2-.168-.042-.034a5.1,5.1,0,0,0-3.481-1.52c-.116,0-.236,0-.355.011-1.792.106-2.323.7-3.378,1.881l-.02.024-.024.02-.049.042a33.163,33.163,0,0,0-5.6,8.739,13.768,13.768,0,0,0,2.881,5.926c.218-.913.476-1.826.785-2.736a27.889,27.889,0,0,1,3.857-7.513l.061-.083,0-.005a2.321,2.321,0,0,1,1.742-1.117,2.333,2.333,0,0,1,1.447.617l.009.008.007,0,5.524,4.747,0,0,.657.553a4.949,4.949,0,0,0,1.861.968,3.706,3.706,0,0,1-3.1-.506l-6.38-4.507a41.77,41.77,0,0,0-4.264,8.256,20.712,20.712,0,0,0-.826,2.858c4.015,4.035,10.434,7.23,18.071,9.259A10.522,10.522,0,0,1,2568.69-762.125Zm13.144-9.522.55.782-1.706.041a2.256,2.256,0,0,1-2.316-1.953Z" transform="translate(-2546.422 787)"></path><path class="lc" d="M2701.631-785.022l-.048-.042-.024-.02-.02-.024c-1.057-1.183-1.585-1.775-3.379-1.881-.118-.007-.237-.011-.354-.011a5.1,5.1,0,0,0-3.482,1.52l-.043.034-.2.168-7.145,5.967a9.109,9.109,0,0,1-4.333,2.461c-.064.013-.119.026-.163.037l-.076.018c1.926-1.682,1.564-3.188,1.564-3.188l-1.869.747-10.542,3.416a5.088,5.088,0,0,0-2.687,3.362c-.031.09-.056.169-.084.239a2.034,2.034,0,0,1-.718,1.058l-1.281,1.253-.657,2.067.894-.659.075-.056.085-.022,2.343-.42c1.522,0,4.744-.349,5.784-.5l2.919.058a7.742,7.742,0,0,1,6.774,7.312,10.524,10.524,0,0,1-.072,2.577c7.6-1.953,14.008-5.065,18.058-9.329a20.726,20.726,0,0,0-.813-2.791,41.67,41.67,0,0,0-4.262-8.256l-6.379,4.507a3.71,3.71,0,0,1-3.1.506,4.933,4.933,0,0,0,1.862-.968l.657-.553,0,0,5.524-4.747.007,0,.009-.008a2.328,2.328,0,0,1,1.446-.617,2.32,2.32,0,0,1,1.742,1.117l0,.005.061.083a27.908,27.908,0,0,1,3.859,7.513c.3.867.543,1.737.754,2.607a15.765,15.765,0,0,0,2.857-5.922A33.236,33.236,0,0,0,2701.631-785.022Zm-28.659,14.2-1.706-.041.55-.782,3.474-1.13A2.259,2.259,0,0,1,2672.972-770.825Z" transform="translate(-2622.035 787)"></path><path class="lc" d="M2688.98-709.885a1.314,1.314,0,0,0-1.271.99q1.223-.132,2.427-.3A1.315,1.315,0,0,0,2688.98-709.885Z" transform="translate(-2635.698 738.273)"></path><path class="ld" d="M2688.9-726.941a1.317,1.317,0,0,0-1.317,1.316,1.318,1.318,0,0,0,1.317,1.318,1.32,1.32,0,0,0,1.32-1.318A1.319,1.319,0,0,0,2688.9-726.941Z" transform="translate(-2635.62 749.05)"></path><path class="ld" d="M2698.079-718.6a1.317,1.317,0,0,0-1.317,1.319,1.316,1.316,0,0,0,1.317,1.317,1.315,1.315,0,0,0,1.315-1.317A1.317,1.317,0,0,0,2698.079-718.6Z" transform="translate(-2641.418 743.777)"></path><path class="ld" d="M2680.081-718.6a1.316,1.316,0,0,0-1.318,1.319,1.315,1.315,0,0,0,1.318,1.317,1.319,1.319,0,0,0,1.317-1.317A1.32,1.32,0,0,0,2680.081-718.6Z" transform="translate(-2630.045 743.777)"></path></g><g class="lc" transform="translate(2569.816 -743.141)"><path class="ld" d="M2623.664-667.858h-2.186a.074.074,0,0,0-.074.073v2.538q1.155.212,2.334.391v-2.928A.074.074,0,0,0,2623.664-667.858Z" transform="translate(-2621.405 667.858)"></path><path class="ld" d="M2648.9-665.853v-1.933a.073.073,0,0,0-.073-.073h-2.186a.075.075,0,0,0-.076.073v1.933a5.261,5.261,0,0,0,.5,1.761q1.31.073,2.632.106A7.3,7.3,0,0,1,2648.9-665.853Z" transform="translate(-2637.305 667.858)"></path><path class="ld" d="M2669.267-667.786a.072.072,0,0,0-.073-.073h-2.185a.074.074,0,0,0-.077.073v1.933a7.2,7.2,0,0,1-.794,1.866q1.317-.029,2.623-.092a5.3,5.3,0,0,0,.505-1.774Z" transform="translate(-2649.671 667.858)"></path><path class="ld" d="M2687.04-667.858h-.98c-2.641,0-3.9.459-3.9,3.077v.482q1.173-.1,2.333-.227v-.255c0-.783.425-1.073,1.564-1.073h.98c1.282,0,1.891.195,2.059.688q1.175-.2,2.323-.429C2691.107-667.463,2689.544-667.858,2687.04-667.858Z" transform="translate(-2659.797 667.858)"></path></g><g class="lc" transform="translate(2637.455 -777.801)"><path class="ld" d="M2811.653-753.817h-2.3c-1.265,0-1.468-.335-1.468-1.241v-6.49a.24.24,0,0,0-.239-.239h-.609a.239.239,0,0,0-.237.239v6.49c0,1.968,1.265,2.218,2.542,2.218a19.916,19.916,0,0,0,2.325-.107.168.168,0,0,0,.12-.166v-.561A.129.129,0,0,0,2811.653-753.817Z" transform="translate(-2806.189 761.87)"></path><path class="ld" d="M2826.935-761.787h-.657a.217.217,0,0,0-.213.227v8.4a.227.227,0,0,0,.213.239h.657a.229.229,0,0,0,.215-.239v-8.4A.218.218,0,0,0,2826.935-761.787Z" transform="translate(-2818.364 761.87)"></path><path class="ld" d="M2840.991-757.669h-.644a.22.22,0,0,0-.215.239v3.411c-.288.024-.775.071-1.5.071-1.109,0-2-.775-2-2.745v-1.6c0-2.147,1-2.744,2.112-2.744,1.012,0,1.56.025,2.267.084h.047c.108,0,.155-.035.155-.12v-.6c0-.117-.1-.166-.2-.178a13.819,13.819,0,0,0-2.267-.168c-1.527,0-3.2.823-3.2,3.722v1.6c0,2.733,1.6,3.71,3.089,3.71a13.524,13.524,0,0,0,2.375-.178.257.257,0,0,0,.214-.262v-4.007A.236.236,0,0,0,2840.991-757.669Z" transform="translate(-2824.35 762.012)"></path><path class="ld" d="M2860.883-762.012h-.692c-1.719,0-2.565.645-2.565,2.47v6.239a.236.236,0,0,0,.214.239h.657a.228.228,0,0,0,.215-.239v-3.531h3.65v3.531a.228.228,0,0,0,.215.239h.655a.235.235,0,0,0,.215-.239v-6.239C2863.448-761.367,2862.588-762.012,2860.883-762.012Zm1.479,4.223h-3.65v-1.753c0-1.241.394-1.514,1.479-1.514h.692c1.086,0,1.479.273,1.479,1.514Z" transform="translate(-2838.306 762.012)"></path><path class="ld" d="M2894.429-762.012a16.8,16.8,0,0,0-2.172.12.28.28,0,0,0-.252.3v8.2a.273.273,0,0,0,.252.3,17.23,17.23,0,0,0,2.172.117c2.208,0,3.615-1.155,3.615-3.71V-758.3C2898.043-760.878,2896.636-762.012,2894.429-762.012Zm2.529,5.32c0,2.148-1.1,2.78-2.529,2.78-.561,0-.942,0-1.324-.024v-7.11c.393-.024.763-.036,1.324-.036,1.432,0,2.529.62,2.529,2.78Z" transform="translate(-2860.029 762.012)"></path><path class="ld" d="M2919.6-761.941c-.5-.046-1.622-.071-2.326-.071-1.67,0-2.542.632-2.542,2.219v4.593c0,1.587.872,2.218,2.542,2.218.7,0,1.872-.01,2.326-.059a.168.168,0,0,0,.12-.166v-.608a.13.13,0,0,0-.134-.143h-2.3c-1.263,0-1.468-.335-1.468-1.241v-2h3.662a.242.242,0,0,0,.24-.239v-.453a.241.241,0,0,0-.24-.239h-3.662v-1.658c0-.907.2-1.241,1.468-1.241h2.3a.13.13,0,0,0,.134-.142v-.6A.171.171,0,0,0,2919.6-761.941Z" transform="translate(-2874.391 762.012)"></path><path class="ld" d="M2821.034-725.4a.185.185,0,0,0-.2-.191h-1.671a.242.242,0,0,0-.226.215l-.557,2.568q.959.169,1.956.329l.688-2.862A.588.588,0,0,1,2821.034-725.4Z" transform="translate(-2813.506 738.999)"></path><path class="ld" d="M2807.256-725.377a.256.256,0,0,0-.239-.215h-1.658a.2.2,0,0,0-.215.191c0,.024.012.037.012.06l.4,1.656q1.053.23,2.166.449Z" transform="translate(-2805.144 738.999)"></path><path class="ld" d="M2832.817-725.592h-1.6a.211.211,0,0,0-.217.228v3.294q1,.143,2.041.278v-3.572A.221.221,0,0,0,2832.817-725.592Z" transform="translate(-2821.484 738.999)"></path><path class="ld" d="M2845.982-725.879a17.941,17.941,0,0,0-2.541.178.361.361,0,0,0-.346.417v3.608q1.007.117,2.039.226v-2.675c.168-.013.548-.024.848-.024,1.072,0,1.766.429,1.766,2.04v.92q1.009.094,2.038.18v-1.1C2849.787-724.628,2848.355-725.879,2845.982-725.879Z" transform="translate(-2829.124 739.18)"></path><path class="ld" d="M2872.505-720.87V-722a.238.238,0,0,0-.237-.24h-3.09v-1.084c0-.622.2-.813.764-.813h2.422a.239.239,0,0,0,.239-.237v-1.11c0-.155-.073-.214-.239-.238a13.979,13.979,0,0,0-2.3-.154c-1.537,0-2.911.38-2.911,2.553v2.487q1.526.113,3.092.209h2.026A.238.238,0,0,0,2872.505-720.87Z" transform="translate(-2844.324 739.18)"></path><path class="ld" d="M2894.435-722.051c0-2.767-1.562-3.828-3.532-3.828s-3.531,1.061-3.531,3.828v1.421c0,.08.005.153.008.23q1.026.045,2.066.084c-.006-.1-.009-.2-.009-.314v-1.421c0-1.431.465-2.041,1.467-2.041s1.48.61,1.48,2.041v1.421c0,.144-.006.278-.016.406q1.02.026,2.051.045c.009-.145.016-.294.016-.451Z" transform="translate(-2857.102 739.18)"></path><path class="ld" d="M2914.221-725.592h-1.56a.23.23,0,0,0-.24.228v5.4q1.017.011,2.043.015v-5.414A.231.231,0,0,0,2914.221-725.592Z" transform="translate(-2872.929 738.999)"></path><path class="ld" d="M2939.348-725.592h-1.55a.23.23,0,0,0-.238.228v5.307c0,.016,0,.031,0,.046q1.025-.022,2.039-.051v-5.3A.24.24,0,0,0,2939.348-725.592Z" transform="translate(-2888.815 738.999)"></path><path class="ld" d="M2926.44-720.057v-5.307a.231.231,0,0,0-.239-.228h-1.563a.231.231,0,0,0-.24.228v5.307c0,.038,0,.07,0,.107q1.025,0,2.04-.015C2926.441-720,2926.44-720.025,2926.44-720.057Z" transform="translate(-2880.497 738.999)"></path><path class="ld" d="M2954.553-720.63a.239.239,0,0,0,.239-.24V-722a.239.239,0,0,0-.239-.24h-3.089v-1.084c0-.622.2-.813.762-.813h2.422a.239.239,0,0,0,.24-.237v-1.11c0-.155-.072-.214-.24-.238a13.964,13.964,0,0,0-2.3-.154c-1.538,0-2.909.38-2.909,2.553v3.008q1.02-.038,2.028-.083v-.229Z" transform="translate(-2896.319 739.18)"></path><path class="ld" d="M2971.679-722.073c0-1.564.6-2.029,1.563-2.029,1.014,0,1.907.073,2.479.095h.035c.11,0,.181-.022.181-.155v-1.265c0-.107-.083-.156-.2-.178a11.223,11.223,0,0,0-2.492-.275c-1.731,0-3.628.763-3.628,3.806v1.375q1.041-.068,2.064-.144Z" transform="translate(-2909.069 739.18)"></path><path class="ld" d="M2983.1-714.185h-1.526a.23.23,0,0,0-.227.239v.314q1.006-.085,1.991-.177v-.137A.24.24,0,0,0,2983.1-714.185Z" transform="translate(-2916.483 731.791)"></path><path class="ld" d="M2996.014-725.879c-1.971,0-3.531,1.061-3.531,3.828v.646q1.044-.108,2.062-.225v-.42c0-1.431.465-2.041,1.469-2.041s1.477.61,1.477,2.041v.059q1.037-.135,2.044-.279C2999.452-724.871,2997.927-725.879,2996.014-725.879Z" transform="translate(-2923.519 739.18)"></path><path class="ld" d="M3019-723.5c0-.428.252-.631.932-.631.811,0,2.2.107,2.528.131h.024a.182.182,0,0,0,.2-.2v-1.2a.212.212,0,0,0-.179-.216,13.223,13.223,0,0,0-2.53-.26c-2.314,0-3.052,1.012-3.052,2.325a2.585,2.585,0,0,0,.167.965q1.13-.179,2.214-.368A.6.6,0,0,1,3019-723.5Z" transform="translate(-2938.966 739.18)"></path></g></g></svg>