<?xml version="1.0" encoding="utf-8"?>
<!-- Generator: Adobe Illustrator 19.0.0, SVG Export Plug-In . SVG Version: 6.00 Build 0)  -->
<svg version="1.1" id="Capa_2" xmlns="http://www.w3.org/2000/svg" xmlns:xlink="http://www.w3.org/1999/xlink" x="0px" y="0px"
	 viewBox="16 329.9 627 183" style="enable-background:new 16 329.9 627 183;" xml:space="preserve">
<style type="text/css">
	.st0{fill:#fff;}
	.st1{fill:#FFFFFF;}
	.st2{fill:transparent;}
	.st3{fill:transparent;}
</style>
<g>
	<g>
		<g>
			<g>
				<g id="XMLID_78_">
					<path id="XMLID_99_" class="st1" d="M178.3,469.1v-22.7h6.7c2,0,3.8,0.4,5.4,1.3c1.6,0.9,2.8,2.2,3.6,3.8
						c0.9,1.6,1.3,3.5,1.3,5.7v1.1c0,2.2-0.4,4.1-1.3,5.7c-0.9,1.6-2.1,2.9-3.7,3.8c-1.6,0.9-3.4,1.3-5.5,1.3
						C184.8,469.1,178.3,469.1,178.3,469.1z M182.3,449.6v16.3h2.6c2.1,0,3.7-0.6,4.8-1.9s1.7-3.2,1.7-5.6v-1.3
						c0-2.5-0.5-4.3-1.6-5.6c-1.1-1.3-2.6-1.9-4.7-1.9H182.3z"/>
					<path id="XMLID_97_" class="st1" d="M198.5,447.8c0-0.6,0.2-1.1,0.6-1.5c0.4-0.4,0.9-0.6,1.6-0.6s1.2,0.2,1.6,0.6
						c0.4,0.4,0.6,0.9,0.6,1.5s-0.2,1.1-0.6,1.4c-0.4,0.4-0.9,0.6-1.6,0.6s-1.2-0.2-1.6-0.6C198.7,448.9,198.5,448.4,198.5,447.8z
						 M202.6,469.1h-3.8v-16.9h3.8V469.1z"/>
					<path id="XMLID_95_" class="st1" d="M215.8,464.5c0-0.7-0.3-1.2-0.8-1.5c-0.6-0.4-1.5-0.7-2.8-0.9c-1.3-0.3-2.4-0.6-3.2-1
						c-1.9-0.9-2.8-2.2-2.8-4c0-1.5,0.6-2.7,1.8-3.7s2.8-1.5,4.7-1.5c2,0,3.7,0.5,4.9,1.5s1.9,2.3,1.9,3.9h-3.8
						c0-0.7-0.3-1.3-0.8-1.8s-1.3-0.7-2.2-0.7c-0.8,0-1.5,0.2-2,0.6s-0.8,0.9-0.8,1.5s0.2,1,0.7,1.4c0.5,0.3,1.5,0.6,3,1
						c1.5,0.3,2.7,0.7,3.5,1.2s1.5,1,1.9,1.6s0.6,1.4,0.6,2.3c0,1.5-0.6,2.8-1.9,3.7c-1.3,0.9-2.9,1.4-5,1.4c-1.4,0-2.6-0.3-3.7-0.8
						c-1.1-0.5-1.9-1.2-2.5-2.1s-0.9-1.8-0.9-2.8h3.7c0.1,0.9,0.4,1.6,1,2.1s1.5,0.7,2.5,0.7s1.8-0.2,2.3-0.6
						C215.5,465.6,215.8,465.1,215.8,464.5z"/>
					<path id="XMLID_94_" class="st1" d="M229.8,469.4c-2.4,0-4.4-0.8-5.9-2.3s-2.2-3.5-2.2-6.1v-0.5c0-1.7,0.3-3.2,1-4.5
						s1.6-2.4,2.7-3.1c1.2-0.7,2.5-1.1,3.9-1.1c2.3,0,4.1,0.7,5.3,2.2c1.3,1.5,1.9,3.5,1.9,6.2v1.5h-11c0.1,1.4,0.6,2.5,1.4,3.3
						c0.8,0.8,1.8,1.2,3.1,1.2c1.7,0,3.2-0.7,4.3-2.1l2,2c-0.7,1-1.6,1.8-2.7,2.4C232.5,469.2,231.2,469.4,229.8,469.4z M229.4,455
						c-1,0-1.9,0.4-2.5,1.1s-1,1.7-1.2,3h7.2v-0.3c-0.1-1.3-0.4-2.2-1-2.9C231.2,455.3,230.4,455,229.4,455z"/>
					<path id="XMLID_92_" class="st1" d="M243,452.2l0.1,2c1.3-1.5,2.9-2.3,4.9-2.3c3.5,0,5.3,2,5.4,6v11.2h-3.8v-11
						c0-1.1-0.2-1.9-0.7-2.4s-1.2-0.8-2.3-0.8c-1.5,0-2.7,0.7-3.4,2.1v12h-3.8v-16.8L243,452.2L243,452.2z M252.2,445.5
						c0,1.1-0.3,2.1-1,2.9s-1.5,1.1-2.5,1.1c-0.4,0-0.8,0-1.1-0.1s-0.7-0.3-1.3-0.6s-0.9-0.5-1.2-0.6c-0.2-0.1-0.5-0.1-0.7-0.1
						c-0.4,0-0.7,0.1-1,0.4s-0.4,0.7-0.4,1.2l-2.3-0.1c0-1.1,0.3-2.1,1-2.9s1.5-1.2,2.5-1.2c0.6,0,1.3,0.2,2.1,0.7s1.5,0.7,2.1,0.7
						c0.4,0,0.7-0.1,1-0.4s0.4-0.7,0.4-1.2L252.2,445.5z"/>
					<path id="XMLID_91_" class="st1" d="M256.3,460.5c0-1.7,0.3-3.1,1-4.5s1.6-2.3,2.8-3.1c1.2-0.7,2.6-1.1,4.1-1.1
						c2.3,0,4.1,0.7,5.6,2.2s2.2,3.4,2.3,5.8v0.9c0,1.7-0.3,3.2-1,4.5s-1.6,2.3-2.8,3c-1.2,0.7-2.6,1.1-4.1,1.1
						c-2.4,0-4.3-0.8-5.7-2.4C257.1,465.3,256.4,463.2,256.3,460.5L256.3,460.5L256.3,460.5z M260.1,460.8c0,1.7,0.4,3.1,1.1,4.1
						s1.7,1.5,3,1.5s2.3-0.5,3-1.5s1.1-2.5,1.1-4.4c0-1.7-0.4-3.1-1.1-4.1s-1.7-1.5-3-1.5c-1.2,0-2.2,0.5-3,1.5
						C260.5,457.4,260.1,458.9,260.1,460.8z"/>
					<path id="XMLID_96_" class="st1" d="M297.9,463.9l2.7-11.7h3.7l-4.6,16.9h-3.1l-3.6-11.6l-3.6,11.6h-3.1l-4.6-16.9h3.7
						l2.7,11.5l3.5-11.5h2.9L297.9,463.9z"/>
					<path id="XMLID_98_" class="st1" d="M313.5,469.4c-2.4,0-4.4-0.8-5.9-2.3s-2.2-3.5-2.2-6.1v-0.5c0-1.7,0.3-3.2,1-4.5
						s1.6-2.4,2.7-3.1c1.2-0.7,2.5-1.1,3.9-1.1c2.3,0,4.1,0.7,5.3,2.2c1.3,1.5,1.9,3.5,1.9,6.2v1.5h-11c0.1,1.4,0.6,2.5,1.4,3.3
						s1.8,1.2,3.1,1.2c1.7,0,3.2-0.7,4.3-2.1l2,2c-0.7,1-1.6,1.8-2.7,2.4C316.2,469.2,314.9,469.4,313.5,469.4z M313,455
						c-1,0-1.9,0.4-2.5,1.1s-1,1.7-1.2,3h7.2v-0.3c-0.1-1.3-0.4-2.2-1-2.9C314.9,455.3,314.1,455,313,455z"/>
					<path id="XMLID_101_" class="st1" d="M338,460.8c0,2.6-0.6,4.7-1.8,6.3c-1.2,1.6-2.8,2.3-4.8,2.3s-3.5-0.7-4.6-2.1l-0.2,1.8
						h-3.4v-24h3.8v8.7c1.1-1.3,2.6-1.9,4.4-1.9c2.1,0,3.7,0.8,4.9,2.3s1.8,3.7,1.8,6.4L338,460.8L338,460.8z M334.2,460.5
						c0-1.8-0.3-3.2-1-4.1c-0.6-0.9-1.6-1.4-2.8-1.4c-1.6,0-2.8,0.7-3.5,2.2v7c0.7,1.5,1.8,2.2,3.5,2.2c1.2,0,2.1-0.4,2.8-1.3
						c0.6-0.9,1-2.2,1-4V460.5z"/>
					<path id="XMLID_104_" class="st1" d="M348.4,463c0-1.1,0.3-2,0.9-2.9s1.7-1.9,3.4-3.1c-0.9-1.1-1.5-2.1-1.9-2.8
						c-0.3-0.8-0.5-1.5-0.5-2.3c0-1.8,0.5-3.2,1.6-4.2s2.5-1.6,4.4-1.6c1.7,0,3,0.5,4.1,1.5s1.6,2.2,1.6,3.6c0,0.9-0.2,1.8-0.7,2.6
						c-0.5,0.8-1.3,1.6-2.4,2.4l-1.5,1.1l4.4,5.2c0.6-1.3,1-2.6,1-4.2h3.3c0,2.8-0.7,5.1-2,6.9l3.3,4H363l-1.3-1.5
						c-1.6,1.2-3.6,1.8-5.8,1.8s-4-0.6-5.4-1.8C349.1,466.5,348.4,464.9,348.4,463z M356,466.4c1.3,0,2.5-0.4,3.6-1.3l-5-5.9
						l-0.5,0.3c-1.3,0.9-1.9,2-1.9,3.3c0,1.1,0.3,1.9,1,2.6C353.9,466.1,354.8,466.4,356,466.4z M353.9,451.8c0,0.9,0.5,2,1.6,3.3
						l1.7-1.2l0.5-0.4c0.6-0.6,1-1.3,1-2.2c0-0.6-0.2-1.1-0.7-1.5c-0.4-0.4-1-0.6-1.7-0.6s-1.3,0.3-1.8,0.8S353.9,451,353.9,451.8z"
						/>
					<path id="XMLID_108_" class="st1" d="M382.8,446.4l6.6,17.4l6.5-17.4h5.1v22.8h-3.9v-7.5l0.4-10l-6.7,17.5H388l-6.7-17.5
						l0.4,10v7.5h-3.9v-22.8H382.8z"/>
					<path id="XMLID_110_" class="st1" d="M415.1,469.1c-0.2-0.3-0.3-0.8-0.4-1.6c-1.2,1.3-2.7,1.9-4.4,1.9c-1.7,0-3.1-0.5-4.2-1.5
						s-1.6-2.2-1.6-3.6c0-1.8,0.7-3.2,2-4.1c1.3-1,3.3-1.4,5.7-1.4h2.3v-1.1c0-0.9-0.2-1.6-0.7-2.1s-1.2-0.8-2.2-0.8
						c-0.9,0-1.6,0.2-2.1,0.6c-0.6,0.4-0.8,1-0.8,1.6h-3.8c0-0.9,0.3-1.8,0.9-2.6c0.6-0.8,1.5-1.4,2.5-1.9c1.1-0.5,2.2-0.7,3.5-0.7
						c2,0,3.6,0.5,4.7,1.5c1.2,1,1.8,2.4,1.8,4.2v7.6c0,1.5,0.2,2.7,0.6,3.6v0.3h-3.8V469.1z M411,466.4c0.8,0,1.5-0.2,2.1-0.5
						c0.7-0.4,1.2-0.9,1.5-1.5v-3.2h-2c-1.4,0-2.5,0.2-3.2,0.7s-1.1,1.2-1.1,2.1c0,0.7,0.2,1.3,0.7,1.7
						C409.5,466.2,410.2,466.4,411,466.4z"/>
					<path id="XMLID_89_" class="st1" d="M431,455.7c-0.5-0.1-1-0.1-1.5-0.1c-1.7,0-2.9,0.7-3.5,2v11.6h-3.8v-17h3.6l0.1,1.9
						c0.9-1.5,2.2-2.2,3.8-2.2c0.5,0,1,0.1,1.3,0.2V455.7z"/>
					<path id="XMLID_88_" class="st1" d="M438.6,461.9l-1.7,1.7v5.5h-3.8v-24h3.8v13.8l1.2-1.5l4.7-5.3h4.6l-6.3,7l7,9.9h-4.4
						L438.6,461.9z"/>
					<path id="XMLID_87_" class="st1" d="M456.3,469.4c-2.4,0-4.4-0.8-5.9-2.3s-2.2-3.5-2.2-6.1v-0.5c0-1.7,0.3-3.2,1-4.5
						s1.6-2.4,2.7-3.1c1.2-0.7,2.5-1.1,3.9-1.1c2.3,0,4.1,0.7,5.3,2.2s1.9,3.5,1.9,6.2v1.5h-11c0.1,1.4,0.6,2.5,1.4,3.3
						s1.8,1.2,3.1,1.2c1.7,0,3.2-0.7,4.3-2.1l2,2c-0.7,1-1.6,1.8-2.7,2.4C459,469.1,457.7,469.4,456.3,469.4z M455.8,455
						c-1,0-1.9,0.4-2.5,1.1s-1,1.7-1.2,3h7.2v-0.3c-0.1-1.3-0.4-2.2-1-2.9C457.7,455.3,456.9,455,455.8,455z"/>
					<path id="XMLID_86_" class="st1" d="M470.7,448.1v4.1h3v2.8h-3v9.4c0,0.6,0.1,1.1,0.4,1.4s0.7,0.4,1.4,0.4
						c0.4,0,0.9-0.1,1.3-0.2v2.9c-0.9,0.2-1.7,0.4-2.5,0.4c-2.9,0-4.4-1.6-4.4-4.8v-9.6h-2.8v-2.8h2.8V448L470.7,448.1L470.7,448.1z
						"/>
					<path id="XMLID_85_" class="st1" d="M476,447.8c0-0.6,0.2-1.1,0.6-1.5s0.9-0.6,1.6-0.6s1.2,0.2,1.6,0.6s0.6,0.9,0.6,1.5
						s-0.2,1.1-0.6,1.4c-0.4,0.4-0.9,0.6-1.6,0.6s-1.2-0.2-1.6-0.6C476.2,448.9,476,448.4,476,447.8z M480.1,469.1h-3.8v-16.9h3.8
						V469.1z"/>
					<path id="XMLID_84_" class="st1" d="M487.5,452.2l0.1,2c1.3-1.5,2.9-2.3,4.9-2.3c3.5,0,5.3,2,5.4,6v11.2h-3.8v-11
						c0-1.1-0.2-1.9-0.7-2.4s-1.2-0.8-2.3-0.8c-1.5,0-2.7,0.7-3.4,2.1v12h-3.8v-16.8L487.5,452.2L487.5,452.2z"/>
					<path id="XMLID_83_" class="st1" d="M500.8,460.5c0-2.6,0.6-4.7,1.9-6.3c1.2-1.6,2.9-2.4,4.9-2.4c1.9,0,3.4,0.7,4.5,2l0.2-1.7
						h3.4v16.4c0,2.2-0.7,4-2.1,5.3c-1.4,1.3-3.2,1.9-5.6,1.9c-1.2,0-2.5-0.3-3.6-0.8c-1.2-0.5-2.1-1.2-2.7-2l1.8-2.3
						c1.2,1.4,2.6,2.1,4.3,2.1c1.3,0,2.3-0.3,3-1s1.1-1.7,1.1-3v-1.1c-1.1,1.2-2.6,1.8-4.4,1.8c-2,0-3.6-0.8-4.9-2.4
						C501.5,465.5,500.8,463.3,500.8,460.5z M504.6,460.9c0,1.7,0.3,3,1,4s1.7,1.5,2.9,1.5c1.5,0,2.7-0.7,3.4-2v-7.5
						c-0.7-1.3-1.8-1.9-3.4-1.9c-1.3,0-2.2,0.5-2.9,1.5C505,457.5,504.6,458.9,504.6,460.9z"/>
					<path id="XMLID_82_" class="st1" d="M526.8,460.5c0-1.7,0.3-3.1,1-4.5c0.7-1.3,1.6-2.3,2.8-3.1c1.2-0.7,2.6-1.1,4.1-1.1
						c2.3,0,4.1,0.7,5.6,2.2s2.2,3.4,2.3,5.8v0.9c0,1.7-0.3,3.2-1,4.5s-1.6,2.3-2.8,3s-2.6,1.1-4.1,1.1c-2.4,0-4.3-0.8-5.7-2.4
						C527.6,465.3,526.9,463.2,526.8,460.5L526.8,460.5L526.8,460.5z M530.6,460.8c0,1.7,0.4,3.1,1.1,4.1s1.7,1.5,3,1.5
						s2.3-0.5,3-1.5s1.1-2.5,1.1-4.4c0-1.7-0.4-3.1-1.1-4.1s-1.7-1.5-3-1.5c-1.2,0-2.2,0.5-3,1.5S530.6,458.9,530.6,460.8z"/>
					<path id="XMLID_81_" class="st1" d="M549,452.2l0.1,2c1.3-1.5,2.9-2.3,4.9-2.3c3.5,0,5.3,2,5.4,6v11.2h-3.8v-11
						c0-1.1-0.2-1.9-0.7-2.4s-1.2-0.8-2.3-0.8c-1.5,0-2.7,0.7-3.4,2.1v12h-3.8v-16.8L549,452.2L549,452.2z"/>
					<path id="XMLID_80_" class="st1" d="M567.1,469.1h-3.8v-24h3.8V469.1z"/>
					<path id="XMLID_164_" class="st1" d="M570.8,447.8c0-0.6,0.2-1.1,0.6-1.5c0.4-0.4,0.9-0.6,1.6-0.6s1.2,0.2,1.6,0.6
						c0.4,0.4,0.6,0.9,0.6,1.5s-0.2,1.1-0.6,1.4c-0.4,0.4-0.9,0.6-1.6,0.6s-1.2-0.2-1.6-0.6C571,448.9,570.8,448.4,570.8,447.8z
						 M574.8,469.1H571v-16.9h3.8V469.1z"/>
					<path id="XMLID_79_" class="st1" d="M582.2,452.2l0.1,2c1.3-1.5,2.9-2.3,4.9-2.3c3.5,0,5.3,2,5.4,6v11.2h-3.8v-11
						c0-1.1-0.2-1.9-0.7-2.4s-1.2-0.8-2.3-0.8c-1.5,0-2.7,0.7-3.4,2.1v12h-3.8v-16.8L582.2,452.2L582.2,452.2z"/>
					<path id="XMLID_77_" class="st1" d="M603.6,469.4c-2.4,0-4.4-0.8-5.9-2.3s-2.2-3.5-2.2-6.1v-0.5c0-1.7,0.3-3.2,1-4.5
						s1.6-2.4,2.7-3.1c1.2-0.7,2.5-1.1,3.9-1.1c2.3,0,4.1,0.7,5.3,2.2s1.9,3.5,1.9,6.2v1.5h-11c0.1,1.4,0.6,2.5,1.4,3.3
						c0.8,0.8,1.8,1.2,3.1,1.2c1.7,0,3.2-0.7,4.3-2.1l2,2c-0.7,1-1.6,1.8-2.7,2.4C606.3,469.1,605.1,469.4,603.6,469.4z M603.2,455
						c-1,0-1.9,0.4-2.5,1.1s-1,1.7-1.2,3h7.2v-0.3c-0.1-1.3-0.4-2.2-1-2.9C605.1,455.3,604.2,455,603.2,455z"/>
				</g>
				<g>
					<g id="XMLID_55_">
						<path id="XMLID_76_" class="st1" d="M191.3,378.1l12.7,36.7h0.2l12.8-36.7h13.1v49.8h-10V413l1-22h-0.2l-13.3,36.8h-6.8
							l-13.3-36.7h-0.2l1,21.8v14.8h-10v-49.6L191.3,378.1L191.3,378.1z"/>
						<path id="XMLID_74_" class="st1" d="M256.4,428.6c-5.3,0-9.6-1.7-12.8-5.1s-4.8-7.8-4.8-13v-1.4c0-5.5,1.5-10,4.5-13.6
							s7.1-5.3,12.2-5.3c5,0,8.9,1.5,11.6,4.5c2.8,3,4.1,7.1,4.1,12.2v5.4h-22.1l-0.1,0.2c0.2,2.4,1,4.4,2.4,6s3.4,2.3,5.9,2.3
							c2.2,0,4-0.2,5.5-0.7c1.5-0.4,3.1-1.1,4.8-2.1l2.7,6.2c-1.5,1.2-3.5,2.3-5.9,3.1C262.1,428.2,259.4,428.6,256.4,428.6z
							 M255.5,397.9c-1.8,0-3.3,0.7-4.4,2.1c-1.1,1.4-1.7,3.3-2,5.6l0.1,0.2h12.2v-0.9c0-2.1-0.5-3.8-1.5-5.1
							C259.1,398.5,257.6,397.9,255.5,397.9z"/>
						<path id="XMLID_73_" class="st1" d="M289.4,390.9v38.3c0,4.3-1.2,7.7-3.5,10c-2.3,2.4-5.5,3.5-9.6,3.5c-0.9,0-1.7,0-2.5-0.1
							s-1.5-0.2-2.4-0.4l0.5-7.6c0.5,0.1,1,0.2,1.6,0.3c0.5,0.1,1.1,0.1,1.7,0.1c1.3,0,2.4-0.5,3.1-1.4s1.1-2.4,1.1-4.4v-38.3H289.4
							z M289.2,381.9h-10v-7.4h10V381.9z"/>
						<path id="XMLID_58_" class="st1" d="M297.4,409c0-5.5,1.5-10,4.6-13.6c3.1-3.5,7.3-5.3,12.8-5.3s9.8,1.8,12.9,5.3
							s4.6,8,4.6,13.6v0.7c0,5.6-1.5,10.1-4.6,13.6s-7.4,5.2-12.8,5.2c-5.5,0-9.7-1.7-12.8-5.2c-3.1-3.5-4.6-8-4.6-13.6V409H297.4z
							 M307.4,409.7c0,3.4,0.6,6.1,1.8,8.1c1.2,2,3.1,3.1,5.7,3.1s4.5-1,5.7-3.1c1.2-2,1.8-4.7,1.8-8.1V409c0-3.3-0.6-5.9-1.8-8
							c-1.2-2.1-3.1-3.1-5.7-3.1s-4.5,1-5.7,3.1s-1.8,4.7-1.8,8V409.7z"/>
						<path id="XMLID_61_" class="st1" d="M359.7,399.4l-3.7-0.1c-1.5,0-2.7,0.3-3.7,0.9s-1.7,1.5-2.2,2.6v25h-9.9v-36.9h9.3
							l0.4,5.5c0.9-1.9,2-3.4,3.4-4.5s3-1.6,4.8-1.6c0.5,0,1,0,1.4,0.1s0.8,0.2,1.3,0.3L359.7,399.4z"/>
						<path id="XMLID_63_" class="st1" d="M381.9,420.9c1.8,0,3.2-0.5,4.3-1.5c1.1-1,1.6-2.4,1.6-4.1h9.1l0.1,0.2
							c0.1,3.7-1.3,6.9-4.2,9.4s-6.5,3.8-10.8,3.8c-5.5,0-9.8-1.7-12.7-5.2c-3-3.5-4.5-8-4.5-13.4v-1c0-5.4,1.5-9.9,4.5-13.4
							s7.2-5.3,12.7-5.3c4.6,0,8.2,1.3,11,3.9s4.1,6,4.1,10.3l-0.1,0.2h-9.2c0-1.9-0.5-3.5-1.6-4.8c-1-1.3-2.5-1.9-4.3-1.9
							c-2.6,0-4.5,1-5.6,3.1c-1.1,2-1.6,4.7-1.6,7.9v1c0,3.3,0.5,6,1.6,8C377.4,419.9,379.3,420.9,381.9,420.9z"/>
						<path id="XMLID_65_" class="st1" d="M403,409c0-5.5,1.5-10,4.6-13.6c3.1-3.5,7.3-5.3,12.8-5.3s9.8,1.8,12.9,5.3
							s4.6,8,4.6,13.6v0.7c0,5.6-1.5,10.1-4.6,13.6s-7.4,5.2-12.8,5.2c-5.5,0-9.7-1.7-12.8-5.2c-3.1-3.5-4.6-8-4.6-13.6V409H403z
							 M412.9,409.7c0,3.4,0.6,6.1,1.8,8.1c1.2,2,3.1,3.1,5.7,3.1s4.5-1,5.7-3.1c1.2-2,1.8-4.7,1.8-8.1V409c0-3.3-0.6-5.9-1.8-8
							c-1.2-2.1-3.1-3.1-5.7-3.1s-4.5,1-5.7,3.1s-1.8,4.7-1.8,8V409.7z"/>
						<path id="XMLID_68_" class="st1" d="M455,390.9l0.4,5.3c1.2-1.9,2.7-3.4,4.5-4.4s3.8-1.6,6-1.6c3.7,0,6.7,1.2,8.8,3.5
							c2.1,2.3,3.1,6,3.1,11v23.1h-10v-23.1c0-2.5-0.5-4.3-1.5-5.3s-2.5-1.6-4.5-1.6c-1.3,0-2.5,0.3-3.6,0.8c-1,0.5-1.9,1.3-2.6,2.3
							v26.9h-10v-36.9L455,390.9L455,390.9z"/>
						<path id="XMLID_70_" class="st1" d="M518.5,414.6h0.2l4.8-23.8h9.4l-9.4,37h-8.3l-6.9-22h-0.2l-6.9,22h-8.3l-9.4-37h9.4
							l4.9,23.7h0.2l6.9-23.7h6.7L518.5,414.6z"/>
						<path id="XMLID_72_" class="st1" d="M554.6,428.6c-5.3,0-9.6-1.7-12.8-5.1s-4.8-7.8-4.8-13v-1.4c0-5.5,1.5-10,4.5-13.6
							s7.1-5.3,12.2-5.3c5,0,8.9,1.5,11.6,4.5s4.1,7.1,4.1,12.2v5.4h-22.1l-0.1,0.2c0.2,2.4,1,4.4,2.4,6s3.4,2.3,5.9,2.3
							c2.2,0,4-0.2,5.5-0.7c1.5-0.4,3.1-1.1,4.8-2.1l2.7,6.2c-1.5,1.2-3.5,2.3-5.9,3.1S557.5,428.6,554.6,428.6z M553.7,397.9
							c-1.8,0-3.3,0.7-4.4,2.1c-1.1,1.4-1.7,3.3-2,5.6l0.1,0.2h12.2v-0.9c0-2.1-0.5-3.8-1.5-5.1
							C557.2,398.5,555.7,397.9,553.7,397.9z"/>
						<path id="XMLID_75_" class="st1" d="M610.9,410.4c0,5.5-1.2,9.9-3.7,13.2c-2.5,3.3-6,5-10.7,5c-2.1,0-4-0.5-5.6-1.4
							s-3-2.2-4.1-3.9l-0.8,4.6h-8.5v-53.4h9.9v20.3c1.1-1.5,2.4-2.6,3.8-3.4c1.5-0.8,3.2-1.2,5.1-1.2c4.7,0,8.3,1.8,10.7,5.3
							c2.5,3.5,3.7,8.3,3.7,14.2v0.7L610.9,410.4L610.9,410.4z M600.9,409.7c0-3.6-0.5-6.5-1.6-8.6s-2.9-3.2-5.4-3.2
							c-1.5,0-2.9,0.3-3.9,1c-1.1,0.7-1.9,1.6-2.5,2.8v15.7c0.6,1.1,1.5,2,2.5,2.6c1.1,0.6,2.4,0.9,4,0.9c2.6,0,4.4-0.9,5.4-2.7
							s1.5-4.4,1.5-7.8V409.7z"/>
					</g>
				</g>
			</g>
			<g id="XMLID_17_">
				<path id="XMLID_51_" class="st2" d="M81.2,479l0.2,0.2l0,0l0,0c0.9,0.8,9.2,8.2,26.3,8.2h0.1h0.2c2,0,12.5-0.4,22.1-7.3
					c10.5-7.7,15.6-18.3,15.6-32.6v-15.4c0-3.7,0-6.7-6.7-6.7H22.7c-6.7,0-6.7,2.9-6.7,6.7v15.4c0,14.3,5.1,25,15.6,32.6
					c9.6,7,20.1,7.3,22.1,7.3h0.2H54c17.8,0,26.2-8.1,26.3-8.2l0.2-0.2h0.3H81.2z"/>
				<path id="XMLID_48_" class="st3" d="M22.7,418.8h116.4c6.7,0,6.7-2.7,6.7-6.7v-16.4c0-14.1-5.1-24.7-15.6-32.4
					c-9.6-7-20.2-7.4-22.2-7.4h-0.2h-0.1c-17.8,0-26.2,8.2-26.2,8.2l-0.2,0.2H81h-0.3l-0.2-0.2l0,0l0,0c-1.1-0.8-9.4-8.2-26.5-8.2
					h-0.1h-0.2c-2,0-12.5,0.4-22.1,7.3C21.1,370.9,16,381.6,16,395.9v16.2C16,415.8,16,418.8,22.7,418.8z"/>
				<path id="XMLID_46_" class="st1" d="M22.7,418.8h116.4c6.7,0,6.7-2.7,6.7-6.7v-16.4c0-14.1-5.1-24.7-15.6-32.4
					c-9.6-7-20.2-7.4-22.2-7.4h-0.2h-0.1c-17.8,0-26.2,8.2-26.2,8.2l-0.2,0.2H81h-0.3l-0.2-0.2l0,0l0,0c-1.1-0.8-9.4-8.2-26.5-8.2
					h-0.1h-0.2c-2,0-12.5,0.4-22.1,7.3C21.1,370.9,16,381.6,16,395.9v16.2C16,415.8,16,418.8,22.7,418.8z M25.6,411.4v-16
					c0-20.5,15-29.9,28.9-29.9c15.1,0,21.7,7.2,25.7,11.5l0.2,0.2c0.2,0.2,0.3,0.3,0.4,0.4c0.1-0.1,0.2-0.2,0.4-0.4l0.2-0.2
					c4-4.3,10.6-11.5,25.7-11.5c13.9,0,28.9,9.4,28.9,29.9v15.9v0.8h-0.8h-24.3h-0.8v-0.8v-12.1c0-5-3-8.6-8.5-8.6s-8.5,3.6-8.5,8.6
					v12.1v0.8h-0.8H69.5h-0.8v-0.8v-12.1c0-5-3-8.6-8.5-8.6s-8.5,3.6-8.5,8.6v12.1v0.8h-0.9H26.4h-0.8V411.4z"/>
				<path id="XMLID_45_" class="st1" d="M81.2,479l0.2,0.2l0,0l0,0c0.9,0.8,9.2,8.2,26.3,8.2h0.1h0.2c2,0,12.5-0.4,22.1-7.3
					c10.5-7.7,15.6-18.3,15.6-32.6v-15.4c0-3.7,0-6.7-6.7-6.7H22.7c-6.7,0-6.7,2.9-6.7,6.7v15.4c0,14.3,5.1,25,15.6,32.6
					c9.6,7,20.1,7.3,22.1,7.3h0.2H54c17.8,0,26.2-8.1,26.3-8.2l0.2-0.2h0.3H81.2z M80.5,466l-0.1,0.1l-0.2,0.2
					c-4,4.3-10.6,11.5-25.7,11.5c-13.9,0-28.9-9.4-28.9-29.9V432v-0.8h0.8h24.4h0.8v0.8v12.1c0,5,3,8.6,8.5,8.6s8.5-3.6,8.5-8.6V432
					v-0.8h0.8h22.7h0.8v0.8v12.1c0,5,3,8.6,8.5,8.6s8.5-3.6,8.5-8.6V432v-0.8h0.8h24.4h0.8v0.8v15.9c0,20.5-15,29.9-28.9,29.9
					c-14.6,0-21.3-5.1-25.9-10.1C80.8,467.4,80.6,466.9,80.5,466C80.6,466.1,80.6,466.1,80.5,466z"/>
			</g>
		</g>
		<g id="XMLID_202_">
		</g>
	</g>
</g>
</svg>
