<?xml version="1.0" encoding="UTF-8"?>
<svg width="100%" height="100%" viewBox="0 0 178 69" version="1.1" xmlns="http://www.w3.org/2000/svg" xmlns:xlink="http://www.w3.org/1999/xlink" xml:space="preserve" xmlns:serif="http://www.serif.com/" style="fill-rule:evenodd;clip-rule:evenodd;stroke-linejoin:round;stroke-miterlimit:1.41421;"><path d="M7.707,28.209c0,2.624 0.703,4.697 2.104,6.225c1.433,1.543 3.33,2.316 5.682,2.316c2.374,0 4.265,-0.762 5.685,-2.29c1.418,-1.527 2.129,-3.565 2.13,-6.115c0,-2.551 -0.712,-4.587 -2.13,-6.117c-1.436,-1.541 -3.331,-2.315 -5.685,-2.316c-2.315,0 -4.192,0.775 -5.63,2.316c-1.435,1.545 -2.156,3.54 -2.156,5.981m-7.707,-0.132c0,-4.198 1.503,-7.771 4.507,-10.716c3.007,-2.945 6.665,-4.417 10.986,-4.417c4.338,0 8.019,1.483 11.045,4.448c2.984,2.965 4.478,6.607 4.478,10.924c0,4.357 -1.501,8.01 -4.508,10.958c-3.026,2.924 -6.736,4.386 -11.134,4.386c-4.358,0 -8.01,-1.492 -10.958,-4.479c-2.942,-2.945 -4.416,-6.644 -4.416,-11.104" style="fill:#fff;"></path><path d="M46.345,13.161c-2.114,0 -4.937,0.761 -7.108,1.937l-0.471,-0.999l-5.52,0l0,29.373l7.811,0l0,-21.794c1.293,-0.529 2.938,-1.175 5.288,-1.175c2.055,0 3.348,0.998 3.348,3.173l0,19.796l7.812,0l0,-21.794c0.999,-0.412 2.644,-1.175 5.287,-1.175c2.058,0 3.349,0.998 3.349,3.173l0,19.796l7.812,0l0,-20.091c0,-6.285 -3.288,-10.22 -11.161,-10.22c-2.527,0 -5.875,0.999 -8.281,2.581c-1.587,-1.525 -3.878,-2.581 -8.166,-2.581" style="fill:#fff;"></path><path d="M77.932,4.816c0,2.645 2.113,4.759 4.758,4.759c2.644,0 4.815,-2.114 4.815,-4.759c0,-2.644 -2.171,-4.816 -4.815,-4.816c-2.645,0 -4.758,2.172 -4.758,4.816m10.634,39.597l0,-7.344c-1.587,0 -2.116,-0.529 -2.116,-1.645l0,-21.325l-7.695,0l0,22.617c0,5.697 2.644,7.697 7.695,7.697l2.116,0Z" style="fill:#fff;"></path><path d="M110.692,36.716c-1.055,0.176 -3.115,0.354 -4.111,0.354c-1.704,0 -2.819,-0.414 -2.819,-1.821l0,-14.16l8.107,0l0,-6.99l-8.107,0l0,-8.754l-7.695,2.116l0,6.872l-5.112,1.471l0,5.285l5.112,0l0,14.569c0,6.109 5.05,8.755 10.099,8.755c0.471,0 2.002,0.057 4.526,-0.531l0,-7.166Z" style="fill:#fff;"></path><path d="M122.015,23.029c0,-1.352 0.701,-2.527 3.994,-2.527c3.111,0 6.167,0.881 9.458,1.996l0,-7.4c-3.467,-1.527 -6.756,-1.938 -9.458,-1.938c-8.694,0 -11.573,5.345 -11.573,9.927c0,4.582 2.115,8.048 10.748,8.87c3.232,0.295 3.936,1.175 3.936,2.35c0,1.292 -1.055,2.762 -4.639,2.762c-3.231,0 -6.992,-1.118 -9.751,-2.119l0,7.64c2.468,0.94 6.931,1.823 9.692,1.823c9.341,0 12.335,-5.289 12.335,-10.224c0,-5.464 -1.997,-8.577 -10.748,-9.399c-3.346,-0.295 -3.994,-0.881 -3.994,-1.761" style="fill:#fff;"></path><path d="M140.447,4.816c0,2.645 2.116,4.759 4.759,4.759c2.644,0 4.817,-2.114 4.817,-4.759c0,-2.644 -2.173,-4.816 -4.817,-4.816c-2.643,0 -4.759,2.172 -4.759,4.816m10.636,39.597l0,-7.344c-1.59,0 -2.121,-0.529 -2.121,-1.645l0,-21.325l-7.69,0l0,22.617c0,5.697 2.644,7.697 7.69,7.697l2.121,0Z" style="fill:#fff;"></path><path d="M162.52,23.029c0,-1.352 0.701,-2.527 3.992,-2.527c3.115,0 6.17,0.881 9.458,1.996l0,-7.4c-3.465,-1.527 -6.756,-1.938 -9.458,-1.938c-8.694,0 -11.571,5.345 -11.571,9.927c0,4.582 2.112,8.048 10.75,8.87c3.235,0.295 3.936,1.175 3.936,2.35c0,1.292 -1.057,2.762 -4.641,2.762c-3.231,0 -6.993,-1.118 -9.751,-2.119l0,7.64c2.468,0.94 6.933,1.823 9.692,1.823c9.34,0 12.334,-5.289 12.334,-10.224c0,-5.464 -1.993,-8.577 -10.75,-9.399c-3.346,-0.295 -3.992,-0.881 -3.992,-1.761" style="fill:#fff;"></path><path d="M37.849,57.245c-0.354,-0.112 -0.769,-0.157 -1.325,-0.157c-1.852,0 -2.082,1.529 -2.082,3.057c0,1.525 0.23,3.048 2.082,3.048c0.955,0 1.497,-0.134 2.16,-0.489l0,-5.122c-0.263,-0.139 -0.542,-0.232 -0.835,-0.337m-1.325,-1.112c0.725,0 1.434,0.216 2.16,0.632l0,-4.334l1.078,0l0,11.569l-0.601,0l-0.231,-0.634c-0.803,0.508 -1.572,0.787 -2.406,0.787c-2.484,0 -3.162,-1.786 -3.162,-4.008c0,-2.223 0.678,-4.012 3.162,-4.012" style="fill:#fff;"></path><path d="M42.149,53.433c0,0.48 0.372,0.848 0.85,0.848c0.477,0 0.849,-0.368 0.849,-0.848c0,-0.48 -0.372,-0.849 -0.849,-0.849c-0.478,0 -0.85,0.369 -0.85,0.849m2.021,10.72l0,-0.879c-0.478,0 -0.647,-0.153 -0.647,-0.695l0,-6.292l-1.049,0l0,6.166c0,1.237 0.588,1.7 1.696,1.7" style="fill:#fff;"></path><path d="M49.12,60.975c-1.807,0 -2.006,-0.924 -2.006,-1.943c0,-1.017 0.199,-1.944 2.006,-1.944c1.802,0 2.003,0.927 2.003,1.944c0,1.019 -0.201,1.943 -2.003,1.943m1.681,3.209c0.939,0.109 1.25,0.416 1.25,1.203c0,1.311 -1.391,1.666 -2.931,1.666c-1.589,0 -2.391,-0.295 -2.391,-1.436c0,-0.985 0.849,-1.433 1.821,-1.694l2.251,0.261Zm-1.681,-2.25c2.327,0 3.006,-1.312 3.006,-2.902c0,-0.678 -0.122,-1.295 -0.448,-1.787l1.298,-0.371l0,-0.586l-2.624,0c-0.353,-0.094 -0.754,-0.155 -1.232,-0.155c-2.331,0 -3.008,1.31 -3.008,2.899c0,1.08 0.307,2.022 1.234,2.529c-0.325,0.263 -0.586,0.619 -0.586,1.05c0,0.51 0.2,0.816 0.494,1.018l0,0.014c-0.835,0.357 -1.59,0.927 -1.59,1.974c0,1.699 1.296,2.392 3.456,2.392c2.127,0 4.009,-0.741 4.009,-2.622c0,-1.343 -0.663,-1.914 -2.113,-2.067l-2.624,-0.309c-0.4,-0.045 -0.584,-0.214 -0.584,-0.6c0,-0.186 0.123,-0.403 0.293,-0.573c0.291,0.065 0.633,0.096 1.019,0.096" style="fill:#fff;"></path><path d="M54.636,53.433c0,0.48 0.372,0.848 0.849,0.848c0.479,0 0.849,-0.368 0.849,-0.848c0,-0.48 -0.37,-0.849 -0.849,-0.849c-0.477,0 -0.849,0.369 -0.849,0.849m2.021,10.72l0,-0.879c-0.479,0 -0.648,-0.153 -0.648,-0.695l0,-6.292l-1.048,0l0,6.166c0,1.237 0.584,1.7 1.696,1.7" style="fill:#fff;"></path><path d="M62.915,63.274c-0.201,0.014 -0.402,0.031 -0.602,0.031c-0.91,0 -1.419,-0.263 -1.48,-1.202l0,-4.97l2.391,0l0,-0.845l-2.391,0l0,-2.469l-1.079,0.31l0,2.08l-1.544,0.447l0,0.477l1.544,0l0,5c0.046,1.51 1.279,2.098 2.559,2.02c0.2,0 0.401,-0.017 0.602,-0.044l0,-0.835Z" style="fill:#fff;"></path><path d="M69.7,59.897l0,2.682c-0.664,0.387 -1.188,0.614 -2.021,0.614c-1.464,0 -1.664,-0.826 -1.664,-1.523c0,-0.741 0.231,-1.45 1.539,-1.572l2.146,-0.201Zm0,-1.19l0,0.432l-2.069,0.124c-2.265,0.2 -2.714,1.251 -2.714,2.407c0,1.296 0.712,2.483 2.731,2.483c0.772,0 1.603,-0.263 2.299,-0.772l0.23,0.619l0.601,0l0,-5.276c0,-1.542 -0.601,-2.591 -2.915,-2.591c-0.74,0 -1.635,0.123 -2.311,0.416l0,0.924c0.602,-0.2 1.279,-0.385 2.311,-0.385c1.436,0 1.837,0.495 1.837,1.619" style="fill:#fff;"></path><path d="M75.185,64.153l0,-0.879c-0.476,0 -0.647,-0.153 -0.647,-0.695l0,-10.148l-1.05,0l0,10.022c0,1.238 0.587,1.7 1.697,1.7" style="fill:#fff;"></path><path d="M80.328,60.145c0,2.222 0.648,4.008 3.255,4.008c0.757,0 1.618,-0.094 2.298,-0.385l0,-0.927c-0.603,0.2 -1.219,0.352 -2.314,0.352c-1.943,0 -2.161,-1.523 -2.161,-3.048c0,-1.528 0.218,-3.057 2.161,-3.057c1.095,0 1.711,0.157 2.314,0.355l0,-0.926c-0.68,-0.293 -1.541,-0.384 -2.298,-0.384c-2.607,0 -3.255,1.789 -3.255,4.012" style="fill:#fff;"></path><path d="M92.739,58.4l0,5.6l1.084,0l0,-5.553c0,-1.48 -0.787,-2.314 -2.621,-2.314c-0.714,0 -1.453,0.2 -2.118,0.632l0,-4.334l-1.048,0l0,11.569l1.048,0l0,-6.417c0.573,-0.323 1.113,-0.495 2.118,-0.495c0.955,0 1.537,0.309 1.537,1.312" style="fill:#fff;"></path><path d="M100.757,59.897l0,2.682c-0.661,0.387 -1.189,0.614 -2.018,0.614c-1.465,0 -1.667,-0.826 -1.667,-1.523c0,-0.741 0.231,-1.45 1.545,-1.572l2.14,-0.201Zm0,-1.19l0,0.432l-2.064,0.124c-2.267,0.2 -2.717,1.251 -2.717,2.407c0,1.296 0.712,2.483 2.729,2.483c0.773,0 1.604,-0.263 2.299,-0.772l0.232,0.619l0.601,0l0,-5.276c0,-1.542 -0.601,-2.591 -2.918,-2.591c-0.737,0 -1.633,0.123 -2.308,0.416l0,0.924c0.597,-0.2 1.278,-0.385 2.308,-0.385c1.439,0 1.838,0.495 1.838,1.619" style="fill:#fff;"></path><path d="M106.246,64.153l0,-0.879c-0.478,0 -0.646,-0.153 -0.646,-0.695l0,-10.148l-1.05,0l0,10.022c0,1.238 0.585,1.7 1.696,1.7" style="fill:#fff;"></path><path d="M110.408,64.153l0,-0.879c-0.479,0 -0.649,-0.153 -0.649,-0.695l0,-10.148l-1.051,0l0,10.022c0,1.238 0.586,1.7 1.7,1.7" style="fill:#fff;"></path><path d="M115.709,57.089c1.773,0 1.849,1.296 1.849,2.668l-4.01,0c0.049,-1.388 0.369,-2.668 2.161,-2.668m-3.241,3.057c0,2.222 0.635,4.007 3.241,4.007c0.754,0 1.679,-0.079 2.545,-0.462l0,-0.925c-0.755,0.324 -1.436,0.428 -2.545,0.428c-1.742,0 -2.098,-1.217 -2.161,-2.555l5.092,0l0,-0.493c0,-2.224 -0.31,-4.013 -2.931,-4.013c-2.606,0 -3.241,1.789 -3.241,4.013" style="fill:#fff;"></path><path d="M125.653,58.4c0,-1.003 -0.589,-1.312 -1.541,-1.312c-1.003,0 -1.514,0.172 -2.085,0.495l0,6.417l-1.076,0l0,-7.712l0.598,0l0.23,0.647c0.727,-0.538 1.512,-0.802 2.333,-0.802c1.834,0 2.618,0.834 2.618,2.314l0,5.553l-1.077,0l0,-5.6Z" style="fill:#fff;"></path><path d="M131.849,60.975c-1.805,0 -2.004,-0.924 -2.004,-1.943c0,-1.017 0.199,-1.944 2.004,-1.944c1.8,0 2.001,0.927 2.001,1.944c0,1.019 -0.201,1.943 -2.001,1.943m1.681,3.209c0.94,0.109 1.25,0.416 1.25,1.203c0,1.311 -1.39,1.666 -2.931,1.666c-1.591,0 -2.391,-0.295 -2.391,-1.436c0,-0.985 0.85,-1.433 1.822,-1.694l2.25,0.261Zm-1.681,-2.25c2.328,0 3.006,-1.312 3.006,-2.902c0,-0.678 -0.121,-1.295 -0.445,-1.787l1.293,-0.371l0,-0.586l-2.619,0c-0.358,-0.094 -0.757,-0.155 -1.235,-0.155c-2.33,0 -3.006,1.31 -3.006,2.899c0,1.08 0.308,2.022 1.231,2.529c-0.323,0.263 -0.584,0.619 -0.584,1.05c0,0.51 0.2,0.816 0.493,1.018l0,0.014c-0.832,0.357 -1.593,0.927 -1.593,1.974c0,1.699 1.299,2.392 3.459,2.392c2.127,0 4.01,-0.741 4.01,-2.622c0,-1.343 -0.66,-1.914 -2.114,-2.067l-2.623,-0.309c-0.404,-0.045 -0.584,-0.214 -0.584,-0.6c0,-0.186 0.123,-0.403 0.293,-0.573c0.291,0.065 0.63,0.096 1.018,0.096" style="fill:#fff;"></path><path d="M140.529,57.089c1.775,0 1.849,1.296 1.849,2.668l-4.009,0c0.046,-1.388 0.372,-2.668 2.16,-2.668m-3.241,3.057c0,2.222 0.637,4.007 3.241,4.007c0.754,0 1.681,-0.079 2.546,-0.462l0,-0.925c-0.756,0.324 -1.435,0.428 -2.546,0.428c-1.746,0 -2.1,-1.217 -2.16,-2.555l5.089,0l0,-0.493c0,-2.224 -0.308,-4.013 -2.929,-4.013c-2.604,0 -3.241,1.789 -3.241,4.013" style="fill:#fff;"></path><path d="M146.583,58.418c0,-0.759 0.327,-1.33 1.854,-1.33c1.036,0 1.634,0.157 2.238,0.355l0,-0.926c-0.679,-0.293 -1.5,-0.384 -2.226,-0.384c-2.174,0 -2.883,1.187 -2.883,2.285c0,1.061 0.465,1.847 2.701,2.048c1.526,0.126 1.744,0.617 1.744,1.327c0,0.724 -0.434,1.4 -2.037,1.4c-1.093,0 -1.834,-0.182 -2.312,-0.352l0,0.927c0.494,0.201 1.558,0.385 2.295,0.385c2.345,0 3.103,-1.187 3.103,-2.375c0,-1.264 -0.524,-2.006 -2.716,-2.206c-1.482,-0.125 -1.761,-0.48 -1.761,-1.154" style="fill:#fff;"></path></svg>