<?xml version="1.0" standalone="no"?>
<!DOCTYPE svg PUBLIC "-//W3C//DTD SVG 1.1//EN" "http://www.w3.org/Graphics/SVG/1.1/DTD/svg11.dtd" >
<svg xmlns="http://www.w3.org/2000/svg" xmlns:xlink="http://www.w3.org/1999/xlink" version="1.1">
<metadata>
Created by FontForge 20170731 at Tue May  1 13:01:32 2007
 By ,,,
URW Software, Copyright 1994 by URW
</metadata>
<defs>
<font id="AntiqueOliNorOutP-Regu" horiz-adv-x="866" >
  <font-face 
    font-family="Antique Olive Nord Outline P"
    font-weight="500"
    font-stretch="normal"
    units-per-em="1000"
    panose-1="0 0 0 0 0 0 0 0 0 0"
    ascent="800"
    descent="-200"
    x-height="567"
    cap-height="667"
    bbox="-124 -298 1415 786"
    underline-thickness="159"
    underline-position="-395"
    unicode-range="U+0020-FB02"
  />
<missing-glyph horiz-adv-x="300" 
 />
    <glyph glyph-name=".notdef" horiz-adv-x="300" 
 />
    <glyph glyph-name=".null" horiz-adv-x="0" 
 />
    <glyph glyph-name="nonmarkingreturn" horiz-adv-x="333" 
 />
    <glyph glyph-name="space" unicode=" " horiz-adv-x="300" 
 />
    <glyph glyph-name="exclam" unicode="!" horiz-adv-x="410" 
d="M332 209h-228l-59 360q-2 20 -2 31q0 66 34 87t142 21q102 0 135 -18q40 -21 40 -84q0 -18 -3 -37zM315 229l56 344q3 17 3 34q0 50 -29.5 65.5t-125.5 15.5q-99 0 -127.5 -16t-28.5 -72q0 -11 2 -27l56 -344h194zM220 198q139 0 139 -102q0 -49 -37.5 -77t-102.5 -28
q-66 0 -103.5 28t-37.5 77q0 102 142 102zM217 178q-119 0 -119 -81q0 -41 31.5 -63.5t89.5 -22.5q56 0 88 22.5t32 62.5q0 43 -29 62.5t-93 19.5z" />
    <glyph glyph-name="quotedbl" unicode="&#x22;" horiz-adv-x="443" 
d="M434 667l-46 -288h-334l-45 288h425zM212 399l39 248h-219l39 -248h141zM371 399l39 248h-140l-39 -248h140z" />
    <glyph glyph-name="numbersign" unicode="#" horiz-adv-x="624" 
d="M474 153l-22 -153h-175l21 153h-37l-22 -153h-175l22 153h-86l24 172h86l4 32h-85l24 171h85l20 139h175l-20 -139h38l19 139h176l-20 -139h98l-24 -171h-98l-4 -32h98l-25 -172h-97zM456 173h98l19 132h-98l10 72h98l18 131h-98l20 139h-135l-20 -139h-78l20 139h-135
l-19 -139h-86l-18 -131h85l-10 -72h-85l-19 -132h86l-22 -153h135l21 153h78l-21 -153h135zM350 377l-10 -72h-78l10 72h78zM327 357h-38l-4 -32h38z" />
    <glyph glyph-name="dollar" unicode="$" horiz-adv-x="748" 
d="M316 -127v114q-134 5 -280 34v208q197 -34 339 -34q19 0 19 12q0 5 -24 5h-48q-49 0 -115 8q-187 24 -187 212q0 137 96 194q38 23 79 33.5t121 17.5v94h116v-92q149 -7 273 -34v-219q-142 25 -246 25h-65q-37 0 -37 -12q0 -9 15 -9h102q92 0 154 -25q45 -20 72.5 -67.5
t27.5 -106.5q0 -118 -96 -187q-40 -28 -82 -40t-118 -16v-115h-116zM336 6v-113h76v114q46 0 94 8q88 12 145 72.5t57 143.5q0 53 -24 96t-64 59q-55 24 -146 24h-102q-15 0 -24.5 8t-9.5 21q0 32 56 32h65q102 0 226 -21v179q-119 27 -273 31v91h-76v-92
q-155 -8 -225.5 -62t-70.5 -165q0 -140 112 -179q22 -8 74.5 -14.5t95.5 -6.5h48q25 0 34.5 -5.5t9.5 -20.5q0 -31 -45 -31q-134 0 -313 30v-167q137 -28 280 -32z" />
    <glyph glyph-name="percent" unicode="%" horiz-adv-x="841" 
d="M365 150l-120 -150h-177l258 322q-44 -6 -85 -6q-120 0 -175 51q-49 47 -49 126q0 85 60 137q55 46 170 46q83 0 131.5 -21t75.5 -70q18 -33 23 -75l125 157h177l-257 -321q43 5 75 5q114 0 168 -46q60 -52 60 -137q0 -80 -49 -126q-54 -51 -181 -51q-111 0 -166 38
t-64 121zM490 338l247 309h-125l-136 -170q-5 -56 -36 -95.5t-82 -52.5l-248 -309h125l131 163q5 58 38.5 99.5t85.5 55.5zM591 331q-105 0 -154 -41q-53 -45 -53 -122q0 -71 43 -112q48 -45 167 -45q120 0 168 45q43 41 43 111q0 78 -53 123q-49 41 -161 41zM596 242
q58 0 58 -66q0 -65 -59 -65t-59 65q0 35 14.5 50.5t45.5 15.5zM594 222q-21 0 -29.5 -10.5t-8.5 -35.5t8.5 -35t30.5 -10t30.5 10t8.5 35q0 26 -8.5 36t-31.5 10zM244 656q-105 0 -154 -41q-53 -45 -53 -122q0 -70 43 -111q48 -45 167 -45q120 0 168 45q43 41 43 111
q0 77 -53 122q-49 41 -161 41zM248 567q58 0 58 -66q0 -65 -59 -65t-59 65q0 35 14.5 50.5t45.5 15.5zM246 547q-21 0 -29.5 -10.5t-8.5 -35.5t8.5 -35t30.5 -10t30.5 10t8.5 35q0 26 -8.5 36t-31.5 10z" />
    <glyph glyph-name="ampersand" unicode="&#x26;" horiz-adv-x="965" 
d="M980 0h-430l-51 52q-111 -66 -237 -66q-119 0 -187 52t-68 144q0 88 81 136q27 16 89 37q-43 41 -57.5 67.5t-14.5 65.5q0 93 89.5 143t257.5 50q141 0 219 -31q43 -17 70 -52t27 -75q0 -39 -26.5 -76.5t-67.5 -55.5q-28 -11 -83 -24l4 -3h390l-204 -166zM932 20
l-181 180l178 144h-342l-40 35q62 12 92 21q49 14 79 48t30 75q0 33 -23.5 63.5t-60.5 45.5q-74 29 -213 29q-157 0 -241.5 -44.5t-84.5 -126.5q0 -35 13 -59.5t49 -56.5q10 -10 31 -28q-61 -17 -92 -31q-99 -44 -99 -133q0 -83 62 -129.5t173 -46.5q69 0 121.5 15.5
t118.5 55.5l56 -57h374zM466 443q-29 26 -39 42t-10 35q0 53 58 53q27 0 42 -13.5t15 -36.5t-13 -38.5t-53 -41.5zM468 468q44 28 44 56q0 29 -38 29q-37 0 -37 -33q0 -21 31 -52zM323 251l73 -71q-31 -39 -69 -39q-20 0 -35.5 15t-15.5 35q0 17 9 28.5t38 31.5zM368 179
l-47 46q-25 -19 -25 -34q0 -12 9.5 -21t21.5 -9q20 0 41 18z" />
    <glyph glyph-name="quotesingle" unicode="'" horiz-adv-x="291" 
d="M236 379h-182l-45 288h272zM219 399l39 248h-226l39 -248h148z" />
    <glyph glyph-name="parenleft" unicode="(" horiz-adv-x="355" 
d="M362 -27h-210q-12 15 -24 32q-50 71 -79 158.5t-29 169.5q0 83 29 170.5t79 158.5l24 32h210q-12 -21 -36 -66q-79 -148 -79 -295q0 -146 79 -294q2 -5 36 -66zM162 -7h166q-57 104 -79 178t-22 163q0 88 22 162t79 178h-166q-122 -160 -122 -340q0 -182 122 -341z" />
    <glyph glyph-name="parenright" unicode=")" horiz-adv-x="355" 
d="M203 -27h-210q12 21 36 66q79 148 79 294q0 147 -79 295q-2 5 -36 66h210l24 -32q50 -71 79 -158.5t29 -170.5q0 -82 -29 -169.5t-79 -158.5zM27 -7h166q122 162 122 341t-122 340h-166q57 -103 79 -177t22 -163t-22 -163.5t-79 -177.5z" />
    <glyph glyph-name="asterisk" unicode="*" horiz-adv-x="467" 
d="M171 265l-123 92l63 90l-104 28l41 144l108 -30v105h155v-105l107 30l42 -144l-104 -28l63 -90l-124 -92l-62 87zM167 293l66 94l67 -94l91 69l-68 97l112 30l-30 106l-114 -32v111h-115v-111l-114 32l-30 -106l112 -30l-68 -97z" />
    <glyph glyph-name="plus" unicode="+" horiz-adv-x="542" 
d="M15 422h164v170h182v-170h166v-177h-166v-171h-182v171h-164v177zM35 402v-137h164v-171h142v171h166v137h-166v170h-142v-170h-164z" />
    <glyph glyph-name="comma" unicode="," horiz-adv-x="331" 
d="M318 186l-137 -313h-181l63 313h255zM287 166h-207l-56 -273h144z" />
    <glyph glyph-name="hyphen" unicode="-" horiz-adv-x="383" 
d="M369 183h-356v211h356v-211zM349 203v171h-316v-171h316z" />
    <glyph glyph-name="period" unicode="." horiz-adv-x="321" 
d="M162 198q139 0 139 -102q0 -49 -37.5 -77t-102.5 -28q-66 0 -103.5 28t-37.5 77q0 102 142 102zM159 178q-119 0 -119 -81q0 -41 31.5 -63.5t88.5 -22.5t89 22.5t32 62.5q0 43 -29 62.5t-93 19.5z" />
    <glyph glyph-name="slash" unicode="/" horiz-adv-x="522" 
d="M-33 -27l359 721h229l-359 -721h-229zM-1 -7h185l339 681h-184z" />
    <glyph glyph-name="zero" unicode="0" horiz-adv-x="795" 
d="M410 685q157 0 256 -78q109 -85 109 -270q0 -193 -111 -285q-86 -70 -269 -70q-97 0 -161 18t-109 59q-49 43 -77 117t-28 161q0 93 32 167.5t89 114.5q44 30 117 48t152 18zM401 665q-69 0 -138.5 -17.5t-110.5 -45.5q-52 -35 -82 -105.5t-30 -158.5q0 -83 26 -153
t72 -111q43 -38 103.5 -55t156.5 -17q174 0 254 66q49 40 76 110t27 158q0 178 -101 256q-94 73 -253 73zM399 443q99 0 99 -124q0 -123 -100 -123q-101 0 -101 124q0 123 102 123zM396 423q-79 0 -79 -104q0 -54 19 -78.5t62 -24.5q41 0 60.5 24.5t19.5 77.5q0 55 -19.5 80
t-62.5 25z" />
    <glyph glyph-name="one" unicode="1" horiz-adv-x="523" 
d="M483 0h-346v337l-130 -43v254l158 119h318v-667zM463 20v627h-291l-145 -109v-217l130 44v-345h306z" />
    <glyph glyph-name="two" unicode="2" horiz-adv-x="737" 
d="M717 0h-682v202q135 46 223 90q68 34 98 59t30 48q0 39 -44 39q-48 0 -59 -53q-3 -17 -3 -59h-258q-2 39 -2 61q0 74 27 134.5t77 97.5q85 62 261 62q179 0 258 -72q72 -66 72 -161q0 -105 -90 -167q-37 -25 -124 -60h216v-221zM697 20v181h-308q114 41 160 62
q79 36 112.5 78t33.5 107q0 55 -27 100t-76 73q-70 40 -207 40q-170 0 -249 -59q-46 -33 -71 -89t-25 -125q0 -25 1 -42h219q0 46 13 71q21 41 69 41q29 0 46.5 -16t17.5 -43q0 -28 -23.5 -51.5t-82.5 -56.5q-96 -52 -245 -104v-167h642z" />
    <glyph glyph-name="three" unicode="3" horiz-adv-x="724" 
d="M20 31l-13 189q54 -16 59 -17q68 -17 147 -17q110 0 110 38q0 41 -122 41q-57 0 -132 -7v71l160 107h-210v231h663v-179l-166 -107q54 -5 82.5 -14t53.5 -30q52 -43 52 -122q0 -110 -92 -169.5t-262 -59.5q-157 0 -330 45zM29 192l10 -145q160 -41 311 -41q162 0 248 54
t86 155q0 71 -47 108.5t-136 37.5q-23 0 -54 -2l215 140v148h-623v-191h256l-206 -137v-39q55 5 111 5q143 0 143 -61q0 -31 -30.5 -44.5t-97.5 -13.5q-99 0 -186 26z" />
    <glyph glyph-name="four" unicode="4" horiz-adv-x="809" 
d="M715 0h-342v89h-353v279l253 299h442v-363h87v-215h-87v-89zM695 20v89h87v175h-87v363h-413l-242 -287v-251h353v-89h302zM403 269h-165l165 210v-210zM383 289v132l-104 -132h104z" />
    <glyph glyph-name="five" unicode="5" horiz-adv-x="745" 
d="M37 27l1 173q102 -16 126 -18.5t68 -2.5q65 0 90.5 8t25.5 27q0 41 -133 41q-76 0 -155 -9l-23 -3v424h656v-231h-375v-21q33 2 80 2q86 0 137.5 -9.5t95.5 -33.5q94 -52 94 -161q0 -121 -122 -181q-93 -46 -247 -46q-98 0 -167 9t-152 32zM58 177v-135q124 -36 299 -36
q146 0 237 44q111 55 111 163q0 97 -84 144q-41 22 -90 31t-133 9q-51 0 -100 -4v63h375v191h-616v-381q76 9 158 9q153 0 153 -61q0 -30 -30 -42.5t-103 -12.5q-61 0 -177 18z" />
    <glyph glyph-name="six" unicode="6" horiz-adv-x="773" 
d="M729 651v-217q-143 24 -237 24q-61 0 -89 -7.5t-37 -27.5q64 13 119 13q117 0 183 -34q42 -22 65.5 -67t23.5 -104q0 -73 -33 -129t-91 -82q-79 -34 -237 -34q-116 0 -183.5 16.5t-111.5 56.5q-81 73 -81 251q0 197 91.5 284t297.5 87q157 0 320 -30zM709 457v177
q-149 27 -301 27q-197 0 -282.5 -81.5t-85.5 -269.5q0 -168 75 -236q41 -37 104.5 -52.5t175.5 -15.5q89 0 139 7t91 26q53 23 82.5 74t29.5 118q0 113 -78 153q-61 32 -173 32q-65 0 -145 -20q4 34 15 48q26 34 135 34q101 0 218 -21zM330 218v60q41 17 74 17q72 0 72 -72
q0 -40 -10 -60q-19 -34 -65 -34q-45 0 -64 36q-7 15 -7 53zM350 265v-47q0 -32 5 -44q12 -25 47 -25q34 0 46 24q8 13 8 50q0 28 -11.5 40t-39.5 12q-25 0 -55 -10z" />
    <glyph glyph-name="seven" unicode="7" horiz-adv-x="696" 
d="M380 0h-325l220 385h-262v282h669v-238zM369 20l293 415v212h-629v-242h276l-219 -385h279z" />
    <glyph glyph-name="eight" unicode="8" horiz-adv-x="797" 
d="M117 332q-24 11 -36 22q-56 45 -56 130q0 100 92 148.5t281 48.5q190 0 282 -48.5t92 -148.5q0 -109 -92 -152q97 -51 97 -149q0 -49 -24 -90t-65 -62q-47 -25 -110.5 -35t-178.5 -10q-116 0 -180 10t-110 35q-41 21 -65 62t-24 90q0 98 97 149zM180 335l16 -3
q-44 -9 -57.5 -13t-30.5 -15q-68 -43 -68 -122q0 -42 21 -78.5t57 -55.5q44 -23 106.5 -32.5t174.5 -9.5q111 0 173.5 9.5t106.5 32.5q36 20 57 55.5t21 78.5q0 44 -23.5 79.5t-65.5 53.5q-16 7 -67 17q62 12 85 25q31 17 48.5 50.5t17.5 74.5q0 92 -86.5 135.5t-267.5 43.5
t-267 -43.5t-86 -135.5q0 -73 48 -113q27 -22 87 -34zM404 502q40 0 62.5 -19t22.5 -52q0 -34 -23 -53t-64 -19t-64 19t-23 53t23.5 52.5t65.5 18.5zM401 482q-66 0 -66 -52q0 -51 67 -51t67 52q0 51 -68 51zM404 279q83 0 83 -69t-85 -69t-85 70q0 68 87 68zM401 259
q-64 0 -64 -50q0 -48 65 -48t65 49t-66 49z" />
    <glyph glyph-name="nine" unicode="9" horiz-adv-x="762" 
d="M69 15l-23 197q154 -31 274 -31q82 0 92 29q-37 -9 -123 -9q-145 0 -208.5 53t-63.5 172q0 135 85.5 195t276.5 60q187 0 263 -66q48 -41 74.5 -112t26.5 -159q0 -174 -87 -266q-46 -49 -117 -70.5t-183 -21.5q-139 0 -287 29zM69 187l18 -155q135 -26 269 -26
q108 0 175 20t110 66q82 85 82 252q0 84 -24.5 151t-69.5 105q-70 61 -250 61q-183 0 -262.5 -55t-79.5 -180q0 -110 58 -157.5t193 -47.5q90 0 145 15q1 -7 1 -16q0 -59 -115 -59q-118 0 -250 26zM444 413v-59q-36 -5 -73 -5q-76 0 -76 75q0 37 20 57t56 20
q40 0 56.5 -20.5t16.5 -67.5zM424 372v41q0 39 -11 53.5t-42 14.5q-56 0 -56 -57q0 -55 54 -55q31 0 55 3z" />
    <glyph glyph-name="colon" unicode=":" horiz-adv-x="348" 
d="M189 572q139 0 139 -102q0 -50 -37.5 -78t-103.5 -28q-65 0 -102.5 28.5t-37.5 77.5q0 102 142 102zM186 552q-119 0 -119 -81q0 -41 31.5 -64t88.5 -23t89 22.5t32 63.5q0 43 -29 62.5t-93 19.5zM189 198q139 0 139 -102q0 -49 -37.5 -77t-103.5 -28q-65 0 -102.5 28
t-37.5 77q0 102 142 102zM186 178q-119 0 -119 -81q0 -41 31.5 -63.5t88.5 -22.5t89 22.5t32 62.5q0 43 -29 62.5t-93 19.5z" />
    <glyph glyph-name="semicolon" unicode=";" horiz-adv-x="380" 
d="M221 572q139 0 139 -102q0 -50 -37.5 -78t-103.5 -28q-65 0 -102.5 28.5t-37.5 77.5q0 102 142 102zM218 552q-119 0 -119 -81q0 -41 31.5 -64t88.5 -23t89 22.5t32 63.5q0 43 -29 62.5t-93 19.5zM345 186l-137 -313h-181l63 313h255zM314 166h-207l-56 -273h144z" />
    <glyph glyph-name="less" unicode="&#x3c;" horiz-adv-x="514" 
d="M481 693v-250l-172 -105l171 -105l1 -249l-448 258v194zM454 647l-394 -226v-163l393 -228v188l-195 120l196 120v189z" />
    <glyph glyph-name="equal" unicode="=" horiz-adv-x="542" 
d="M15 533h512v-178h-512v178zM35 513v-138h472v138h-472zM15 311h512v-177h-512v177zM35 291v-137h472v137h-472z" />
    <glyph glyph-name="greater" unicode="&#x3e;" horiz-adv-x="514" 
d="M33 -16v251l172 104l-171 105l-1 250l448 -259v-193zM60 30l394 227v163l-394 227l1 -188l195 -120l-196 -119v-190z" />
    <glyph glyph-name="question" unicode="?" horiz-adv-x="583" 
d="M411 205h-286q97 133 113 160t16 53q0 22 -19.5 30t-69.5 8q-40 0 -125 -17v249q132 19 263 19q133 0 195 -36q32 -19 50.5 -54.5t18.5 -79.5q0 -47 -21.5 -99.5t-85.5 -160.5q-19 -29 -49 -72zM164 225h237q43 60 88 144q34 62 46 97t12 71q0 38 -15.5 69t-43.5 47
q-58 34 -187 34q-124 0 -241 -16v-207q61 12 105 12q60 0 84.5 -13.5t24.5 -45.5q0 -41 -49 -109zM278 198q139 0 139 -102q0 -49 -37.5 -77t-102.5 -28q-66 0 -103.5 28t-37.5 77q0 102 142 102zM275 178q-119 0 -119 -81q0 -41 31.5 -63.5t88.5 -22.5t89 22.5t32 62.5
q0 43 -29 62.5t-93 19.5z" />
    <glyph glyph-name="at" unicode="@" horiz-adv-x="929" 
d="M693 484l-45 -173q38 4 57 11.5t33 23.5q26 29 26 72q0 33 -17.5 60.5t-48.5 41.5q-79 37 -219 37q-155 0 -227.5 -54.5t-72.5 -169.5q0 -116 72.5 -170t226.5 -54q158 0 233 60l6 4h187q-33 -53 -42 -65.5t-27 -28.5q-112 -97 -356 -97q-225 0 -341 83q-55 40 -85 110
t-30 158q0 352 454 352q195 0 312 -69q53 -31 84.5 -85.5t31.5 -114.5q0 -61 -31.5 -113.5t-85.5 -81.5q-68 -38 -186 -38h-152l2 10q-37 -17 -78 -17q-49 0 -78.5 24t-29.5 65q0 37 12.5 83.5t31.5 79.5q36 63 127 63q53 0 86 -24l4 17h166zM667 464h-124l-18 -67
q-3 37 -9 47q-16 27 -79 27q-79 0 -110 -53q-17 -31 -29 -75t-12 -78q0 -32 23.5 -50.5t64.5 -18.5q63 0 93 34q7 9 26 41l-18 -68h127q112 0 177 35q49 26 77.5 74t28.5 104q0 55 -28.5 104.5t-77.5 78.5q-111 66 -302 66q-201 0 -315 -73q-119 -77 -119 -259
q0 -176 107 -252q109 -79 329 -79q207 0 325 79q34 22 65 72h-145q-82 -64 -246 -64q-163 0 -241 60t-78 184t79 184t241 60q147 0 228 -39q35 -16 56 -49t21 -71q0 -33 -15 -62.5t-40 -43.5q-37 -21 -106 -21zM478 384q34 0 34 -27q0 -33 -17.5 -53.5t-45.5 -20.5
q-33 0 -33 27q0 34 17 54t45 20zM479 364q-19 0 -28 -9q-15 -17 -15 -43q0 -9 12 -9q24 0 33 14q11 18 11 39q0 8 -13 8z" />
    <glyph glyph-name="A" unicode="A" horiz-adv-x="923" 
d="M943 0h-363l-23 82h-186l-22 -82h-369l213 667h541zM916 20l-197 627h-511l-201 -627h326l23 82h216l23 -82h321zM536 268h-142l73 213zM508 288l-42 130l-44 -130h86z" />
    <glyph glyph-name="B" unicode="B" horiz-adv-x="935" 
d="M40 0v667h665q91 0 142 -43q60 -48 60 -126q0 -108 -116 -162q23 -7 40 -15q37 -19 59 -55t22 -80q0 -84 -69 -135t-184 -51h-619zM60 20h599q106 0 169.5 45t63.5 121q0 53 -31.5 87.5t-90.5 47.5q-17 4 -75 9q74 17 102 31q90 47 90 138q0 66 -52 110q-48 38 -130 38
h-645v-627zM379 386v100h125q35 0 49 -11t14 -39t-14 -39t-49 -11h-125zM399 406h105q26 0 34.5 6t8.5 24q0 19 -8.5 24.5t-34.5 5.5h-105v-60zM379 166v99h141q32 0 45.5 -11.5t13.5 -37.5q0 -27 -13.5 -38.5t-45.5 -11.5h-141zM399 186h121q23 0 31 6t8 24q0 17 -8 23
t-31 6h-121v-59z" />
    <glyph glyph-name="C" unicode="C" horiz-adv-x="828" 
d="M797 266v-255q-153 -25 -295 -25q-136 0 -215.5 17.5t-138.5 59.5q-60 44 -94 117t-34 158q0 83 32.5 153t90.5 113q104 77 305 77q146 0 360 -33v-282q-164 28 -259 28q-86 0 -120 -18.5t-34 -64.5q0 -42 35 -58.5t123 -16.5q114 0 244 30zM777 28v213
q-113 -25 -224 -25q-98 0 -138 21.5t-40 73.5q0 56 39.5 79.5t133.5 23.5q104 0 240 -24v241q-192 30 -340 30q-193 0 -294 -73q-53 -39 -83.5 -105t-30.5 -145q0 -80 32 -149t88 -110q56 -40 133 -56.5t209 -16.5q140 0 275 22z" />
    <glyph glyph-name="D" unicode="D" horiz-adv-x="959" 
d="M40 0v667h569q159 0 246 -88q84 -85 84 -225q0 -177 -133 -272q-112 -82 -275 -82h-491zM60 20h471q156 0 264 78q124 90 124 256q0 132 -78 211q-82 82 -232 82h-549v-627zM379 204v231h96q54 0 83 -27t29 -77q0 -72 -53 -105q-36 -22 -103 -22h-52zM399 224h32
q62 0 93 19q43 29 43 88q0 84 -92 84h-76v-191z" />
    <glyph glyph-name="E" unicode="E" horiz-adv-x="833" 
d="M800 0h-760v667h760v-235h-401v-30h401v-179h-401v-26h401v-197zM780 20v157h-401v66h401v139h-401v70h401v195h-720v-627h720z" />
    <glyph glyph-name="F" unicode="F" horiz-adv-x="813" 
d="M789 164h-390v-164h-359v667h749v-246h-390v-30h390v-227zM769 184v187h-390v70h390v206h-709v-627h319v164h390z" />
    <glyph glyph-name="G" unicode="G" horiz-adv-x="862" 
d="M842 353v-316q-205 -51 -359 -51q-234 0 -348.5 87t-114.5 264q0 178 124 264q113 80 320 80q179 0 353 -40l16 -3v-254q-158 31 -280 31q-97 0 -142 -28.5t-45 -90.5q0 -50 33 -80t89 -30q16 0 26 1v166h328zM822 333h-288v-165q-42 -2 -44 -2q-65 0 -104.5 35.5
t-39.5 94.5q0 71 51 106q50 33 156 33q124 0 260 -26v213q-169 39 -349 39q-424 0 -424 -325q0 -189 133 -265q117 -65 310 -65q148 0 339 47v280z" />
    <glyph glyph-name="H" unicode="H" horiz-adv-x="928" 
d="M888 0h-359v197h-130v-197h-359v667h359v-224h130v224h359v-667zM868 20v627h-319v-224h-170v224h-319v-627h319v197h170v-197h319z" />
    <glyph glyph-name="I" unicode="I" horiz-adv-x="439" 
d="M399 0h-359v667h359v-667zM379 20v627h-319v-627h319z" />
    <glyph glyph-name="J" unicode="J" horiz-adv-x="614" 
d="M7 16v247l25 -7q53 -14 101 -14q54 0 70.5 17t16.5 74v334h359v-441q0 -124 -75.5 -182t-236.5 -58q-119 0 -260 30zM27 237v-205q123 -26 240 -26q153 0 222.5 52.5t69.5 167.5v421h-319v-314q0 -65 -22 -88t-85 -23q-49 0 -106 15z" />
    <glyph glyph-name="K" unicode="K" horiz-adv-x="939" 
d="M941 0h-411l-131 170v-170h-359v667h359v-203l130 203h430l-280 -342zM899 20l-246 305l264 322h-377l-161 -252v252h-319v-627h319v209l160 -209h360z" />
    <glyph glyph-name="L" unicode="L" horiz-adv-x="683" 
d="M676 0h-636v667h359v-410h277v-257zM656 20v217h-277v410h-319v-627h596z" />
    <glyph glyph-name="M" unicode="M" horiz-adv-x="1133" 
d="M1093 0h-346v241l-82 -241h-202l-82 234v-234h-341v667h437l87 -269l87 269h442v-667zM1073 20v627h-408l-101 -314l-102 314h-402v-627h301v330l116 -330h173l117 342v-342h306z" />
    <glyph glyph-name="N" unicode="N" horiz-adv-x="928" 
d="M888 0h-311l-196 252v-252h-341v667h352l155 -227v227h341v-667zM868 20v627h-301v-272l-186 272h-321v-627h301v290l226 -290h281z" />
    <glyph glyph-name="O" unicode="O" horiz-adv-x="948" 
d="M480 685q201 0 320 -76q128 -82 128 -276q0 -88 -30 -158t-85 -110q-116 -83 -339 -83t-339 83q-55 40 -85 109.5t-30 157.5q0 179 113.5 266t346.5 87zM468 665q-196 0 -309 -73q-119 -76 -119 -259q0 -83 28 -148.5t79 -102.5q108 -80 327 -80t327 80q51 37 79 102.5
t28 148.5q0 170 -107.5 251t-332.5 81zM476 456q53 0 81.5 -32t28.5 -93q0 -152 -112 -152q-111 0 -111 153q0 124 113 124zM473 436q-90 0 -90 -104q0 -133 91 -133q92 0 92 133q0 104 -93 104z" />
    <glyph glyph-name="P" unicode="P" horiz-adv-x="928" 
d="M399 0h-359v667h612q124 0 193 -63t69 -176q0 -69 -28 -127t-79 -93q-92 -64 -269 -64h-139v-144zM379 20v144h159q92 0 152 14t106 47q46 32 72 85.5t26 117.5q0 105 -63 162t-179 57h-592v-627h319zM379 331v139h132q34 0 52.5 -17t18.5 -48q0 -74 -94 -74h-109z
M399 351h89q74 0 74 55q0 44 -51 44h-112v-99z" />
    <glyph glyph-name="Q" unicode="Q" horiz-adv-x="948" 
d="M442 -127l-70 114q-86 10 -138 27t-99 51q-55 40 -85 109.5t-30 158.5q0 194 128 276q119 76 326 76t326 -76q128 -82 128 -276q0 -177 -115 -268q-42 -33 -137 -62l72 -130h-306zM384 6l69 -113h261l-68 124q5 1 9 2q253 54 253 314q0 183 -119 259q-113 73 -315 73
q-201 0 -315 -73q-119 -76 -119 -259q0 -174 107 -252q73 -54 197 -70q36 -5 40 -5zM476 456q53 0 81.5 -32.5t28.5 -91.5q0 -153 -111 -153q-112 0 -112 153q0 124 113 124zM473 436q-90 0 -90 -104q0 -133 91 -133q92 0 92 133q0 104 -93 104z" />
    <glyph glyph-name="R" unicode="R" horiz-adv-x="945" 
d="M952 0h-423l-130 168v-168h-359v667h627q112 0 171 -45q74 -57 74 -156q0 -76 -50.5 -130.5t-131.5 -68.5zM909 20l-218 263q66 6 106 27q96 54 96 157q0 88 -67 139q-52 41 -159 41h-607v-627h319v206l160 -206h370zM379 347v137h122q40 0 57.5 -14.5t17.5 -47.5
q0 -44 -31 -63q-20 -12 -63 -12h-103zM399 367h83q41 0 57.5 12t16.5 43q0 24 -12 33t-43 9h-102v-97z" />
    <glyph glyph-name="S" unicode="S" horiz-adv-x="820" 
d="M37 21v204q212 -34 373 -34q25 0 25 16q0 6 -5 7.5t-24 1.5h-53q-54 0 -128 8q-206 24 -206 208q0 66 28 117t78 78q102 54 303 54q173 0 349 -35v-217q-155 25 -347 25q-40 0 -40 -15q0 -12 18 -12h114q103 0 170 -25q49 -18 79.5 -65.5t30.5 -106.5q0 -56 -28 -105.5
t-78 -80.5q-52 -32 -116 -45t-173 -13q-106 0 -177.5 6.5t-192.5 28.5zM57 202v-164q177 -32 350 -32q107 0 168 12t110 43q46 28 71.5 73t25.5 96q0 53 -26.5 95t-70.5 59q-65 23 -163 23h-114q-17 0 -27.5 9t-10.5 23q0 35 60 35q195 0 327 -22v178q-161 31 -329 31
q-196 0 -294 -51q-45 -25 -70 -71.5t-25 -106.5q0 -137 126 -176q24 -8 82.5 -14t105.5 -6h53q28 0 38.5 -6.5t10.5 -23.5q0 -35 -50 -35q-151 0 -348 31z" />
    <glyph glyph-name="T" unicode="T" horiz-adv-x="736" 
d="M547 0h-359v381h-190v286h740v-286h-191v-381zM527 20v381h191v246h-700v-246h190v-381h319z" />
    <glyph glyph-name="U" unicode="U" horiz-adv-x="895" 
d="M40 667h359v-406q0 -37 6 -46q12 -15 42 -15t42 15q6 9 6 46v406h360v-400q0 -86 -17.5 -131.5t-64.5 -78.5q-98 -71 -326 -71q-252 0 -346 88q-35 34 -48 76t-13 126v391zM60 647v-371q0 -88 15 -130t58 -73q93 -67 314 -67q245 0 333 82q32 30 43.5 68t11.5 111v380
h-320v-386q0 -44 -10 -58q-18 -23 -58 -23t-58 23q-10 14 -10 58v386h-319z" />
    <glyph glyph-name="V" unicode="V" horiz-adv-x="887" 
d="M695 0h-495l-220 667h372l96 -344l88 344h371zM680 20l200 627h-328l-103 -401l-112 401h-329l207 -627h465z" />
    <glyph glyph-name="W" unicode="W" horiz-adv-x="1147" 
d="M981 0h-343l-67 243l-68 -243h-336l-187 667h363l54 -254l61 254h241l57 -244l54 244h357zM966 20l174 627h-314l-70 -314l-73 314h-210l-78 -325l-68 325h-321l176 -627h306l83 297l82 -297h313z" />
    <glyph glyph-name="X" unicode="X" horiz-adv-x="942" 
d="M948 0h-399l-77 133l-85 -133h-397l233 324l-243 343h424l69 -148l75 148h414l-245 -343zM909 20l-216 304l230 323h-362l-88 -174l-82 174h-372l229 -323l-219 -304h348l96 151l88 -151h348z" />
    <glyph glyph-name="Y" unicode="Y" horiz-adv-x="896" 
d="M629 0h-359v195l-290 472h405l72 -165l65 165h394l-287 -472v-195zM609 20v180l271 447h-344l-78 -197l-86 197h-356l274 -447v-180h319z" />
    <glyph glyph-name="Z" unicode="Z" horiz-adv-x="785" 
d="M761 0h-741v166l263 245h-263v256h741v-213l-243 -213h243v-241zM741 20v201h-276l276 242v184h-701v-216h293l-293 -273v-138h701z" />
    <glyph glyph-name="bracketleft" unicode="[" horiz-adv-x="342" 
d="M335 694v-173h-102v-375h102v-173h-295v721h295zM315 674h-255v-681h255v133h-102v415h102v133z" />
    <glyph glyph-name="backslash" unicode="\" horiz-adv-x="522" 
d="M555 -27h-229l-359 721h229zM523 -7l-340 681h-184l340 -681h184z" />
    <glyph glyph-name="bracketright" unicode="]" horiz-adv-x="342" 
d="M7 -27v173h102v375h-102v173h295v-721h-295zM27 -7h255v681h-255v-133h102v-415h-102v-133z" />
    <glyph glyph-name="asciicircum" unicode="^" horiz-adv-x="528" 
d="M222 307h-222l138 365h254l137 -365h-222l-42 138zM203 334l62 201l62 -201h164l-118 311h-217l-117 -311h164z" />
    <glyph glyph-name="underscore" unicode="_" horiz-adv-x="510" 
d="M0 0h510v-158h-510v158zM27 -26v-105h457v105h-457z" />
    <glyph glyph-name="grave" unicode="`" horiz-adv-x="500" 
d="M112 609l-118 160h295l118 -160h-295zM122 629h246l-89 120h-245z" />
    <glyph glyph-name="a" unicode="a" 
d="M833 0h-341v45q-41 -31 -75 -42q-56 -17 -131 -17q-138 0 -203.5 72.5t-65.5 224.5q0 159 74 230q70 68 203 68q64 0 109.5 -14t88.5 -48v48h341v-567zM813 20v527h-301v-81q-18 22 -23 28q-62 67 -193 67q-126 0 -191 -62q-68 -65 -68 -215q0 -146 60 -212t192 -66
q127 0 190 54q8 7 33 32v-72h301zM427 380q42 0 66.5 -28t24.5 -77q0 -52 -25 -82t-68 -30t-67.5 30t-24.5 81q0 50 25 78t69 28zM424 360q-34 0 -52.5 -22.5t-18.5 -62.5q0 -44 19 -68t54 -24q34 0 53 24.5t19 67.5q0 85 -74 85z" />
    <glyph glyph-name="b" unicode="b" 
d="M33 0v694h341v-175q43 34 88.5 48t108.5 14q134 0 204 -68q74 -71 74 -230q0 -152 -65.5 -224.5t-203.5 -72.5q-92 0 -148 23q-20 8 -58 36v-45h-341zM53 20h301v72q23 -24 33 -32q63 -54 190 -54q132 0 192 66t60 212q0 150 -68 215q-65 62 -191 62q-130 0 -193 -66
q-14 -17 -23 -29v208h-301v-654zM441 380q42 0 66.5 -28t24.5 -77q0 -52 -24.5 -82t-67.5 -30t-67.5 30t-24.5 82q0 49 24.5 77t68.5 28zM439 360q-34 0 -52.5 -22.5t-18.5 -62.5q0 -44 19 -68t53 -24t53 24t19 68q0 85 -73 85z" />
    <glyph glyph-name="c" unicode="c" horiz-adv-x="721" 
d="M706 240l-6 -210q-139 -45 -272 -45q-184 0 -274 46q-65 33 -101 101t-36 157q0 75 27 135t75 91q103 66 300 66q117 0 281 -30l6 -243q-141 21 -220 21q-53 0 -84 -7q-43 -12 -43 -56q0 -60 93 -60q87 0 254 34zM681 44l4 172q-142 -30 -233 -30q-54 0 -83.5 21
t-29.5 59q0 28 16 48.5t43 26.5q31 8 87 8q89 0 200 -17l-4 202q-141 27 -262 27q-191 0 -289 -63q-44 -29 -68.5 -83.5t-24.5 -124.5q0 -98 42.5 -164t123.5 -92q81 -28 226 -28q130 0 252 38z" />
    <glyph glyph-name="d" unicode="d" 
d="M833 0h-341v45q-41 -31 -75 -42q-56 -17 -131 -17q-138 0 -203.5 72.5t-65.5 224.5q0 159 74 230q70 68 203 68q64 0 109.5 -14t88.5 -48v175h341v-694zM813 20v654h-301v-208q-9 12 -23 29q-63 66 -193 66q-126 0 -191 -62q-68 -65 -68 -215q0 -146 60 -212t192 -66
q127 0 190 54q17 15 33 32v-72h301zM427 380q42 0 66.5 -28t24.5 -77q0 -52 -25 -82t-68 -30t-67.5 30t-24.5 81q0 50 25 78t69 28zM424 360q-34 0 -52.5 -22.5t-18.5 -62.5q0 -44 19 -68t54 -24q34 0 53 24.5t19 67.5q0 85 -74 85z" />
    <glyph glyph-name="e" unicode="e" horiz-adv-x="825" 
d="M790 194l-63 -160q-206 -48 -344 -48q-192 0 -287 84q-79 72 -79 206q0 88 37 156t105 103q87 46 259 46q242 0 323 -103q26 -32 41.5 -88.5t15.5 -117.5q0 -24 -2 -49h-420q4 -39 25 -54t72 -15q81 0 274 34q13 2 43 6zM757 169l-97 -17q-110 -18 -189 -18
q-92 0 -108 52q-7 20 -8 57h422q1 14 1 32q0 55 -15 108.5t-38 82.5q-75 95 -308 95q-208 0 -294 -74q-86 -75 -86 -211q0 -84 29.5 -137.5t94.5 -88.5q85 -44 222 -44q136 0 330 46zM537 344h-196q7 50 30.5 72.5t71.5 22.5q73 0 91 -58q3 -14 3 -37zM365 364h151
q-6 55 -74 55q-33 0 -50 -12t-27 -43z" />
    <glyph glyph-name="f" unicode="f" horiz-adv-x="617" 
d="M418 0h-341v212h-74v246h74v80q0 65 33.5 103t104.5 54q49 12 196 12q85 0 196 -7v-200q-77 6 -105 6q-52 0 -68 -7t-16 -30v-11h189v-246h-189v-212zM398 20v212h189v206h-189v31q0 33 22 45t82 12q32 0 85 -5v160q-119 6 -177 6q-168 0 -225 -22q-47 -19 -67.5 -48.5
t-20.5 -78.5v-100h-74v-206h74v-212h301z" />
    <glyph glyph-name="g" unicode="g" horiz-adv-x="871" 
d="M838 567v-450q0 -139 -98 -198q-93 -56 -371 -56q-143 0 -295 14l-20 167q124 -31 243 -31q116 0 158 15t42 58v7q-71 -37 -195 -37q-142 0 -209 55q-77 63 -77 198q0 144 78 214q65 58 208 58q126 0 195 -52v38h341zM818 547h-301v-69q-27 34 -50 48q-57 35 -165 35
q-135 0 -195 -53q-71 -63 -71 -198q0 -126 70 -184q60 -50 199 -50q71 0 116.5 11t95.5 40v-18q0 -38 -6.5 -56.5t-23.5 -31.5q-39 -28 -196 -28q-95 0 -213 23l14 -121q147 -12 276 -12q298 0 383 68q67 54 67 166v430zM421 416q42 0 66.5 -28t24.5 -77q0 -52 -24.5 -82
t-68.5 -30q-43 0 -67.5 30t-24.5 82q0 49 25 77t69 28zM418 396q-34 0 -52.5 -22.5t-18.5 -62.5q0 -44 19 -68t54 -24q34 0 53 24.5t19 67.5q0 85 -74 85z" />
    <glyph glyph-name="h" unicode="h" 
d="M837 0h-342v277q0 32 -12.5 44.5t-44.5 12.5q-35 0 -49.5 -14t-14.5 -49v-271h-341v694h341v-179q42 37 89.5 51.5t123.5 14.5q250 0 250 -233v-348zM817 20v328q0 109 -56.5 161t-173.5 52q-128 0 -189 -51q-19 -17 -44 -50v214h-301v-654h301v251q0 44 20 63.5t64 19.5
q40 0 58.5 -18t18.5 -59v-257h302z" />
    <glyph glyph-name="i" unicode="i" horiz-adv-x="408" 
d="M98 733h221q31 0 43 -9.5t12 -34.5v-58q0 -24 -12 -33.5t-43 -9.5h-221q-31 0 -43 9.5t-12 33.5v58q0 25 12 34.5t43 9.5zM319 713h-221q-23 0 -29 -4t-6 -20v-58q0 -16 6 -20t29 -4h221q23 0 29 4t6 20v58q0 16 -6 20t-29 4zM374 579v-579h-341v579q90 -15 174 -15
q82 0 167 15zM354 20v536q-54 -9 -150 -9q-97 0 -151 9v-536h301z" />
    <glyph glyph-name="j" unicode="j" horiz-adv-x="430" 
d="M397 579v-482q0 -80 -14.5 -121.5t-52.5 -67.5q-53 -35 -215 -35q-40 0 -128 4v186l22 -3q12 -2 22 -2q18 0 21.5 8.5t3.5 54.5v458q76 -12 177 -12q95 0 164 12zM7 40v-144q60 -3 107 -3q104 0 152.5 11t73.5 40q21 24 29 56.5t8 96.5v459q-58 -9 -152 -9q-91 0 -149 9
v-435q0 -53 -6 -64q-10 -19 -39 -19q-12 0 -24 2zM115 733h221q31 0 43 -9.5t12 -34.5v-58q0 -24 -12 -33.5t-43 -9.5h-221q-31 0 -43 9.5t-12 33.5v58q0 25 12 34.5t43 9.5zM336 713h-221q-23 0 -29 -4t-6 -20v-58q0 -16 6 -20t29 -4h221q23 0 29 4t6 20v58q0 16 -6 20
t-29 4z" />
    <glyph glyph-name="k" unicode="k" horiz-adv-x="843" 
d="M822 0h-359l-89 139v-139h-341v694h341v-294l88 167h400l-214 -288zM785 20l-162 260l199 267h-348l-120 -229v356h-301v-654h301v187l120 -187h311z" />
    <glyph glyph-name="l" unicode="l" horiz-adv-x="408" 
d="M374 0h-341v694h341v-694zM354 20v654h-301v-654h301z" />
    <glyph glyph-name="m" unicode="m" horiz-adv-x="1300" 
d="M1271 0h-341v273q0 39 -9 50t-40 11q-34 0 -45.5 -13t-11.5 -51v-270h-341v262q0 40 -10 54q-9 13 -44 13q-34 0 -44.5 -11.5t-10.5 -47.5v-270h-341v567h322v-57q43 39 72 49q55 22 138 22q114 0 165 -37q23 -16 52 -59q44 56 87 73q57 23 140 23q262 0 262 -229v-352z
M1251 20v332q0 107 -59 158t-184 51q-155 0 -210 -88q-1 -2 -19 -34q-10 27 -15 36q-44 86 -195 86q-78 0 -127 -18t-82 -58q-4 -4 -25 -32v94h-282v-527h301v250q0 44 16.5 61.5t56.5 17.5q43 0 59.5 -19t16.5 -68v-242h301v250q0 47 17 65.5t60 18.5q40 0 54.5 -17
t14.5 -64v-253h301z" />
    <glyph glyph-name="n" unicode="n" 
d="M837 0h-342v277q0 32 -12.5 44.5t-44.5 12.5q-35 0 -49.5 -14t-14.5 -49v-271h-341v567h341v-52q42 37 89.5 51.5t123.5 14.5q250 0 250 -233v-348zM817 20v328q0 109 -56.5 161t-173.5 52q-128 0 -189 -51q-20 -17 -44 -50v87h-301v-527h301v251q0 44 20 63.5t64 19.5
q40 0 58.5 -18t18.5 -59v-257h302z" />
    <glyph glyph-name="o" unicode="o" horiz-adv-x="826" 
d="M432 585q98 0 160.5 -14.5t111.5 -49.5q106 -75 106 -231q0 -158 -101 -237q-93 -71 -294 -71q-207 0 -302.5 74.5t-95.5 236.5q0 152 95 221q53 39 125.5 55t194.5 16zM419 565q-203 0 -292.5 -64t-89.5 -210q0 -151 90.5 -220t288.5 -69q193 0 281 67q93 73 93 221
t-97 215q-49 34 -109 47t-165 13zM419 391q99 0 99 -104q0 -122 -101 -122q-102 0 -102 123q0 53 25 78t79 25zM415 371q-42 0 -61 -19.5t-19 -63.5q0 -54 19.5 -78.5t62.5 -24.5q42 0 61.5 24.5t19.5 77.5q0 46 -19 65t-64 19z" />
    <glyph glyph-name="p" unicode="p" 
d="M33 -127v694h341v-48q43 34 88.5 48t109.5 14q133 0 203 -68q74 -71 74 -230q0 -152 -65.5 -224.5t-203.5 -72.5q-92 0 -148 23q-20 8 -58 36v-172h-341zM53 -107h301v199q17 -18 33 -32q63 -54 190 -54q132 0 192 66t60 212q0 150 -68 215q-65 62 -191 62
q-132 0 -193 -66q-8 -10 -23 -29v81h-301v-654zM442 380q42 0 66.5 -28t24.5 -77q0 -52 -24.5 -82t-67.5 -30t-68 30t-25 82q0 49 25 77t69 28zM439 360q-33 0 -52 -22.5t-19 -62.5q0 -43 19 -67.5t54 -24.5q34 0 53 24.5t19 67.5q0 85 -74 85z" />
    <glyph glyph-name="q" unicode="q" 
d="M833 -127h-341v172q-42 -32 -75 -42q-56 -17 -131 -17q-138 0 -203.5 72.5t-65.5 224.5q0 159 74 230q70 68 203 68q64 0 109.5 -14t88.5 -48v48h341v-694zM813 -107v654h-301v-81q-18 22 -23 28q-62 67 -193 67q-126 0 -191 -62q-68 -65 -68 -215q0 -146 60 -212
t192 -66q127 0 190 54q8 7 33 32v-199h301zM427 380q42 0 66.5 -28t24.5 -77q0 -52 -25 -82t-68 -30t-67.5 30t-24.5 81q0 50 25 78t69 28zM424 360q-34 0 -52.5 -22.5t-18.5 -62.5q0 -44 19 -68t54 -24q34 0 53 24.5t19 67.5q0 85 -74 85z" />
    <glyph glyph-name="r" unicode="r" horiz-adv-x="602" 
d="M374 0h-341v567h320v-59q29 43 62 58t97 15q26 0 83 -7v-328h-20h-18q-71 0 -95 -2.5t-46 -12.5q-26 -12 -34 -28t-8 -53v-150zM354 20v130q0 49 16.5 72t59.5 35q31 9 145 9v290q-38 5 -65 5q-51 0 -79.5 -10.5t-50.5 -38.5q-18 -24 -25.5 -43.5t-21.5 -81.5v160h-280
v-527h301z" />
    <glyph glyph-name="s" unicode="s" horiz-adv-x="728" 
d="M687 566v-192q-115 14 -218 14q-85 0 -102 -2t-17 -13q0 -12 23 -12l79 1q96 0 136 -6t65 -24q59 -42 59 -132q0 -60 -28 -107.5t-76 -69.5q-81 -37 -250 -37q-118 0 -304 21l-14 180q112 -20 305 -20q34 0 42.5 2t8.5 10q0 13 -14 13h-18q-10 -1 -30 -1q-171 0 -230 31
q-87 47 -87 157q0 56 26 100.5t72 67.5q68 34 263 34q162 0 309 -15zM667 397v151q-128 13 -288 13q-211 0 -273 -42q-69 -48 -69 -140q0 -53 24.5 -91.5t69.5 -55.5q56 -21 247 -21q21 0 29.5 -6.5t8.5 -23.5q0 -21 -11 -28q-8 -6 -69 -6q-153 0 -275 16l11 -137
q166 -20 286 -20q167 0 241 35q43 19 68 62t25 97q0 91 -63 124q-35 18 -182 18q-23 0 -74 -1q-44 -2 -44 33q0 19 16 26q17 8 118 8q96 0 204 -11z" />
    <glyph glyph-name="t" unicode="t" horiz-adv-x="637" 
d="M606 196l-47 -183q-126 -27 -256 -27q-115 0 -166.5 37.5t-51.5 122.5v174h-92v133l241 214h192v-100h211v-247h-211v-93q0 -24 7 -31.5t30 -6.5l25 -1h19q33 0 99 8zM542 30l37 143q-41 -5 -80 -5q-61 0 -77 10.5t-16 48.5v113h211v207h-211v100h-165l-228 -203v-104h92
v-194q0 -76 45.5 -108t152.5 -32q127 0 239 24z" />
    <glyph glyph-name="u" unicode="u" horiz-adv-x="832" 
d="M804 567v-340q0 -127 -92 -184t-295 -57q-204 0 -296 57t-92 184v340h341v-323q0 -39 9 -51t38 -12q28 0 37 12t9 51v323h341zM784 547h-301v-303q0 -47 -14.5 -65t-52.5 -18t-52 18t-14 65v303h-301v-320q0 -113 73 -161q90 -60 295 -60q204 0 294 60q73 48 73 161v320z
" />
    <glyph glyph-name="v" unicode="v" horiz-adv-x="798" 
d="M624 0h-449l-195 567h353l67 -277l66 277h352zM610 20l180 527h-309l-81 -342l-83 342h-309l181 -527h421z" />
    <glyph glyph-name="w" unicode="w" horiz-adv-x="1177" 
d="M1022 0h-374l-59 206l-57 -206h-386l-166 567h350l52 -227l58 227h287l62 -229l52 229h356zM1007 20l163 527h-313l-67 -292l-78 292h-257l-75 -293l-66 293h-307l154 -527h356l71 260l75 -260h344z" />
    <glyph glyph-name="x" unicode="x" horiz-adv-x="883" 
d="M888 0h-372l-71 127l-74 -127h-370l198 285l-219 282h391l74 -128l71 128h387l-213 -282zM850 20l-184 265l197 262h-335l-83 -149l-86 149h-338l203 -261l-185 -266h320l86 147l83 -147h322z" />
    <glyph glyph-name="y" unicode="y" horiz-adv-x="844" 
d="M505 567h359l-210 -447q-61 -132 -123 -191q-33 -32 -72 -44t-108 -12h-300v202h185l-256 492h358l91 -231zM519 547l-88 -271l-106 271h-312l256 -492h-198v-162h280q65 0 100.5 10.5t65.5 39.5q56 53 119 185l196 419h-313z" />
    <glyph glyph-name="z" unicode="z" horiz-adv-x="707" 
d="M687 0h-667v149l221 169h-212v249h649v-192l-193 -157h202v-218zM667 20v178h-238l229 186v163h-609v-209h252l-261 -199v-119h627z" />
    <glyph glyph-name="braceleft" unicode="{" horiz-adv-x="327" 
d="M242 484v-49q0 -69 -36 -101q36 -35 36 -101v-51q0 -30 5 -32q6 -3 37 -3h16l21 1v-172q-45 -2 -70 -3q-13 -1 -41 -1q-55 0 -80.5 6t-45.5 25q-34 30 -34 100v98q0 26 -5.5 36.5t-21.5 13.5l-16 3v167l16 4q16 4 20 10t7 31v96q0 81 45 111q19 13 42 17.5t73 4.5
q22 0 67 -2q9 -1 44 -1v-174q-35 1 -38 1q-32 0 -38 -4q-3 -3 -3 -31zM222 182v51q0 40 -10 60t-40 41q20 14 28 22q22 24 22 79v49q0 38 10 46.5t53 8.5h16v133l-25 1l-26 1q-12 1 -39 1q-52 0 -74.5 -5t-39.5 -20q-27 -26 -27 -88v-96q0 -51 -43 -61v-135q43 -8 43 -69
v-98q0 -69 37 -93q28 -18 105 -18q20 0 64 2l25 1v133q-8 -1 -17 -1q-42 0 -52 9t-10 46z" />
    <glyph glyph-name="bar" unicode="|" horiz-adv-x="527" 
d="M140 667h248v-823h-248v823zM167 640v-770h194v770h-194z" />
    <glyph glyph-name="braceright" unicode="}" horiz-adv-x="327" 
d="M86 183v49q0 69 36 101q-36 35 -36 101v51q0 30 -5 32q-6 3 -37 3h-16l-21 -1v172q45 2 70 3q13 1 41 1q55 0 80.5 -6t45.5 -25q34 -30 34 -100v-98q0 -26 5.5 -36.5t21.5 -13.5l16 -3v-167l-16 -4q-16 -4 -20 -10t-7 -31v-96q0 -81 -45 -111q-19 -13 -42 -17.5t-73 -4.5
q-22 0 -67 2q-9 1 -44 1v174q35 -1 38 -1q32 0 38 4q3 3 3 31zM106 485v-51q0 -40 10 -60t40 -40q-20 -15 -28 -23q-22 -24 -22 -79v-49q0 -38 -10 -46.5t-53 -8.5h-16v-133l25 -1l26 -1q12 -1 39 -1q52 0 74.5 5t39.5 20q27 25 27 88v96q0 51 43 61v135q-43 8 -43 69v98
q0 69 -37 93q-28 18 -105 18q-20 0 -64 -2l-25 -1v-133q8 1 17 1q42 0 52 -9t10 -46z" />
    <glyph glyph-name="asciitilde" unicode="~" horiz-adv-x="685" 
d="M218 481l-127 108q17 46 26 64q55 112 150 112q19 0 36.5 -5t103.5 -33q12 -5 21 -5q8 0 13.5 7t29.5 51l127 -108q-34 -84 -57 -113q-50 -65 -119 -65q-23 0 -79 19q-4 1 -14.5 4.5l-16.5 5.5l-34 12q-9 4 -17 4t-14.5 -8.5t-28.5 -49.5zM123 597l87 -74q24 43 49 43
q14 0 51 -13q10 -5 42 -15q50 -17 69 -17q47 0 83 36q31 31 62 107l-88 74q-12 -24 -23 -33.5t-27 -9.5q-12 0 -30 7q-27 8 -70 24q-40 13 -61 13q-48 0 -82 -33t-62 -109z" />
    <glyph glyph-name="registered" unicode="&#xa0;" horiz-adv-x="819" 
d="M415 682q152 0 262 -103t110 -246q0 -144 -110.5 -246t-266.5 -102q-157 0 -268 102t-111 246q0 146 111.5 247.5t272.5 101.5zM406 662q-146 0 -250.5 -96.5t-104.5 -231.5q0 -136 105 -232.5t254 -96.5q148 0 252.5 96t104.5 232q0 137 -105 233t-256 96zM414 583
q109 0 188.5 -74t79.5 -176q0 -104 -80 -177t-193 -73t-193.5 73.5t-80.5 176.5q0 105 80.5 177.5t198.5 72.5zM574 158h-137l-53 68v-68h-139q73 -55 165 -55q91 0 164 55zM206 195v276q-51 -63 -51 -138q0 -74 51 -138zM244 508h246q60 0 91 -24q41 -32 41 -85
q0 -78 -87 -105l72 -105q55 65 55 144q0 95 -74 162.5t-178 67.5q-91 0 -166 -55zM590 178l-90 131q36 4 55 14q47 25 47 76q0 44 -33 69q-27 20 -79 20h-264v-310h138v106l82 -106h144zM364 339v71h62q40 0 40 -33q0 -38 -49 -38h-53zM384 359h33q18 0 23.5 3.5t5.5 15.5
q0 8 -3.5 10t-16.5 2h-42v-31z" />
    <glyph glyph-name="exclamdown" unicode="&#xa1;" horiz-adv-x="410" 
d="M306 490l59 -361q3 -18 3 -37q0 -62 -40 -83q-33 -18 -135 -18q-108 0 -142 21t-34 87q0 12 2 30l59 361h228zM289 470h-194l-56 -344q-2 -18 -2 -28q0 -55 28.5 -71t127.5 -16q96 0 125.5 15.5t29.5 65.5q0 18 -3 34zM194 707q65 0 102 -28.5t37 -77.5q0 -101 -141 -101
q-140 0 -140 101q0 50 37.5 78t104.5 28zM191 687q-56 0 -87.5 -22.5t-31.5 -62.5q0 -43 29 -62.5t91 -19.5t91.5 19.5t29.5 61.5q0 41 -31.5 63.5t-90.5 22.5z" />
    <glyph glyph-name="cent" unicode="&#xa2;" horiz-adv-x="725" 
d="M344 -77v125q-93 8 -142 22.5t-87 44.5q-46 36 -72 98t-26 136q0 75 27 134.5t75 90.5q43 28 92 42t133 22v115h112v-113q125 -8 244 -29l5 -244q-136 21 -219 21q-53 0 -84 -7q-44 -11 -44 -56q0 -60 93 -60q89 0 255 34l-6 -211q-117 -38 -244 -43v-122h-112zM364 66
v-123h72v121h5h3q110 0 236 39l5 172q-142 -30 -233 -30q-55 0 -84.5 21t-29.5 59q0 28 16 49t43 27q32 8 90 8q83 0 198 -18l-4 203q-136 26 -245 26v113h-72v-114q-17 -1 -59 -5q-175 -22 -232 -117q-36 -63 -36 -148q0 -110 54 -180.5t152 -87.5q74 -13 121 -15z" />
    <glyph glyph-name="sterling" unicode="&#xa3;" horiz-adv-x="781" 
d="M625 246l149 -96q-24 -38 -32.5 -48t-34.5 -30q-105 -84 -227 -84q-38 0 -58.5 4.5t-103.5 31.5q-68 22 -98 22q-37 0 -67 -27q-8 -7 -32 -41l-128 115q53 125 140 145l-8 34h-82v110h58l-1 3q-5 27 -5 51q0 126 86 191q78 58 246 58q139 0 213.5 -42.5t100.5 -134.5
q8 -31 12 -92l-267 -16q0 48 -1 69q-2 21 -10 29t-27 8q-26 0 -36.5 -17t-10.5 -60q0 -15 2 -47h117v-110h-122q-2 -9 -7 -25q37 -18 58 -29q45 -25 84 -25q23 0 40 8.5t41 33.5zM747 144l-119 77q-26 -27 -46.5 -37.5t-47.5 -10.5q-28 0 -45.5 5t-49.5 23q-33 17 -76 36
q15 29 19 55h118v70h-116q-3 57 -3 67q0 51 16 74t51 23q48 0 55 -44q3 -19 3 -61l226 14q-10 124 -80 177t-224 53q-190 0 -262 -78q-51 -57 -51 -149q0 -23 5 -50l5 -26h-62v-70h78l16 -70q-89 -12 -140 -124l101 -90q39 58 102 58q32 0 104 -23q80 -26 99.5 -30.5
t56.5 -4.5q99 0 192 62q51 36 75 74z" />
    <glyph glyph-name="currency" unicode="&#xa4;" horiz-adv-x="682" 
d="M-13 118l106 106q-23 60 -23 111q0 66 27 120l-108 108l129 129l111 -111q54 24 112 24q61 0 112 -23l110 109l128 -129l-105 -105q29 -56 29 -121q0 -61 -24 -112l105 -105l-128 -129l-104 104q-65 -29 -130 -29q-56 0 -114 29l-104 -103zM15 118l101 -99l101 99
q40 -20 62.5 -26.5t55.5 -6.5q73 0 133 33l100 -100l100 101l-101 101q28 56 28 116q0 64 -34 125l102 101l-100 101l-106 -105q-54 27 -117 27q-58 0 -115 -28l-107 107l-101 -101l104 -104q-31 -61 -31 -124q0 -58 27 -115zM344 417q32 0 55 -23.5t23 -55.5
q0 -33 -23 -56.5t-56 -23.5q-32 0 -55.5 23.5t-23.5 56.5t23 56t57 23zM342 397q-24 0 -41 -17.5t-17 -41.5q0 -25 17.5 -42.5t41.5 -17.5q25 0 42 17.5t17 42.5t-17.5 42t-42.5 17z" />
    <glyph glyph-name="yen" unicode="&#xa5;" horiz-adv-x="766" 
d="M205 170h-152v109h141l-10 17h-131v109h71l-144 262h358l54 -106l47 106h347l-142 -262h66v-109h-125l-10 -17h135v-109h-146v-170h-359v170zM225 190v-170h319v170h146v69h-146v5l29 52h117v69h-80l143 262h-301l-59 -133l-67 133h-313l145 -262h-85v-69h123l29 -52v-5
h-152v-69h152z" />
    <glyph glyph-name="logicalnot" unicode="&#xa6;" horiz-adv-x="514" 
d="M240 0v105h-207v220h448v-325h-241zM266 27h188v272h-394v-167h206v-105z" />
    <glyph glyph-name="section" unicode="&#xa7;" horiz-adv-x="571" 
d="M531 657v-160q-169 17 -215 17q-81 0 -81 -12q0 -6 115 -14q78 -6 107 -13t48 -24q46 -41 46 -112q0 -56 -31 -101q34 -41 34 -97q0 -97 -81 -143q-55 -31 -181 -31q-110 0 -251 28v160q162 -16 207 -16q89 0 89 12q0 5 -16 5l-63 7q-13 1 -42 4.5t-44 5.5
q-81 10 -110 36q-42 40 -42 108q0 53 34 98q-38 42 -38 99q0 38 18.5 74t49.5 58q56 39 190 39q118 0 257 -28zM511 519v122q-120 24 -237 24q-127 0 -178 -35q-60 -44 -60 -116q0 -58 46 -97q-42 -47 -42 -100q0 -40 19 -71.5t49 -40.5q42 -11 215 -29q34 -4 34 -24
q0 -18 -24 -25.5t-83 -7.5q-54 0 -189 14v-122q126 -24 230 -24q121 0 172 28q71 41 71 126q0 30 -8.5 50.5t-31.5 44.5q37 48 37 103q0 33 -13.5 62t-35.5 43q-15 9 -40 13.5t-94 10.5q-95 8 -114.5 13t-19.5 21q0 17 24.5 24.5t83.5 7.5q50 0 189 -15zM376 291l-2 -6
q-10 1 -15 3q-19 3 -61.5 8t-61.5 7q-50 6 -50 41q0 10 7 25q7 -1 22.5 -3t44.5 -5.5t55 -6.5q38 -4 51.5 -13t13.5 -31q0 -8 -4 -19zM206 347v-4q0 -16 28 -20l5 -1q5 0 15.5 -1.5t22.5 -2.5q2 0 13 -1.5t26 -3t32 -3.5l12 -2v4q0 13 -15.5 17.5t-87.5 11.5l-35 4z" />
    <glyph glyph-name="dieresis" unicode="&#xa8;" horiz-adv-x="500" 
d="M45 609v160h199v-160h-199zM65 629h159v120h-159v-120zM255 609v160h199v-160h-199zM275 629h159v120h-159v-120z" />
    <glyph glyph-name="threequarters" unicode="&#xa9;" horiz-adv-x="934" 
d="M430 54l-22 -54h-129l107 266q-56 -21 -137 -21q-98 0 -214 28l-9 133q79 -24 137 -24q57 0 60 14q-4 13 -63 13q-44 0 -95 -5v59l75 47h-106v157h432v-122l-83 -51q53 -8 78 -42l86 215h130l-116 -290l32 36h289v-214h54v-146h-54v-53h-233v53h-219v1zM520 330l127 317
h-86l-88 -220q6 -18 6 -37q0 -70 -65 -109l-105 -261h86l36 90v120zM48 379l6 -90q100 -24 196 -24q101 0 155.5 32.5t54.5 92.5q0 43 -30 65.5t-86 22.5q-12 0 -27 -1l129 80v90h-392v-117h154l-123 -78v-26q42 3 74 3q83 0 83 -34q0 -33 -77 -33q-60 0 -117 17zM862 20v53
h54v106h-54v214h-260l-152 -170v-150h219v-53h193zM675 171h-95l95 115v-115zM655 191v39l-32 -39h32z" />
    <glyph glyph-name="ordfeminine" unicode="&#xaa;" horiz-adv-x="578" 
d="M552 253h-232v17q-46 -25 -118 -25q-176 0 -176 185q0 186 182 186q63 0 112 -27v19h232v-355zM532 273v315h-192v-42q-44 50 -131 50q-83 0 -123 -40.5t-40 -125.5t38 -125t120 -40q50 0 78.5 9.5t57.5 37.5v-39h192zM290 486q25 0 39.5 -16t14.5 -44q0 -30 -15 -47.5
t-40 -17.5t-39.5 17t-14.5 47q0 61 55 61zM289 466q-34 0 -34 -40q0 -45 34 -45q35 0 35 45q0 40 -35 40z" />
    <glyph glyph-name="guillemotleft" unicode="&#xab;" horiz-adv-x="425" 
d="M245 418l147 110v-214l-72 -56l72 -54v-221l-147 112v-112l-212 161v224l212 160v-110zM180 253v10l-6 -5zM244 121l128 -98v171l-85 64l85 66v164l-128 -96v-77l-44 -35v-43l44 -34v-82zM225 23v171l-84 64l84 66v164l-172 -130v-204z" />
    <glyph glyph-name="nbspace" unicode="&#xac;" horiz-adv-x="300" 
 />
    <glyph glyph-name="middot" unicode="&#xad;" horiz-adv-x="321" 
d="M162 392q139 0 139 -101q0 -49 -37.5 -77.5t-102.5 -28.5q-66 0 -103.5 28t-37.5 77q0 102 142 102zM159 372q-119 0 -119 -81q0 -41 31.5 -63.5t88.5 -22.5t89 22.5t32 62.5q0 43 -29 62.5t-93 19.5z" />
    <glyph glyph-name="copyright" unicode="&#xae;" horiz-adv-x="819" 
d="M415 682q152 0 262 -103t110 -246q0 -144 -110.5 -246t-266.5 -102q-157 0 -268 102t-111 246q0 146 111.5 247.5t272.5 101.5zM406 662q-146 0 -250.5 -96.5t-104.5 -231.5q0 -136 105 -232.5t254 -96.5q148 0 252.5 96t104.5 232q0 137 -105 233t-256 96zM414 583
q109 0 188.5 -74t79.5 -176q0 -103 -79.5 -176.5t-192.5 -73.5t-193.5 73.5t-80.5 176.5q0 105 80.5 177.5t197.5 72.5zM590 310v-138q72 75 72 160q0 90 -67 157v-150q-90 16 -136 16q-41 0 -55.5 -7t-14.5 -27q0 -16 15.5 -22t55.5 -6q55 0 130 17zM580 163
q-74 -12 -145 -12q-126 0 -183 40q-67 49 -67 144q0 87 57.5 133.5t164.5 46.5q77 0 177 -16q-77 64 -173 64q-106 0 -180.5 -67t-74.5 -163q0 -95 74.5 -162.5t179.5 -67.5q96 0 170 60zM570 182v103q-54 -12 -111 -12q-50 0 -70 11t-20 39t20.5 40t68.5 12q52 0 117 -12
v117q-86 15 -168 15q-99 0 -150.5 -40.5t-51.5 -119.5q0 -85 59 -128q51 -36 169 -36q71 0 137 11z" />
    <glyph glyph-name="macron" unicode="&#xaf;" horiz-adv-x="500" 
d="M467 623h-434v130h434v-130zM447 643v90h-394v-90h394z" />
    <glyph glyph-name="sfthyphen" unicode="&#xb0;" horiz-adv-x="383" 
d="M369 183h-356v211h356v-211zM349 203v171h-316v-171h316z" />
    <glyph glyph-name="trademark" unicode="&#xb1;" horiz-adv-x="1060" 
d="M641 667l47 -138l46 138h292v-414h-235v94l-33 -94h-139l-34 91v-91h-454v225h-118v189h628zM354 273v225h118v149h-439v-149h118v-225h203zM1006 273v374h-257l-61 -180l-61 180h-136v-168h-118v-206h192v183l68 -183h111l67 189v-189h195z" />
    <glyph glyph-name="twosuperior" unicode="&#xb2;" horiz-adv-x="518" 
d="M486 253h-444v136q88 27 146 56h-154q-1 37 -1 46q0 98 70 146q56 38 166 38q116 0 167 -45q49 -41 49 -103q0 -81 -92 -124h93v-150zM215 459q27 15 36 23t9 16q0 13 -17 13t-22.5 -10t-5.5 -42zM466 273v111h-183q57 18 89 32q50 22 71.5 47.5t21.5 63.5q0 69 -66 105
q-44 23 -129 23q-105 0 -156 -35q-61 -42 -61 -131v-24h142q0 66 48 66q17 0 27 -9t10 -24q0 -52 -218 -123v-102h404z" />
    <glyph glyph-name="threesuperior" unicode="&#xb3;" horiz-adv-x="520" 
d="M42 273l-9 133q82 -23 137 -23q57 0 60 14q-2 12 -62 12q-43 0 -96 -5v59l75 47h-106v157h432v-122l-83 -51q47 -7 72 -34t25 -70q0 -70 -60 -107.5t-170 -37.5q-98 0 -215 28zM55 379l6 -90q102 -24 196 -24q101 0 155.5 32t54.5 93q0 43 -30 65.5t-86 22.5q-6 0 -26 -1
l128 80v90h-392v-117h155l-124 -78v-26q42 3 74 3q84 0 84 -34q0 -32 -78 -32q-63 0 -117 16z" />
    <glyph glyph-name="acute" unicode="&#xb4;" horiz-adv-x="500" 
d="M388 609h-295l118 160h295zM378 629l89 120h-246l-88 -120h245z" />
    <glyph glyph-name="brokenbar" unicode="&#xb5;" horiz-adv-x="527" 
d="M140 667h248v-387h-248v387zM167 640v-333h194v333h-194zM140 185h248v-341h-248v341zM167 158v-288h194v288h-194z" />
    <glyph glyph-name="paragraph" unicode="&#xb6;" horiz-adv-x="535" 
d="M196 -108v415q-85 6 -132 52.5t-47 125.5q0 113 92 158q29 14 58.5 19t87.5 5h241v-775h-300zM216 -88h120v668h19v-668h121v735h-221q-65 0 -97.5 -7t-60.5 -27q-60 -43 -60 -128q0 -80 53 -122q48 -36 111 -36q7 0 15 1v-416z" />
    <glyph glyph-name="periodcentered" unicode="&#xb7;" horiz-adv-x="321" 
d="M162 392q139 0 139 -101q0 -49 -37.5 -77.5t-102.5 -28.5q-66 0 -103.5 28t-37.5 77q0 102 142 102zM159 372q-119 0 -119 -81q0 -41 31.5 -63.5t88.5 -22.5t89 22.5t32 62.5q0 43 -29 62.5t-93 19.5z" />
    <glyph glyph-name="cedilla" unicode="&#xb8;" horiz-adv-x="500" 
d="M396 -40l-135 -258h-194l86 258h243zM363 -60h-195l-73 -218h154z" />
    <glyph glyph-name="onesuperior" unicode="&#xb9;" horiz-adv-x="525" 
d="M421 253h-236v195l-80 -25v169l104 75h212v-414zM401 273v374h-185l-91 -66v-131l80 26v-203h196z" />
    <glyph glyph-name="ordmasculine" unicode="&#xba;" horiz-adv-x="561" 
d="M293 619q114 0 174 -39q70 -46 70 -145q0 -98 -62.5 -145t-192.5 -47q-132 0 -194.5 47t-62.5 146q0 97 64 140q35 24 80.5 33.5t123.5 9.5zM285 599q-127 0 -183.5 -38.5t-56.5 -125.5q0 -90 56.5 -131t180.5 -41q121 0 178 41.5t57 129.5q0 89 -62 129q-53 36 -170 36z
M284 492q59 0 59 -59q0 -70 -60 -70t-60 70q0 59 61 59zM282 472q-22 0 -30.5 -8.5t-8.5 -30.5q0 -27 9 -38.5t31 -11.5t31 11.5t9 38.5q0 22 -9 30.5t-32 8.5z" />
    <glyph glyph-name="guillemotright" unicode="&#xbb;" horiz-adv-x="425" 
d="M180 416v112l212 -162v-224l-212 -159v110l-147 -110v214l72 56l-72 54v221zM245 248l6 5l-6 4v-9zM200 110v-87l172 129v205l-172 131v-88l44 -34v-83l40 -30l-40 -32v-78zM53 488v-171l85 -64l-85 -66v-164l172 129v205z" />
    <glyph glyph-name="onehalf" unicode="&#xbc;" horiz-adv-x="922" 
d="M458 192l-77 -192h-130l103 253h-176v195l-80 -25v169l104 75h212v-264l106 264h129l-107 -267q51 22 139 22q111 0 164 -45q49 -41 49 -103q0 -42 -22 -71.5t-70 -52.5h93v-150h-443v136q94 31 146 56h-140zM624 206q28 15 37 23t9 16q0 13 -17 13t-23 -10.5t-6 -41.5z
M514 383l106 264h-87l-120 -300v-93h-37l-95 -234h87l77 191q-1 20 -1 26q0 97 70 146zM394 273v374h-185l-91 -66v-131l80 26v-203h196zM875 20v110h-182q68 24 88 33q50 22 71.5 47.5t21.5 63.5q0 69 -66 105q-44 23 -129 23q-104 0 -155 -35q-61 -42 -61 -131v-24h142
q0 35 11.5 50.5t36.5 15.5q17 0 27 -9t10 -24q0 -16 -14 -29t-50 -33q-62 -32 -154 -62v-101h403z" />
    <glyph glyph-name="plusminus" unicode="&#xbd;" horiz-adv-x="542" 
d="M361 178h166v-178h-512v178h164v67h-164v177h164v170h182v-170h166v-177h-166v-67zM35 402v-137h164v-88h142v88h166v137h-166v170h-142v-170h-164zM35 158v-138h472v138h-472z" />
    <glyph glyph-name="onequarter" unicode="&#xbe;" horiz-adv-x="906" 
d="M403 54l-22 -54h-130l103 253h-176v195l-80 -26v170l104 75h212v-264l106 264h130l-117 -290l33 36h288v-214h54v-146h-54v-53h-232v53h-219v1zM493 330l127 317h-86l-121 -300v-93h-37l-95 -234h87l36 90v120zM394 273v374h-185l-91 -66v-131l80 25v-202h196zM834 20v53
h54v106h-54v214h-259l-152 -170v-150h219v-53h192zM635 171h-95l95 115v-115zM615 191v39l-33 -39h33z" />
    <glyph glyph-name="questiondown" unicode="&#xbf;" horiz-adv-x="583" 
d="M173 493h286q-97 -133 -113 -159.5t-16 -53.5q0 -22 19.5 -30t70.5 -8q37 0 100 12l24 5v-249q-127 -19 -263 -19q-133 0 -195 36q-32 19 -50.5 54.5t-18.5 79.5q0 47 21.5 99.5t85.5 160.5q15 25 49 72zM420 473h-237q-45 -63 -88 -144q-34 -63 -46 -97t-12 -71
q0 -38 15.5 -69t43.5 -47q58 -34 186 -34q123 0 242 16v207q-67 -12 -105 -12q-60 0 -84.5 13.5t-24.5 45.5q0 42 49 109q46 63 61 83zM309 707q65 0 102 -28.5t37 -77.5q0 -101 -141 -101q-140 0 -140 101q0 50 37.5 78t104.5 28zM306 687q-56 0 -87.5 -23t-31.5 -63
q0 -81 120 -81q62 0 91.5 19.5t29.5 61.5q0 41 -31.5 63.5t-90.5 22.5z" />
    <glyph glyph-name="Agrave" unicode="&#xc0;" horiz-adv-x="923" 
d="M254 667l-47 63h295l47 -63h185l209 -667h-363l-23 82h-186l-22 -82h-369l213 667h61zM335 590h246l-89 120h-246zM270 647h-62l-201 -627h326l23 82h216l23 -82h321l-197 627h-157l56 -76h-292zM536 268h-142l73 213zM508 288l-42 130l-44 -130h86z" />
    <glyph glyph-name="Aacute" unicode="&#xc1;" horiz-adv-x="923" 
d="M372 667l47 63h295l-47 -63h67l209 -667h-363l-23 82h-186l-22 -82h-369l213 667h179zM585 590l89 120h-245l-89 -120h245zM358 647h-150l-201 -627h326l23 82h216l23 -82h321l-197 627h-68l-56 -76h-293zM536 268h-142l73 213zM508 288l-42 130l-44 -130h86z" />
    <glyph glyph-name="Acircumflex" unicode="&#xc2;" horiz-adv-x="923" 
d="M282 667l39 63h278l40 -63h95l209 -667h-363l-23 82h-186l-22 -82h-369l213 667h89zM460 664l39 -74h164l-75 120h-256l-74 -120h163zM271 647h-63l-201 -627h326l23 82h216l23 -82h321l-197 627h-69l47 -76h-209l-28 52l-27 -52h-209zM536 268h-142l73 213zM508 288
l-42 130l-44 -130h86z" />
    <glyph glyph-name="Atilde" unicode="&#xc3;" horiz-adv-x="923" 
d="M681 667h53l209 -667h-363l-23 82h-186l-22 -82h-369l213 667h61q47 63 117 63q36 0 97 -16q55 -14 68 -14q17 0 21 11l5 12h137l-8 -25q-4 -14 -10 -31zM672 703h-97q-10 -23 -39 -23q-15 0 -73 14q-63 16 -92 16q-46 0 -79 -30.5t-44 -81.5h93q11 20 35 20q18 0 74 -15
q59 -15 84 -15q49 0 86 31t52 84zM244 647h-36l-201 -627h326l23 82h216l23 -82h321l-197 627h-50q-52 -78 -135 -78q-28 0 -89 16q-52 14 -69 14q-15 0 -24 -20h-127q9 48 19 68zM536 268h-142l73 213zM508 288l-42 130l-44 -130h86z" />
    <glyph glyph-name="Adieresis" unicode="&#xc4;" horiz-adv-x="923" 
d="M235 667v63h199v-63h52v63h200v-63h48l210 -667h-364l-23 82h-186l-22 -82h-369l213 667h42zM255 590h159v120h-159v-120zM506 590h160v120h-160v-120zM236 647h-28l-200 -627h325l22 82h217l23 -82h321l-197 627h-34v-76h-198v76h-54v-76h-197v76zM536 268h-142l73 213z
M508 288l-42 130l-44 -130h86z" />
    <glyph glyph-name="Aring" unicode="&#xc5;" horiz-adv-x="923" 
d="M193 667h86q40 63 181 63q76 0 118 -14.5t63 -48.5h93l209 -667h-363l-23 82h-186l-22 -82h-369zM458 710q-89 0 -130.5 -23.5t-41.5 -72.5t42 -72t132 -23q174 0 174 95q0 50 -42 73t-134 23zM462 654q23 0 33.5 -10t10.5 -32q0 -41 -44 -41q-24 0 -34.5 9.5t-10.5 31.5
t10.5 32t34.5 10zM461 634q-15 0 -19.5 -4t-4.5 -18q0 -13 4.5 -17t19.5 -4q16 0 20.5 4t4.5 17q0 14 -4.5 18t-20.5 4zM272 647h-64l-201 -627h326l23 82h216l23 -82h321l-197 627h-70q4 -16 4 -31q0 -59 -47 -87.5t-146 -28.5q-193 0 -193 115q0 16 5 32zM536 268h-142
l73 213zM508 288l-42 130l-44 -130h86z" />
    <glyph glyph-name="AE" unicode="&#xc6;" horiz-adv-x="1192" 
d="M1159 0h-689v82h-111l-24 -82h-355l247 667h932v-235h-329v-30h329v-179h-329v-26h329v-197zM1139 20v157h-329v66h329v139h-329v70h329v195h-899l-232 -627h312l24 82h146v-82h649zM490 268h-100l100 285v-285zM470 288v147l-52 -147h52z" />
    <glyph glyph-name="Ccedilla" unicode="&#xc7;" horiz-adv-x="828" 
d="M289 -167l55 162q-57 7 -84.5 14t-61.5 24q-83 41 -130.5 122.5t-47.5 183.5q0 83 32.5 152.5t90.5 112.5q104 77 305 77q161 0 360 -33v-282q-162 28 -259 28q-86 0 -120 -18.5t-34 -64.5q0 -42 35 -58.5t123 -16.5q111 0 244 30v-254q-120 -21 -233 -25l-81 -154h-194z
M616 90l-43 -82q102 3 204 21v212q-112 -25 -224 -25q-98 0 -138 21.5t-40 73.5q0 56 39.5 79.5t133.5 23.5q99 0 240 -24v241q-192 30 -340 30q-193 0 -294 -73q-53 -39 -83.5 -105t-30.5 -144q0 -113 58.5 -195t160.5 -113q30 -9 92 -16l25 75h240zM585 71h-195l-73 -218
h154z" />
    <glyph glyph-name="Egrave" unicode="&#xc8;" horiz-adv-x="833" 
d="M523 667h277v-235h-401v-30h401v-179h-401v-26h401v-197h-760v667h188l-46 63h295zM244 647h-184v-627h720v157h-401v66h401v139h-401v70h401v195h-243l56 -76h-293zM310 590h245l-89 120h-245z" />
    <glyph glyph-name="Eacute" unicode="&#xc9;" horiz-adv-x="833" 
d="M611 667h189v-235h-401v-30h401v-179h-401v-26h401v-197h-760v667h276l47 63h295zM303 647h-243v-627h720v157h-401v66h401v139h-401v70h401v195h-185l-56 -76h-292zM530 590l89 120h-246l-89 -120h246z" />
    <glyph glyph-name="Ecircumflex" unicode="&#xca;" horiz-adv-x="833" 
d="M598 667h202v-235h-401v-30h401v-179h-401v-26h401v-197h-760v667h202l39 63h278zM230 647h-170v-627h720v157h-401v66h401v139h-401v70h401v195h-171l48 -76h-210l-27 52l-28 -52h-209zM420 664l39 -74h163l-74 120h-256l-75 -120h164z" />
    <glyph glyph-name="Edieresis" unicode="&#xcb;" horiz-adv-x="833" 
d="M394 667h52v63h199v-63h155v-235h-401v-30h401v-179h-401v-26h401v-197h-760v667h154v63h200v-63zM195 647h-135v-627h720v157h-401v66h401v139h-401v70h401v195h-136v-76h-197v76h-54v-76h-198v76zM214 590h160v120h-160v-120zM466 590h159v120h-159v-120z" />
    <glyph glyph-name="Igrave" unicode="&#xcc;" horiz-adv-x="464" 
d="M414 570v-570h-359v671l-44 59h295l47 -63h61v-83l10 -14h-10zM75 645v-625h319v551h-264zM366 647l28 -38v38h-28zM139 590h246l-89 120h-245z" />
    <glyph glyph-name="Iacute" unicode="&#xcd;" horiz-adv-x="464" 
d="M409 671v-671h-359v570h-10l10 14v83h61l47 63h295zM70 571v-551h319v625l-55 -74h-264zM70 609l28 38h-28v-38zM325 590l88 120h-245l-89 -120h246z" />
    <glyph glyph-name="Icircumflex" unicode="&#xce;" horiz-adv-x="461" 
d="M410 570v-570h-359v570h-59l100 160h277l100 -160h-59zM71 571v-551h319v551h-132l-27 52l-28 -52h-132zM231 664l38 -74h164l-75 120h-255l-75 -120h164z" />
    <glyph glyph-name="Idieresis" unicode="&#xcf;" horiz-adv-x="438" 
d="M398 570v-570h-359v570h-9v160h378v-160h-10zM378 571h-319v-551h319v551zM50 590h159v120h-159v-120zM228 590h160v120h-160v-120z" />
    <glyph glyph-name="Eth" unicode="&#xd0;" horiz-adv-x="956" 
d="M37 398v269h569q158 0 245 -88q84 -85 84 -225q0 -176 -132 -272q-113 -82 -276 -82h-490v268h-56v130h56zM396 268v-44h32q62 0 93 19q43 27 43 87q0 85 -92 85h-76v-17h76v-130h-76zM57 269v-249h470q156 0 264 78q124 90 124 256q0 132 -78 211q-81 82 -231 82h-549
v-250h319v38h96q54 0 83 -27t29 -78q0 -71 -53 -104q-36 -22 -103 -22h-52v65h-319zM452 288v90h-451v-90h451z" />
    <glyph glyph-name="Ntilde" unicode="&#xd1;" horiz-adv-x="928" 
d="M684 667h204v-667h-311l-196 251v-251h-341v667h218q46 63 117 63q30 0 97 -16q54 -14 68 -14q17 0 21 11l5 12h136l-7 -25q-4 -16 -11 -31zM448 585l99 -146v129h-8q-27 0 -81 14zM248 647h-188v-627h301v289l226 -289h281v627h-196q-42 -64 -105 -75v-197l-149 218
q-25 6 -38 6q-15 0 -24 -20h-127q9 48 19 68zM676 703h-97q-10 -23 -39 -23q-15 0 -73 14q-63 16 -92 16q-46 0 -79 -30.5t-44 -81.5h93q11 20 35 20q18 0 74 -15q57 -15 84 -15q49 0 86 31t52 84z" />
    <glyph glyph-name="Ograve" unicode="&#xd2;" horiz-adv-x="948" 
d="M271 662l-50 68h295l35 -48q63 -7 88 -12q289 -52 289 -337q0 -88 -30 -158t-85 -110q-116 -83 -339 -83t-339 83q-55 40 -85 110t-30 158q0 265 251 329zM349 590h245l-88 120h-246zM339 571l-54 74q-125 -30 -185 -106.5t-60 -205.5q0 -83 28 -148.5t79 -102.5
q108 -80 327 -80t327 80q51 37 79 102.5t28 148.5q0 152 -81.5 229.5t-260.5 97.5l66 -89h-293zM476 456q53 0 81.5 -32t28.5 -93q0 -152 -112 -152q-111 0 -111 153q0 124 113 124zM473 436q-90 0 -90 -104q0 -133 91 -133q92 0 92 133q0 104 -93 104z" />
    <glyph glyph-name="Oacute" unicode="&#xd3;" horiz-adv-x="948" 
d="M397 682l35 48h296l-51 -68q128 -34 189.5 -115t61.5 -214q0 -88 -30 -158t-85 -110q-116 -83 -339 -83t-339 83q-55 40 -85 110t-30 158q0 283 289 337q27 5 88 12zM599 590l89 120h-245l-89 -120h245zM316 571l66 89q-179 -19 -260.5 -97t-81.5 -230q0 -83 28 -148.5
t79 -102.5q108 -80 327 -80t327 80q51 37 79 102.5t28 148.5q0 129 -60 204.5t-185 107.5l-54 -74h-293zM476 456q53 0 81.5 -32t28.5 -93q0 -152 -112 -152q-111 0 -111 153q0 124 113 124zM473 436q-90 0 -90 -104q0 -133 91 -133q92 0 92 133q0 104 -93 104z" />
    <glyph glyph-name="Ocircumflex" unicode="&#xd4;" horiz-adv-x="948" 
d="M297 669l38 61h278l38 -61q83 -22 121 -43q156 -84 156 -293q0 -88 -30 -158t-85 -110q-116 -83 -339 -83t-339 83q-55 40 -85 110t-30 158q0 248 217 319q5 1 20.5 6t39.5 11zM474 664l39 -74h164l-75 120h-256l-74 -120h163zM237 571l46 73q-79 -22 -124 -52
q-119 -80 -119 -259q0 -83 28 -148.5t79 -102.5q108 -80 327 -80t327 80q51 37 79 102.5t28 148.5q0 179 -119 259q-45 32 -124 52l46 -73h-209l-28 52l-27 -52h-210zM476 456q53 0 81.5 -32t28.5 -93q0 -152 -112 -152q-111 0 -111 153q0 124 113 124zM473 436
q-90 0 -90 -104q0 -133 91 -133q92 0 92 133q0 104 -93 104z" />
    <glyph glyph-name="Otilde" unicode="&#xd5;" horiz-adv-x="948" 
d="M576 723h136q-11 -44 -22 -65q238 -69 238 -325q0 -88 -30 -158t-85 -110q-116 -83 -339 -83t-339 83q-55 40 -85 110t-30 158q0 221 171 301q24 11 73 27q48 69 121 69q36 0 97 -16q54 -14 68 -14q17 0 21 11zM686 703h-97q-10 -23 -39 -23q-15 0 -73 14q-63 16 -92 16
q-46 0 -79 -30.5t-44 -81.5h93q11 20 35 20q18 0 74 -15q57 -15 84 -15q49 0 86 31t52 84zM366 579h-127q7 42 14 57q-60 -20 -94 -44q-119 -79 -119 -259q0 -83 28 -149t79 -103q109 -79 327 -79t327 79q51 37 79 103t28 149q0 125 -56 199.5t-174 108.5q-53 -72 -131 -72
q-27 0 -88 16q-52 14 -69 14q-15 0 -24 -20zM476 456q53 0 81.5 -32t28.5 -93q0 -152 -112 -152q-111 0 -111 153q0 124 113 124zM473 436q-90 0 -90 -104q0 -133 91 -133q92 0 92 133q0 104 -93 104z" />
    <glyph glyph-name="Odieresis" unicode="&#xd6;" horiz-adv-x="948" 
d="M249 656v74h199v-45h24h28v45h200v-74q54 -19 81 -34q148 -85 148 -289q0 -88 -30 -158t-85 -110q-118 -83 -340 -83q-221 0 -339 83q-55 40 -85 110t-30 158q0 219 169 299q23 11 60 24zM269 590h159v120h-159v-120zM520 590h160v120h-160v-120zM250 571v64
q-59 -21 -91 -43q-119 -80 -119 -259q0 -83 28 -148.5t79 -102.5q108 -80 327 -80q220 0 328 80q51 37 79 102.5t28 148.5q0 179 -119 259q-32 22 -91 43v-64h-198v94h-27h-27v-94h-197zM476 456q53 0 81.5 -32t28.5 -93q0 -152 -112 -152q-111 0 -111 153q0 124 113 124z
M473 436q-90 0 -90 -104q0 -133 91 -133q92 0 92 133q0 104 -93 104z" />
    <glyph glyph-name="minus" unicode="&#xd7;" horiz-adv-x="542" 
d="M15 422h512v-177h-512v177zM35 402v-137h472v137h-472z" />
    <glyph glyph-name="Oslash" unicode="&#xd8;" horiz-adv-x="951" 
d="M931 607l-69 -52q67 -84 67 -222q0 -88 -30 -158t-85 -110q-116 -83 -338 -83q-152 0 -247 35q-3 1 -51 22l-91 -68l-67 89l68 51q-67 87 -67 226q0 189 128 272q119 76 326 76q153 0 250 -38q11 -4 47 -20l92 69zM567 333l-151 -114q22 -20 60 -20q46 0 68 32.5
t23 101.5zM384 334l129 97q-19 6 -37 6q-46 0 -68 -25t-24 -78zM399 208l-204 -155q114 -51 281 -51q216 0 326 80q51 37 79 102.5t28 148.5q0 134 -64 211l-259 -195q1 -8 1 -17q0 -153 -111 -153q-48 0 -77 29zM364 318v16q0 59 28.5 91t81.5 32q35 0 58 -13l223 169
q-112 52 -280 52q-202 0 -315 -73q-119 -77 -119 -255q0 -135 64 -215zM91 -1l812 612l-43 57l-812 -612z" />
    <glyph glyph-name="Ugrave" unicode="&#xd9;" horiz-adv-x="895" 
d="M535 667h320v-400q0 -86 -17.5 -131.5t-64.5 -78.5q-98 -71 -326 -71q-252 0 -346 88q-35 34 -48 76t-13 126v391h200l-46 63h294zM399 570v-309q0 -37 6 -46q12 -15 42 -15t42 15q6 9 6 46v309h-96zM257 647h-197v-371q0 -88 15 -130t58 -73q93 -67 314 -67
q245 0 333 82q32 30 43.5 68t11.5 111v380h-286l56 -76h-90v-310q0 -44 -10 -58q-18 -23 -58 -23t-58 23q-10 14 -10 58v310h-66zM322 590h245l-89 120h-245z" />
    <glyph glyph-name="Uacute" unicode="&#xda;" horiz-adv-x="895" 
d="M654 667h201v-400q0 -86 -17.5 -131.5t-64.5 -78.5q-98 -71 -326 -71q-252 0 -346 88q-35 34 -48 76t-13 126v391h319l47 63h295zM399 570v-309q0 -37 6 -46q12 -15 42 -15t42 15q6 9 6 46v309h-96zM345 647h-285v-371q0 -88 15 -130t58 -73q93 -67 314 -67q245 0 333 82
q32 30 43.5 68t11.5 111v380h-197l-56 -76h-67v-310q0 -44 -10 -58q-18 -23 -58 -23t-58 23q-10 14 -10 58v310h-90zM572 590l89 120h-245l-89 -120h245z" />
    <glyph glyph-name="Ucircumflex" unicode="&#xdb;" horiz-adv-x="895" 
d="M625 667h230v-400q0 -86 -17.5 -131.5t-64.5 -78.5q-98 -71 -326 -71q-252 0 -346 88q-35 34 -48 76t-13 126v391h229l39 63h278zM399 570v-309q0 -37 6 -46q12 -15 42 -15t42 15q6 9 6 46v309h-21l-27 51l-27 -51h-21zM258 647h-198v-371q0 -88 15 -130t58 -73
q93 -67 314 -67q245 0 333 82q32 30 43.5 68t11.5 111v380h-198l47 -76h-169v-310q0 -44 -10 -58q-18 -23 -58 -23t-58 23q-10 14 -10 58v310h-168zM447 664l39 -74h164l-75 120h-256l-74 -120h163z" />
    <glyph glyph-name="Udieresis" unicode="&#xdc;" horiz-adv-x="895" 
d="M399 570v-309q0 -37 6 -46q12 -15 42 -15t42 15q6 9 6 46v309h-22v160h200v-63h182v-400q0 -86 -17.5 -131.5t-64.5 -78.5q-98 -71 -326 -71q-252 0 -346 88q-35 34 -48 76t-13 126v391h182v63h199v-160h-22zM223 647h-163v-371q0 -88 15 -130t58 -73q94 -67 314 -67
q246 0 333 82q32 30 43.5 68t11.5 111v380h-163v-76h-157v-310q0 -44 -10 -58q-18 -23 -58 -23t-58 23q-10 14 -10 58v310h-156v76zM242 590h159v120h-159v-120zM493 590h160v120h-160v-120z" />
    <glyph glyph-name="Yacute" unicode="&#xdd;" horiz-adv-x="896" 
d="M655 667h261l-287 -472v-195h-359v195l-290 472h380l46 63h295zM427 570l30 -68l27 68h-57zM346 647h-330l274 -446v-181h319v181l271 446h-241l-57 -76h-76l-48 -121l-53 121h-115zM573 590l89 120h-246l-88 -120h245z" />
    <glyph glyph-name="Thorn" unicode="&#xde;" horiz-adv-x="931" 
d="M399 0h-359v667h359v-64h253q124 0 193 -63t69 -175q0 -69 -28 -127t-79 -93q-90 -64 -269 -64h-139v-81zM379 20v81h159q92 0 152 14t106 46q98 70 98 204q0 104 -63 161t-179 57h-273v64h-319v-627h319zM379 268v139h132q34 0 52.5 -17t18.5 -48q0 -74 -94 -74h-109z
M399 288h89q74 0 74 55q0 44 -51 44h-112v-99z" />
    <glyph glyph-name="germandbls" unicode="&#xdf;" horiz-adv-x="809" 
d="M383 0h-350v531q0 100 78 138t284 38q189 0 264 -34q87 -39 87 -147q0 -78 -50 -129q53 -23 74.5 -64.5t21.5 -117.5q0 -115 -48 -167q-27 -30 -66.5 -41t-119.5 -11q-77 0 -158 5v196q24 -2 35 -2q29 0 29 27q0 26 -26 26q-6 0 -38 -4v237q23 1 30 6t7 21q0 11 -6 15.5
t-22 4.5q-19 0 -22.5 -7t-3.5 -41v-480zM363 20v460q0 43 8.5 55.5t39.5 12.5q46 0 46 -41q0 -39 -37 -43v-197q7 1 18 1q22 0 34 -12.5t12 -33.5q0 -22 -13 -34.5t-35 -12.5q-10 0 -16 1v-156q67 -4 139 -4q74 0 110.5 9.5t59.5 35.5q43 47 43 155q0 84 -28.5 122
t-101.5 51q6 3 11.5 6t8 4t4.5 2l4 2q56 34 56 121q0 96 -75 131q-72 32 -256 32q-197 0 -269.5 -33t-72.5 -123v-511h310z" />
    <glyph glyph-name="agrave" unicode="&#xe0;" 
d="M833 0h-341v45q-41 -31 -75 -42q-56 -17 -131 -17q-138 0 -203.5 72.5t-65.5 224.5q0 159 74 230q70 68 203 68q64 0 109.5 -14t88.5 -48v48h341v-567zM813 20v527h-301v-81q-18 22 -23 28q-62 67 -193 67q-126 0 -191 -62q-68 -65 -68 -215q0 -146 60 -212t192 -66
q127 0 190 54q8 7 33 32v-72h301zM427 380q42 0 66.5 -28t24.5 -77q0 -52 -25 -82t-68 -30t-67.5 30t-24.5 81q0 50 25 78t69 28zM424 360q-34 0 -52.5 -22.5t-18.5 -62.5q0 -44 19 -68t54 -24q34 0 53 24.5t19 67.5q0 85 -74 85zM295 609l-118 160h295l118 -160h-295z
M305 629h246l-89 120h-245z" />
    <glyph glyph-name="aacute" unicode="&#xe1;" 
d="M833 0h-341v45q-41 -31 -75 -42q-56 -17 -131 -17q-138 0 -203.5 72.5t-65.5 224.5q0 159 74 230q70 68 203 68q64 0 109.5 -14t88.5 -48v48h341v-567zM813 20v527h-301v-81q-18 22 -23 28q-62 67 -193 67q-126 0 -191 -62q-68 -65 -68 -215q0 -146 60 -212t192 -66
q127 0 190 54q8 7 33 32v-72h301zM427 380q42 0 66.5 -28t24.5 -77q0 -52 -25 -82t-68 -30t-67.5 30t-24.5 81q0 50 25 78t69 28zM424 360q-34 0 -52.5 -22.5t-18.5 -62.5q0 -44 19 -68t54 -24q34 0 53 24.5t19 67.5q0 85 -74 85zM571 609h-295l118 160h295zM561 629l89 120
h-246l-88 -120h245z" />
    <glyph glyph-name="acircumflex" unicode="&#xe2;" 
d="M833 0h-341v45q-41 -31 -75 -42q-56 -17 -131 -17q-138 0 -203.5 72.5t-65.5 224.5q0 159 74 230q70 68 203 68q64 0 109.5 -14t88.5 -48v48h341v-567zM813 20v527h-301v-81q-18 22 -23 28q-62 67 -193 67q-126 0 -191 -62q-68 -65 -68 -215q0 -146 60 -212t192 -66
q127 0 190 54q8 7 33 32v-72h301zM427 380q42 0 66.5 -28t24.5 -77q0 -52 -25 -82t-68 -30t-67.5 30t-24.5 81q0 50 25 78t69 28zM424 360q-34 0 -52.5 -22.5t-18.5 -62.5q0 -44 19 -68t54 -24q34 0 53 24.5t19 67.5q0 85 -74 85zM433 660l-26 -51h-212l99 160h278l100 -160
h-212zM433 703l39 -74h164l-75 120h-255l-75 -120h163z" />
    <glyph glyph-name="atilde" unicode="&#xe3;" 
d="M833 0h-341v45q-41 -31 -75 -42q-56 -17 -131 -17q-138 0 -203.5 72.5t-65.5 224.5q0 159 74 230q70 68 203 68q64 0 109.5 -14t88.5 -48v48h341v-567zM813 20v527h-301v-81q-18 22 -23 28q-62 67 -193 67q-126 0 -191 -62q-68 -65 -68 -215q0 -146 60 -212t192 -66
q127 0 190 54q8 7 33 32v-72h301zM427 380q42 0 66.5 -28t24.5 -77q0 -52 -25 -82t-68 -30t-67.5 30t-24.5 81q0 50 25 78t69 28zM424 360q-34 0 -52.5 -22.5t-18.5 -62.5q0 -44 19 -68t54 -24q34 0 53 24.5t19 67.5q0 85 -74 85zM535 762h136q-17 -74 -60 -114.5
t-104 -40.5q-28 0 -90 16q-48 14 -69 14q-12 0 -23 -20h-129q9 43 12 53t13 26q19 34 52.5 53.5t70.5 19.5q31 0 96 -16q55 -14 70 -14q17 0 25 23zM645 742h-97q-11 -23 -39 -23q-16 0 -74 14q-61 16 -91 16q-46 0 -79 -30.5t-44 -81.5h93q11 20 35 20q18 0 74 -15
q57 -15 84 -15q49 0 86 31t52 84z" />
    <glyph glyph-name="adieresis" unicode="&#xe4;" 
d="M833 0h-341v45q-41 -31 -75 -42q-56 -17 -131 -17q-138 0 -203.5 72.5t-65.5 224.5q0 159 74 230q70 68 203 68q64 0 109.5 -14t88.5 -48v48h341v-567zM813 20v527h-301v-81q-18 22 -23 28q-62 67 -193 67q-126 0 -191 -62q-68 -65 -68 -215q0 -146 60 -212t192 -66
q127 0 190 54q8 7 33 32v-72h301zM427 380q42 0 66.5 -28t24.5 -77q0 -52 -25 -82t-68 -30t-67.5 30t-24.5 81q0 50 25 78t69 28zM424 360q-34 0 -52.5 -22.5t-18.5 -62.5q0 -44 19 -68t54 -24q34 0 53 24.5t19 67.5q0 85 -74 85zM229 609v160h199v-160h-199zM249 629h159
v120h-159v-120zM439 609v160h199v-160h-199zM459 629h159v120h-159v-120z" />
    <glyph glyph-name="aring" unicode="&#xe5;" 
d="M543 567h290v-567h-341v45q-41 -31 -75 -42q-56 -17 -131 -17q-138 0 -203.5 72.5t-65.5 224.5q0 149 67.5 222.5t206.5 75.5q-51 30 -51 89q0 116 194 116t194 -116q0 -75 -85 -103zM492 519v38q-19 -2 -56 -2q23 -11 56 -36zM813 20v527h-301v-81q-18 22 -23 28
q-62 67 -193 67q-126 0 -191 -62q-68 -65 -68 -215q0 -146 60 -212t192 -66q127 0 190 54q8 7 33 32v-72h301zM427 380q42 0 66.5 -28t24.5 -77q0 -52 -25 -82t-68 -30t-67.5 30t-24.5 81q0 50 25 78t69 28zM424 360q-34 0 -52.5 -22.5t-18.5 -62.5q0 -44 19 -68t54 -24
q34 0 53 24.5t19 67.5q0 85 -74 85zM431 766q-89 0 -130.5 -23.5t-41.5 -72.5t42 -72t132 -23t132 23t42 72q0 50 -42 73t-134 23zM435 710q44 0 44 -41q0 -22 -10.5 -31.5t-34.5 -9.5q-44 0 -44 41q0 22 10.5 31.5t34.5 9.5zM434 690q-15 0 -19.5 -4t-4.5 -17t4.5 -17
t20.5 -4q15 0 19.5 4t4.5 17t-4.5 17t-20.5 4z" />
    <glyph glyph-name="ae" unicode="&#xe6;" horiz-adv-x="1399" 
d="M751 567v-57q56 41 107.5 55.5t145.5 14.5q123 0 197 -24t114 -77q26 -34 41.5 -89.5t15.5 -116.5q0 -6 -2 -50h-420q1 -37 23 -53t73 -16q82 0 275 34q22 3 43 6l-63 -160q-211 -48 -337 -48q-103 0 -157 31q-20 10 -56 41v-58h-259v45q-41 -31 -75 -42
q-56 -17 -131 -17q-138 0 -203.5 72.5t-65.5 224.5q0 159 74 230q70 68 203 68q64 0 109.5 -14t88.5 -48v48h259zM731 468v79h-219v-81q-18 22 -23 28q-62 67 -193 67q-126 0 -191 -62q-68 -65 -68 -215q0 -146 60 -212t192 -66q127 0 190 54q8 7 33 32v-72h219v83l9 -8
q57 -55 102 -72t132 -17q77 0 141 9.5t172 36.5l46 117l-11 -1l-90 -16q-115 -18 -190 -18q-97 0 -110 65q-3 18 -3 44h421q2 36 2 41q0 49 -14 100.5t-36 81.5q-37 50 -108 72.5t-193 22.5q-99 0 -150 -17.5t-120 -75.5zM427 380q42 0 66.5 -28t24.5 -77q0 -52 -25 -82
t-68 -30t-67.5 30t-24.5 81q0 50 25 78t69 28zM424 360q-34 0 -52.5 -22.5t-18.5 -62.5q0 -44 19 -68t54 -24q34 0 53 24.5t19 67.5q0 85 -74 85zM1111 344h-196q7 51 30.5 73t71.5 22q73 0 91 -58q3 -13 3 -37zM939 364h152q-9 55 -74 55q-34 0 -52 -12.5t-26 -42.5z" />
    <glyph glyph-name="ccedilla" unicode="&#xe7;" horiz-adv-x="721" 
d="M211 -167l55 165q-64 11 -112 34q-65 32 -101 100.5t-36 157.5q0 75 27 134.5t75 90.5q103 66 300 66q117 0 281 -30l6 -242q-140 21 -221 21q-53 0 -82 -7q-44 -11 -44 -56q0 -60 93 -60q85 0 254 34l-6 -211q-102 -34 -214 -43l-81 -154h-194zM538 90l-43 -82
q93 7 186 37l4 171q-142 -29 -233 -29q-54 0 -83.5 21t-29.5 59q0 28 16 48.5t43 26.5q31 8 87 8q91 0 200 -18l-4 203q-148 26 -262 26q-192 0 -289 -63q-44 -28 -68.5 -83t-24.5 -125q0 -98 42.5 -164t123.5 -92q28 -10 71 -17l24 73h240zM507 71h-195l-73 -218h154z" />
    <glyph glyph-name="egrave" unicode="&#xe8;" horiz-adv-x="825" 
d="M790 194l-63 -160q-206 -48 -344 -48q-192 0 -287 84q-79 72 -79 206q0 88 37 156t105 103q87 46 259 46q242 0 323 -103q26 -32 41.5 -88.5t15.5 -117.5q0 -24 -2 -49h-420q4 -39 25 -54t72 -15q81 0 274 34q13 2 43 6zM757 169l-97 -17q-110 -18 -189 -18
q-92 0 -108 52q-7 20 -8 57h422q1 14 1 32q0 55 -15 108.5t-38 82.5q-75 95 -308 95q-208 0 -294 -74q-86 -75 -86 -211q0 -84 29.5 -137.5t94.5 -88.5q85 -44 222 -44q136 0 330 46zM537 344h-196q7 50 30.5 72.5t71.5 22.5q73 0 91 -58q3 -14 3 -37zM365 364h151
q-6 55 -74 55q-33 0 -50 -12t-27 -43zM275 609l-118 160h295l118 -160h-295zM285 629h246l-89 120h-245z" />
    <glyph glyph-name="eacute" unicode="&#xe9;" horiz-adv-x="825" 
d="M790 194l-63 -160q-206 -48 -344 -48q-192 0 -287 84q-79 72 -79 206q0 88 37 156t105 103q87 46 259 46q242 0 323 -103q26 -32 41.5 -88.5t15.5 -117.5q0 -24 -2 -49h-420q4 -39 25 -54t72 -15q81 0 274 34q13 2 43 6zM757 169l-97 -17q-110 -18 -189 -18
q-92 0 -108 52q-7 20 -8 57h422q1 14 1 32q0 55 -15 108.5t-38 82.5q-75 95 -308 95q-208 0 -294 -74q-86 -75 -86 -211q0 -84 29.5 -137.5t94.5 -88.5q85 -44 222 -44q136 0 330 46zM537 344h-196q7 50 30.5 72.5t71.5 22.5q73 0 91 -58q3 -14 3 -37zM365 364h151
q-6 55 -74 55q-33 0 -50 -12t-27 -43zM550 609h-295l118 160h295zM540 629l89 120h-246l-88 -120h245z" />
    <glyph glyph-name="ecircumflex" unicode="&#xea;" horiz-adv-x="825" 
d="M790 194l-63 -160q-206 -48 -344 -48q-192 0 -287 84q-79 72 -79 206q0 88 37 156t105 103q87 46 259 46q242 0 323 -103q26 -32 41.5 -88.5t15.5 -117.5q0 -24 -2 -49h-420q4 -39 25 -54t72 -15q81 0 274 34q13 2 43 6zM757 169l-97 -17q-110 -18 -189 -18
q-92 0 -108 52q-7 20 -8 57h422q1 14 1 32q0 55 -15 108.5t-38 82.5q-75 95 -308 95q-208 0 -294 -74q-86 -75 -86 -211q0 -84 29.5 -137.5t94.5 -88.5q85 -44 222 -44q136 0 330 46zM537 344h-196q7 50 30.5 72.5t71.5 22.5q73 0 91 -58q3 -14 3 -37zM365 364h151
q-6 55 -74 55q-33 0 -50 -12t-27 -43zM412 660l-26 -51h-212l99 160h278l100 -160h-212zM412 703l39 -74h164l-75 120h-255l-75 -120h163z" />
    <glyph glyph-name="edieresis" unicode="&#xeb;" horiz-adv-x="825" 
d="M790 194l-63 -160q-206 -48 -344 -48q-192 0 -287 84q-79 72 -79 206q0 88 37 156t105 103q87 46 259 46q242 0 323 -103q26 -32 41.5 -88.5t15.5 -117.5q0 -24 -2 -49h-420q4 -39 25 -54t72 -15q81 0 274 34q13 2 43 6zM757 169l-97 -17q-110 -18 -189 -18
q-92 0 -108 52q-7 20 -8 57h422q1 14 1 32q0 55 -15 108.5t-38 82.5q-75 95 -308 95q-208 0 -294 -74q-86 -75 -86 -211q0 -84 29.5 -137.5t94.5 -88.5q85 -44 222 -44q136 0 330 46zM537 344h-196q7 50 30.5 72.5t71.5 22.5q73 0 91 -58q3 -14 3 -37zM365 364h151
q-6 55 -74 55q-33 0 -50 -12t-27 -43zM208 609v160h199v-160h-199zM228 629h159v120h-159v-120zM418 609v160h199v-160h-199zM438 629h159v120h-159v-120z" />
    <glyph glyph-name="igrave" unicode="&#xec;" horiz-adv-x="408" 
d="M374 0h-341v567h341v-567zM354 20v527h-301v-527h301zM66 609l-118 160h295l118 -160h-295zM76 629h246l-89 120h-245z" />
    <glyph glyph-name="iacute" unicode="&#xed;" horiz-adv-x="408" 
d="M374 0h-341v567h341v-567zM354 20v527h-301v-527h301zM341 609h-295l118 160h295zM331 629l89 120h-246l-88 -120h245z" />
    <glyph glyph-name="icircumflex" unicode="&#xee;" horiz-adv-x="408" 
d="M374 0h-341v567h341v-567zM354 20v527h-301v-527h301zM203 660l-26 -51h-212l99 160h278l100 -160h-212zM203 703l39 -74h164l-75 120h-255l-75 -120h163z" />
    <glyph glyph-name="idieresis" unicode="&#xef;" horiz-adv-x="408" 
d="M374 0h-341v567h341v-567zM354 20v527h-301v-527h301zM393 769v-160h-378v160h378zM35 629h159v120h-159v-120zM213 629h160v120h-160v-120z" />
    <glyph glyph-name="eth" unicode="&#xf0;" horiz-adv-x="826" 
d="M794 582l-92 -61q74 -118 91 -159t17 -103q0 -145 -102 -214q-95 -63 -292 -63q-207 0 -303 67t-96 210q0 138 95 200.5t305 62.5h23q-39 54 -59 77l-22 27l188 109q36 -44 40 -49q2 -3 7 -8l87 58zM676 709l-185 -123l90 -122l185 123zM464 591l114 75q-6 8 -16.5 20
t-19.5 23l-153 -88q47 -56 90 -120q-21 1 -61 1q-202 0 -291.5 -57t-89.5 -186q0 -134 90 -195.5t289 -61.5q192 0 281 60q93 62 93 197q0 55 -16.5 96.5t-76.5 135.5l-12 20l-108 -73zM419 327q99 0 99 -73q0 -89 -101 -89t-101 89q0 73 103 73zM415 307q-80 0 -80 -52
q0 -37 19.5 -53.5t62.5 -16.5q42 0 61.5 16.5t19.5 52.5q0 29 -19 41t-64 12z" />
    <glyph glyph-name="ntilde" unicode="&#xf1;" 
d="M837 0h-342v277q0 32 -12.5 44.5t-44.5 12.5q-35 0 -49.5 -14t-14.5 -49v-271h-341v567h341v-52q42 37 89.5 51.5t123.5 14.5q250 0 250 -233v-348zM817 20v328q0 109 -56.5 161t-173.5 52q-128 0 -189 -51q-20 -17 -44 -50v87h-301v-527h301v251q0 44 20 63.5t64 19.5
q40 0 58.5 -18t18.5 -59v-257h302zM534 762h136q-17 -74 -60 -114.5t-104 -40.5q-28 0 -90 16q-48 14 -69 14q-12 0 -23 -20h-129q9 43 12 53t13 26q19 34 52.5 53.5t70.5 19.5q31 0 96 -16q55 -14 70 -14q17 0 25 23zM644 742h-97q-11 -23 -39 -23q-16 0 -74 14
q-61 16 -91 16q-46 0 -79 -30.5t-44 -81.5h93q11 20 35 20q18 0 74 -15q58 -15 84 -15q49 0 86 31t52 84z" />
    <glyph glyph-name="ograve" unicode="&#xf2;" horiz-adv-x="826" 
d="M432 585q98 0 160.5 -14.5t111.5 -49.5q106 -75 106 -231q0 -158 -101 -237q-93 -71 -294 -71q-207 0 -302.5 74.5t-95.5 236.5q0 152 95 221q53 39 125.5 55t194.5 16zM419 565q-203 0 -292.5 -64t-89.5 -210q0 -151 90.5 -220t288.5 -69q193 0 281 67q93 73 93 221
t-97 215q-49 34 -109 47t-165 13zM419 391q99 0 99 -104q0 -122 -101 -122q-102 0 -102 123q0 53 25 78t79 25zM415 371q-42 0 -61 -19.5t-19 -63.5q0 -54 19.5 -78.5t62.5 -24.5q42 0 61.5 24.5t19.5 77.5q0 46 -19 65t-64 19zM275 609l-118 160h295l118 -160h-295z
M285 629h246l-89 120h-245z" />
    <glyph glyph-name="oacute" unicode="&#xf3;" horiz-adv-x="826" 
d="M432 585q98 0 160.5 -14.5t111.5 -49.5q106 -75 106 -231q0 -158 -101 -237q-93 -71 -294 -71q-207 0 -302.5 74.5t-95.5 236.5q0 152 95 221q53 39 125.5 55t194.5 16zM419 565q-203 0 -292.5 -64t-89.5 -210q0 -151 90.5 -220t288.5 -69q193 0 281 67q93 73 93 221
t-97 215q-49 34 -109 47t-165 13zM419 391q99 0 99 -104q0 -122 -101 -122q-102 0 -102 123q0 53 25 78t79 25zM415 371q-42 0 -61 -19.5t-19 -63.5q0 -54 19.5 -78.5t62.5 -24.5q42 0 61.5 24.5t19.5 77.5q0 46 -19 65t-64 19zM551 609h-295l118 160h295zM541 629l89 120
h-246l-88 -120h245z" />
    <glyph glyph-name="ocircumflex" unicode="&#xf4;" horiz-adv-x="826" 
d="M432 585q98 0 160.5 -14.5t111.5 -49.5q106 -75 106 -231q0 -158 -101 -237q-93 -71 -294 -71q-207 0 -302.5 74.5t-95.5 236.5q0 152 95 221q53 39 125.5 55t194.5 16zM419 565q-203 0 -292.5 -64t-89.5 -210q0 -151 90.5 -220t288.5 -69q193 0 281 67q93 73 93 221
t-97 215q-49 34 -109 47t-165 13zM419 391q99 0 99 -104q0 -122 -101 -122q-102 0 -102 123q0 53 25 78t79 25zM415 371q-42 0 -61 -19.5t-19 -63.5q0 -54 19.5 -78.5t62.5 -24.5q42 0 61.5 24.5t19.5 77.5q0 46 -19 65t-64 19zM413 660l-26 -51h-212l99 160h278l100 -160
h-212zM413 703l39 -74h164l-75 120h-255l-75 -120h163z" />
    <glyph glyph-name="otilde" unicode="&#xf5;" horiz-adv-x="826" 
d="M432 585q98 0 160.5 -14.5t111.5 -49.5q106 -75 106 -231q0 -158 -101 -237q-93 -71 -294 -71q-207 0 -302.5 74.5t-95.5 236.5q0 152 95 221q53 39 125.5 55t194.5 16zM419 565q-203 0 -292.5 -64t-89.5 -210q0 -151 90.5 -220t288.5 -69q193 0 281 67q93 73 93 221
t-97 215q-49 34 -109 47t-165 13zM419 391q99 0 99 -104q0 -122 -101 -122q-102 0 -102 123q0 53 25 78t79 25zM415 371q-42 0 -61 -19.5t-19 -63.5q0 -54 19.5 -78.5t62.5 -24.5q42 0 61.5 24.5t19.5 77.5q0 46 -19 65t-64 19zM515 762h136q-17 -74 -60 -114.5t-104 -40.5
q-28 0 -90 16q-48 14 -69 14q-12 0 -23 -20h-129q9 43 12 53t13 26q19 34 52.5 53.5t70.5 19.5q31 0 96 -16q55 -14 70 -14q17 0 25 23zM625 742h-97q-11 -23 -39 -23q-16 0 -74 14q-61 16 -91 16q-46 0 -79 -30.5t-44 -81.5h93q11 20 35 20q18 0 74 -15q58 -15 84 -15
q49 0 86 31t52 84z" />
    <glyph glyph-name="odieresis" unicode="&#xf6;" horiz-adv-x="826" 
d="M432 585q98 0 160.5 -14.5t111.5 -49.5q106 -75 106 -231q0 -158 -101 -237q-93 -71 -294 -71q-207 0 -302.5 74.5t-95.5 236.5q0 152 95 221q53 39 125.5 55t194.5 16zM419 565q-203 0 -292.5 -64t-89.5 -210q0 -151 90.5 -220t288.5 -69q193 0 281 67q93 73 93 221
t-97 215q-49 34 -109 47t-165 13zM419 391q99 0 99 -104q0 -122 -101 -122q-102 0 -102 123q0 53 25 78t79 25zM415 371q-42 0 -61 -19.5t-19 -63.5q0 -54 19.5 -78.5t62.5 -24.5q42 0 61.5 24.5t19.5 77.5q0 46 -19 65t-64 19zM209 609v160h199v-160h-199zM229 629h159v120
h-159v-120zM419 609v160h199v-160h-199zM439 629h159v120h-159v-120z" />
    <glyph glyph-name="multiply" unicode="&#xf7;" horiz-adv-x="556" 
d="M276 206l-130 -130l-125 126l130 130l-134 133l128 128l134 -133l131 131l125 -126l-131 -131l134 -134l-128 -128zM276 234l134 -133l100 99l-134 134l131 131l-97 97l-131 -131l-134 134l-100 -100l134 -133l-130 -130l97 -97z" />
    <glyph glyph-name="oslash" unicode="&#xf8;" horiz-adv-x="838" 
d="M4 56l69 48q-9 13 -13 21q-37 63 -37 169q0 151 95 220q53 38 124 54.5t185 16.5q150 0 222 -30q16 -6 39 -19l86 60l60 -86l-66 -46l8 -12t5 -8q35 -57 35 -155q0 -158 -101 -236q-93 -71 -292 -71q-146 0 -225 31q-20 8 -44 20l-89 -63zM341 293l107 75q-18 3 -28 3
q-41 0 -59.5 -18t-19.5 -60zM503 278l-122 -86q18 -7 42 -7q40 0 58.5 21.5t21.5 71.5zM472 383l199 140q-47 24 -99.5 33t-144.5 9q-111 0 -179 -15.5t-118 -51.5q-87 -63 -87 -204q0 -112 47 -179l231 163v13q0 100 99 100q21 0 52 -8zM751 453l-228 -160q-2 -56 -12 -76
q-23 -52 -88 -52q-40 0 -60 15l-191 -134q95 -44 251 -44q192 0 280 67q93 73 93 220q0 99 -45 164zM70 -2l736 517l-37 53l-737 -517z" />
    <glyph glyph-name="ugrave" unicode="&#xf9;" horiz-adv-x="832" 
d="M804 567v-340q0 -127 -92 -184t-295 -57q-204 0 -296 57t-92 184v340h341v-323q0 -39 9 -51t38 -12q28 0 37 12t9 51v323h341zM784 547h-301v-303q0 -47 -14.5 -65t-52.5 -18t-52 18t-14 65v303h-301v-320q0 -113 73 -161q90 -60 295 -60q204 0 294 60q73 48 73 161v320z
M279 609l-118 160h295l118 -160h-295zM289 629h246l-89 120h-245z" />
    <glyph glyph-name="uacute" unicode="&#xfa;" horiz-adv-x="832" 
d="M804 567v-340q0 -127 -92 -184t-295 -57q-204 0 -296 57t-92 184v340h341v-323q0 -39 9 -51t38 -12q28 0 37 12t9 51v323h341zM784 547h-301v-303q0 -47 -14.5 -65t-52.5 -18t-52 18t-14 65v303h-301v-320q0 -113 73 -161q90 -60 295 -60q204 0 294 60q73 48 73 161v320z
M554 609h-295l118 160h295zM544 629l89 120h-246l-88 -120h245z" />
    <glyph glyph-name="ucircumflex" unicode="&#xfb;" horiz-adv-x="832" 
d="M804 567v-340q0 -127 -92 -184t-295 -57q-204 0 -296 57t-92 184v340h341v-323q0 -39 9 -51t38 -12q28 0 37 12t9 51v323h341zM784 547h-301v-303q0 -47 -14.5 -65t-52.5 -18t-52 18t-14 65v303h-301v-320q0 -113 73 -161q90 -60 295 -60q204 0 294 60q73 48 73 161v320z
M416 660l-26 -51h-212l99 160h278l100 -160h-212zM416 703l39 -74h164l-75 120h-255l-75 -120h163z" />
    <glyph glyph-name="udieresis" unicode="&#xfc;" horiz-adv-x="832" 
d="M804 567v-340q0 -127 -92 -184t-295 -57q-204 0 -296 57t-92 184v340h341v-323q0 -39 9 -51t38 -12q28 0 37 12t9 51v323h341zM784 547h-301v-303q0 -47 -14.5 -65t-52.5 -18t-52 18t-14 65v303h-301v-320q0 -113 73 -161q90 -60 295 -60q204 0 294 60q73 48 73 161v320z
M212 609v160h199v-160h-199zM232 629h159v120h-159v-120zM422 609v160h199v-160h-199zM442 629h159v120h-159v-120z" />
    <glyph glyph-name="yacute" unicode="&#xfd;" horiz-adv-x="844" 
d="M505 567h359l-210 -447q-61 -132 -123 -191q-33 -32 -72 -44t-108 -12h-300v202h185l-256 492h358l91 -231zM519 547l-88 -271l-106 271h-312l256 -492h-198v-162h280q65 0 100.5 10.5t65.5 39.5q56 53 119 185l196 419h-313zM559 609h-295l118 160h295zM549 629l89 120
h-246l-88 -120h245z" />
    <glyph glyph-name="thorn" unicode="&#xfe;" 
d="M33 -127v821h341v-174q80 61 198 61q133 0 203 -68q74 -71 74 -230q0 -152 -65.5 -224.5t-203.5 -72.5q-92 0 -148 23q-20 8 -58 36v-172h-341zM53 -107h301v199q28 -28 33 -32q61 -54 190 -54q132 0 192 66t60 212q0 150 -68 215q-65 62 -191 62q-132 0 -193 -66
q-8 -10 -23 -29v208h-301v-781zM442 380q42 0 66.5 -28t24.5 -77q0 -52 -24.5 -82t-67.5 -30t-68 30t-25 82q0 49 25 77t69 28zM439 360q-33 0 -52 -22.5t-19 -62.5q0 -43 19 -67.5t54 -24.5q34 0 53 24.5t19 67.5q0 85 -74 85z" />
    <glyph glyph-name="ydieresis" unicode="&#xff;" horiz-adv-x="844" 
d="M505 567h359l-210 -447q-61 -132 -123 -191q-33 -32 -72 -44t-108 -12h-300v202h185l-256 492h358l91 -231zM519 547l-88 -271l-106 271h-312l256 -492h-198v-162h280q65 0 100.5 10.5t65.5 39.5q56 53 119 185l196 419h-313zM217 609v160h199v-160h-199zM237 629h159
v120h-159v-120zM427 609v160h199v-160h-199zM447 629h159v120h-159v-120z" />
    <glyph glyph-name="dotlessi" unicode="&#x131;" horiz-adv-x="408" 
d="M374 0h-341v567h341v-567zM354 20v527h-301v-527h301z" />
    <glyph glyph-name="Lslash" unicode="&#x141;" horiz-adv-x="680" 
d="M397 331v-74h277v-257h-637v101l-51 -33v183l51 33v383h360v-153l114 74v-184zM57 115v-95h597v217h-277v82zM377 500v147h-320v-351zM491 551l-485 -311v-136l485 311v136z" />
    <glyph glyph-name="lslash" unicode="&#x142;" horiz-adv-x="403" 
d="M373 371v-371h-341v152l-41 -26v184l41 26v358h341v-139l40 26v-184zM52 166v-146h301v340zM353 541v133h-301v-327zM11 299v-136l382 245v136z" />
    <glyph glyph-name="OE" unicode="&#x152;" horiz-adv-x="1448" 
d="M1415 0h-723v54q-51 -36 -85 -47q-63 -21 -159 -21q-193 0 -300 77q-61 44 -94.5 116t-33.5 158q0 85 33 157t91 112q106 75 295 75q114 0 187 -26q30 -11 66 -38v50h723v-235h-400v-30h400v-179h-400v-26h400v-197zM1395 20v157h-400v66h400v139h-400v70h400v195h-683
v-83q-15 21 -24 30q-70 67 -247 67q-184 0 -286 -71q-53 -38 -84 -106t-31 -147q0 -81 31.5 -149t88.5 -109q100 -73 292 -73q93 0 146.5 19t113.5 73v-78h683zM476 456q53 0 81.5 -32.5t28.5 -91.5q0 -153 -111 -153q-112 0 -112 153q0 124 113 124zM473 436
q-90 0 -90 -104q0 -133 91 -133q92 0 92 133q0 104 -93 104z" />
    <glyph glyph-name="oe" unicode="&#x153;" horiz-adv-x="1277" 
d="M1242 194l-62 -158q-133 -55 -285 -55q-72 0 -114 9t-88 34q-8 6 -34 20q-36 -20 -64 -34q-56 -28 -181 -28q-205 0 -301 74.5t-96 234.5q0 154 95.5 224t304.5 70q137 0 200 -29q16 -6 47 -27q50 31 108.5 43.5t156.5 12.5q207 0 274 -106q21 -32 34 -88.5t13 -114.5
q0 -7 -2 -53h-420q1 -37 22 -53t69 -16q54 0 103 6t177 28q13 2 43 6zM807 243h421q2 38 2 42q0 49 -12.5 102t-31.5 82q-61 96 -256 96q-101 0 -156.5 -12.5t-110.5 -47.5q-46 34 -98 47t-145 13q-204 0 -293.5 -64t-89.5 -210q0 -151 90 -220t287 -69q89 0 129.5 11
t116.5 55q69 -43 110.5 -55t124.5 -12q145 0 270 50l46 118l-11 -1l-90 -16q-115 -18 -190 -18q-89 0 -106 52q-7 20 -7 57zM419 391q99 0 99 -103q0 -123 -101 -123q-102 0 -102 122q0 54 25 79t79 25zM415 371q-42 0 -61 -19.5t-19 -63.5q0 -54 19.5 -78.5t62.5 -24.5
q42 0 61.5 24.5t19.5 77.5q0 46 -19 65t-64 19zM989 344h-196q7 51 30.5 73t71.5 22q34 0 58 -15.5t32 -42.5q4 -13 4 -37zM816 364h152q-8 55 -73 55q-34 0 -52 -12.5t-27 -42.5z" />
    <glyph glyph-name="Scaron" unicode="&#x160;" horiz-adv-x="820" 
d="M411 680l27 50h211l-37 -59q82 -8 165 -25v-217q-155 25 -347 25q-40 0 -40 -15q0 -12 18 -12h114q103 0 170 -25q49 -18 79.5 -65.5t30.5 -106.5q0 -56 -28 -105.5t-78 -80.5q-52 -32 -116 -45t-173 -13q-106 0 -177.5 6.5t-192.5 28.5v204q212 -34 373 -34q25 0 25 16
q0 6 -5 7.5t-24 1.5h-53q-54 0 -128 8q-206 24 -206 208q0 66 28 117t78 78q36 19 91 33l-44 70h212l26 -50h1zM600 652l-50 -82h-278l-45 72q-98 -23 -143 -73.5t-45 -136.5q0 -137 126 -176q24 -8 82.5 -14t105.5 -6h53q28 0 38.5 -6.5t10.5 -23.5q0 -35 -50 -35
q-151 0 -348 31v-164q177 -32 350 -32q107 0 168 12t110 43q46 28 71.5 73t25.5 96q0 53 -26.5 95t-70.5 59q-65 23 -163 23h-114q-17 0 -27.5 9t-10.5 23q0 35 60 35q190 0 327 -22v178q-77 15 -157 22zM411 636l-39 74h-164l75 -120h256l74 120h-163z" />
    <glyph glyph-name="scaron" unicode="&#x161;" horiz-adv-x="728" 
d="M687 566v-192q-115 14 -218 14q-85 0 -102 -2t-17 -13q0 -12 23 -12l79 1q96 0 136 -6t65 -24q59 -42 59 -132q0 -60 -28 -107.5t-76 -69.5q-81 -37 -250 -37q-118 0 -304 21l-14 180q112 -20 305 -20q34 0 42.5 2t8.5 10q0 13 -14 13h-18q-10 -1 -30 -1q-171 0 -230 31
q-87 47 -87 157q0 56 26 100.5t72 67.5q68 34 263 34q162 0 309 -15zM667 397v151q-128 13 -288 13q-211 0 -273 -42q-69 -48 -69 -140q0 -53 24.5 -91.5t69.5 -55.5q56 -21 247 -21q21 0 29.5 -6.5t8.5 -23.5q0 -21 -11 -28q-8 -6 -69 -6q-153 0 -275 16l11 -137
q166 -20 286 -20q167 0 241 35q43 19 68 62t25 97q0 91 -63 124q-35 18 -182 18q-23 0 -74 -1q-44 -2 -44 33q0 19 16 26q17 8 118 8q96 0 204 -11zM364 718l27 51h212l-100 -160h-278l-99 160h212zM364 675l-39 74h-163l75 -120h255l75 120h-164z" />
    <glyph glyph-name="Ydieresis" unicode="&#x178;" horiz-adv-x="896" 
d="M427 570l30 -68l27 68h-3v160h199v-63h236l-287 -472v-195h-359v195l-290 472h249v63h199v-160h-1zM230 647h-214l274 -447v-180h319v180l272 447h-202v-76h-173l-48 -121l-53 121h-175v76zM249 590h159v120h-159v-120zM501 590h159v120h-159v-120z" />
    <glyph glyph-name="Zcaron" unicode="&#x17d;" horiz-adv-x="785" 
d="M588 667h173v-213l-243 -213h243v-241h-741v166l263 245h-263v256h170l-39 63h211l27 -51l27 51h211zM203 647h-163v-216h293l-293 -273v-138h701v201h-276l276 242v184h-167l-47 -76h-276zM389 636l-39 74h-163l74 -120h256l74 120h-163z" />
    <glyph glyph-name="zcaron" unicode="&#x17e;" horiz-adv-x="707" 
d="M687 0h-667v149l221 169h-212v249h649v-192l-193 -157h202v-218zM667 20v178h-238l229 186v163h-609v-209h252l-261 -199v-119h627zM353 718l27 51h212l-100 -160h-278l-99 160h212zM353 675l-39 74h-163l75 -120h255l75 120h-164z" />
    <glyph glyph-name="florin" unicode="&#x192;" horiz-adv-x="549" 
d="M519 441l-24 -149h-83l-44 -248q-17 -93 -52 -133q-29 -32 -71.5 -45.5t-117.5 -13.5l-60 1q-26 1 -100 1l27 167q25 -1 30 -1q39 0 44 10q6 21 13 63l35 199h-79l25 149h81l16 89q19 104 70 147.5t153 43.5l82 -1q16 -1 99 -1l-29 -167h-18l-8 1h-16q-23 0 -28.5 -4.5
t-9.5 -25.5l-2 -15l-12 -67h79zM496 421h-80l16 90l2 15q5 29 16 38t41 9q15 0 26 -1l22 127l-76 1l-81 1q-95 0 -140.5 -38.5t-62.5 -135.5l-19 -106h-81l-18 -109h79l-39 -223q-12 -66 -18 -74q-9 -15 -56 -15h-16l-21 -126l77 -1l60 -1q70 0 109 11.5t65 40.5
q19 21 28.5 46.5t18.5 77.5l47 264h83z" />
    <glyph glyph-name="circumflex" unicode="&#x2c6;" horiz-adv-x="500" 
d="M250 660l-26 -51h-212l99 160h278l100 -160h-212zM250 703l39 -74h164l-75 120h-255l-75 -120h163z" />
    <glyph glyph-name="caron" unicode="&#x2c7;" horiz-adv-x="500" 
d="M250 718l27 51h212l-100 -160h-278l-99 160h212zM250 675l-39 74h-163l75 -120h255l75 120h-164z" />
    <glyph glyph-name="breve" unicode="&#x2d8;" horiz-adv-x="500" 
d="M59 781h115l4 -15q6 -21 21.5 -29t50.5 -8t50.5 8t20.5 29l4 15h115q-2 -46 -5 -59.5t-15 -34.5q-45 -83 -170 -83q-145 0 -181 107q-7 19 -10 70zM159 761h-79q4 -52 29 -83q44 -54 141 -54t140 54q26 32 29 83h-78q-8 -28 -29 -40t-62 -12q-42 0 -63 12t-28 40z" />
    <glyph glyph-name="dotaccent" unicode="&#x2d9;" horiz-adv-x="500" 
d="M150 609v160h199v-160h-199zM170 629h159v120h-159v-120z" />
    <glyph glyph-name="ring" unicode="&#x2da;" horiz-adv-x="500" 
d="M253 769q191 0 191 -115q0 -116 -194 -116t-194 115q0 60 48 88t149 28zM248 749q-89 0 -130.5 -23.5t-41.5 -72.5t42 -72t132 -23t132 23t42 72q0 50 -42 73t-134 23zM252 693q44 0 44 -41q0 -22 -10.5 -31.5t-34.5 -9.5q-44 0 -44 41q0 22 10.5 31.5t34.5 9.5zM251 673
q-15 0 -19.5 -4t-4.5 -17t4.5 -17t20.5 -4q15 0 19.5 4t4.5 17t-4.5 17t-20.5 4z" />
    <glyph glyph-name="ogonek" unicode="&#x2db;" horiz-adv-x="500" 
d="M475 110v-108q-35 -4 -43.5 -9t-8.5 -22q0 -13 7.5 -19.5t27.5 -8.5l17 -3v-108q-57 3 -82 10q-52 13 -81.5 47.5t-29.5 81.5q0 52 34 87.5t94 45.5q15 3 65 6zM455 20v69q-43 -2 -73 -12q-38 -13 -59 -41t-21 -65q0 -77 80 -105q26 -9 73 -12v69q-52 7 -52 48
q0 42 52 49z" />
    <glyph glyph-name="tilde" unicode="&#x2dc;" horiz-adv-x="500" 
d="M351 762h136q-17 -74 -60 -114.5t-104 -40.5q-28 0 -90 16q-48 14 -69 14q-12 0 -23 -20h-129q9 43 12 53t13 26q19 34 52.5 53.5t70.5 19.5q31 0 96 -16q55 -14 70 -14q17 0 25 23zM461 742h-97q-11 -23 -39 -23q-16 0 -74 14q-61 16 -91 16q-46 0 -79 -30.5t-44 -81.5
h93q11 20 35 20q18 0 74 -15q57 -15 84 -15q49 0 86 31t52 84z" />
    <glyph glyph-name="hungarumlaut" unicode="&#x2dd;" horiz-adv-x="500" 
d="M586 769l-119 -160h-453l118 160h454zM245 629l89 120h-192l-88 -120h191zM457 629l89 120h-192l-88 -120h191z" />
    <glyph glyph-name="endash" unicode="&#x2013;" horiz-adv-x="745" 
d="M731 183h-718v211h718v-211zM711 203v171h-678v-171h678z" />
    <glyph glyph-name="emdash" unicode="&#x2014;" horiz-adv-x="831" 
d="M817 388v-196h-804v196h804zM797 368h-764v-156h764v156z" />
    <glyph glyph-name="quoteleft" unicode="&#x2018;" horiz-adv-x="342" 
d="M7 436l135 258h194l-87 -258h-242zM40 456h195l73 218h-154z" />
    <glyph glyph-name="quoteright" unicode="&#x2019;" horiz-adv-x="342" 
d="M336 694l-135 -258h-194l86 258h243zM303 674h-195l-73 -218h154z" />
    <glyph glyph-name="quotesinglbase" unicode="&#x201a;" horiz-adv-x="331" 
d="M318 186l-137 -313h-181l63 313h255zM287 166h-207l-56 -273h144z" />
    <glyph glyph-name="quotedblleft" unicode="&#x201c;" horiz-adv-x="515" 
d="M142 694h367l-87 -258h-415zM254 456h154l73 218h-154zM40 456h195l73 218h-154z" />
    <glyph glyph-name="quotedblright" unicode="&#x201d;" horiz-adv-x="515" 
d="M7 436l86 258h416l-135 -258h-367zM476 674h-154l-113 -218h153zM303 674h-195l-73 -218h154z" />
    <glyph glyph-name="quotedblbase" unicode="&#x201e;" horiz-adv-x="515" 
d="M0 -72l86 258h416l-135 -258h-367zM469 166h-154l-113 -218h153zM296 166h-195l-73 -218h154z" />
    <glyph glyph-name="dagger" unicode="&#x2020;" horiz-adv-x="554" 
d="M540 535v-197h-154v-365h-220v365h-153v197h153v159h220v-159h154zM520 515h-154v159h-180v-159h-153v-157h153v-365h180v365h154v157z" />
    <glyph glyph-name="daggerdbl" unicode="&#x2021;" horiz-adv-x="554" 
d="M386 567h154v-191h-154v-86h154v-190h-154v-127h-220v127h-153v190h153v86h-153v191h153v127h220v-127zM366 547v127h-180v-127h-153v-151h153v-126h-153v-150h153v-127h180v127h154v150h-154v126h154v151h-154z" />
    <glyph glyph-name="bullet" unicode="&#x2022;" horiz-adv-x="667" 
d="M337 477q55 0 95.5 -41t40.5 -97q0 -58 -40.5 -98.5t-97.5 -40.5t-98 40.5t-41 97.5q0 58 41 98.5t100 40.5z" />
    <glyph glyph-name="ellipsis" unicode="&#x2026;" horiz-adv-x="892" 
d="M162 198q139 0 139 -102q0 -49 -37.5 -77t-103.5 -28q-65 0 -102.5 28t-37.5 77q0 102 142 102zM159 178q-119 0 -119 -81q0 -41 31.5 -63.5t88.5 -22.5t89 22.5t32 62.5q0 43 -29 62.5t-93 19.5zM447 198q139 0 139 -101q0 -49 -37.5 -77.5t-102.5 -28.5
q-66 0 -103.5 28t-37.5 77q0 102 142 102zM444 178q-119 0 -119 -81q0 -41 31.5 -63.5t89.5 -22.5q56 0 88 22.5t32 62.5q0 43 -29 62.5t-93 19.5zM733 198q139 0 139 -102q0 -49 -37.5 -77t-102.5 -28q-66 0 -103.5 28t-37.5 77q0 102 142 102zM730 178q-119 0 -119 -81
q0 -41 31.5 -63.5t88.5 -22.5t89 22.5t32 62.5q0 43 -29 62.5t-93 19.5z" />
    <glyph glyph-name="perthousand" unicode="&#x2030;" horiz-adv-x="1221" 
d="M365 150l-120 -150h-177l258 322q-44 -6 -85 -6q-120 0 -175 51q-49 47 -49 126q0 85 60 137q55 46 170 46q83 0 131.5 -21t75.5 -70q18 -33 23 -75l125 157h177l-258 -322q42 6 77 6q71 0 113.5 -15t72.5 -52q31 37 74 52t116 15q118 0 171 -46q60 -52 60 -137
q0 -80 -49 -126q-54 -51 -181 -51q-73 0 -116.5 14t-74.5 46q-28 -32 -72 -46t-118 -14q-110 0 -165 38t-64 121zM490 338l247 309h-125l-136 -170q-5 -56 -36 -95.5t-82 -52.5l-248 -309h125l131 163q5 58 38.5 99.5t85.5 55.5zM244 656q-105 0 -154 -41q-53 -45 -53 -122
q0 -70 43 -111q48 -45 167 -45q120 0 168 45q43 41 43 111q0 77 -53 122q-49 41 -161 41zM248 567q58 0 58 -66q0 -65 -59 -65t-59 65q0 35 14.5 50.5t45.5 15.5zM246 547q-21 0 -29.5 -10.5t-8.5 -35.5t8.5 -35t30.5 -10t30.5 10t8.5 35q0 26 -8.5 36t-31.5 10zM971 330
q-105 0 -154 -41q-53 -45 -53 -122q0 -70 43 -111q48 -45 167 -45t168 45q43 41 43 111q0 77 -53 122q-49 41 -161 41zM976 242q57 0 57 -66q0 -65 -58 -65q-59 0 -59 65q0 35 14.5 50.5t45.5 15.5zM974 222q-21 0 -29.5 -10.5t-8.5 -35.5t8.5 -35t29.5 -10q22 0 30.5 10
t8.5 35q0 26 -8.5 36t-30.5 10zM773 267q-27 35 -67.5 49t-110.5 14q-110 0 -158 -41q-53 -47 -53 -122q0 -70 43 -111q49 -45 167 -45q72 0 112 13t67 45q-28 44 -28 98t28 100zM596 242q58 0 58 -66q0 -65 -59 -65t-59 65q0 35 14.5 50.5t45.5 15.5zM594 222
q-21 0 -29.5 -10.5t-8.5 -35.5t8.5 -35t30.5 -10t30.5 10t8.5 35q0 26 -8.5 36t-31.5 10z" />
    <glyph glyph-name="guilsinglleft" unicode="&#x2039;" horiz-adv-x="279" 
d="M245 -17l-212 161v224l212 160v-214l-72 -56l72 -54v-221zM225 23v171l-85 64l85 66v164l-172 -130v-204z" />
    <glyph glyph-name="guilsinglright" unicode="&#x203a;" horiz-adv-x="279" 
d="M33 528l212 -162v-224l-212 -159v214l72 56l-72 54v221zM53 488v-171l85 -64l-85 -66v-164l172 129v205z" />
    <glyph glyph-name="fraction" unicode="&#x2044;" horiz-adv-x="149" 
d="M274 667l-269 -667h-129l268 667h130zM244 647h-86l-252 -627h86z" />
    <glyph glyph-name="divide" unicode="&#x2122;" horiz-adv-x="542" 
d="M15 422h169q-54 27 -54 87q0 102 141 102t141 -102q0 -60 -54 -87h169v-177h-161q46 -27 46 -84q0 -49 -37.5 -77t-103.5 -28t-103.5 28t-37.5 77q0 57 46 84h-161v177zM35 402v-137h472v137h-472zM269 591q-119 0 -119 -81q0 -41 31.5 -63.5t89.5 -22.5q57 0 89 22.5
t32 62.5q0 43 -29.5 62.5t-93.5 19.5zM269 243q-119 0 -119 -81q0 -41 31.5 -63.5t89.5 -22.5q57 0 89 22.5t32 62.5q0 43 -29.5 62.5t-93.5 19.5z" />
    <glyph glyph-name="degree" unicode="&#x2212;" horiz-adv-x="392" 
d="M199 679q73 0 125 -53t52 -127q0 -75 -52.5 -127.5t-126.5 -52.5t-127 52.5t-53 126.5q0 76 52.5 128.5t129.5 52.5zM195 659q-65 0 -111.5 -47t-46.5 -114q0 -66 46.5 -112.5t113.5 -46.5q66 0 112.5 46.5t46.5 113.5t-46.5 113.5t-114.5 46.5zM197 573q29 0 50.5 -22.5
t21.5 -53.5q0 -29 -22 -51t-51 -22t-50.5 22t-21.5 52q0 31 21.5 53t51.5 22zM195 553q-20 0 -35.5 -16.5t-15.5 -38.5t15.5 -38t36.5 -16t37 16t16 37q0 23 -16 39.5t-38 16.5z" />
    <glyph glyph-name="fi" unicode="&#xfb01;" horiz-adv-x="921" 
d="M77 458v80q0 65 33.5 103t104.5 54q48 12 194 12q75 0 148 -4q4 17 15.5 23.5t38.5 6.5h221q31 0 43 -9.5t12 -34.5v-58q0 -24 -12 -33.5t-43 -9.5h-221q-31 0 -45 12v-24q83 -12 154 -12q82 0 167 15v-579h-341v212h-128v-212h-341v212h-74v246h74zM546 458v46
q-20 2 -43 2q-52 0 -68.5 -7t-16.5 -30v-11h128zM546 579v104q-83 4 -135 4q-169 0 -226 -22q-47 -19 -67.5 -48.5t-20.5 -78.5v-100h-74v-206h74v-212h301v212h148v206h-148v31q0 32 21.5 44.5t79.5 12.5q19 0 47 -2v55zM867 20v536q-54 -9 -150 -9q-97 0 -151 9v-536h301z
M832 713h-221q-23 0 -29 -4t-6 -20v-58q0 -16 6 -20t29 -4h221q23 0 29 4t6 20v58q0 16 -6 20t-29 4z" />
    <glyph glyph-name="fl" unicode="&#xfb02;" horiz-adv-x="921" 
d="M567 694h320v-694h-341v212h-128v-212h-341v212h-74v246h74v80q0 65 33.5 103.5t104.5 54.5q48 12 201 12q44 0 151 -5v-9zM546 458v47q-24 1 -41 1q-54 0 -70.5 -7t-16.5 -30v-11h128zM547 524v160q-92 4 -131 4q-174 0 -231 -22q-48 -20 -68 -49t-20 -79v-100h-74v-206
h74v-212h301v212h149v206h-149v31q0 34 22 45.5t84 11.5q25 0 43 -2zM867 20v654h-301v-654h301z" />
    <glyph glyph-name="mu" horiz-adv-x="883" 
d="M54 567h341v-323q0 -39 9 -51t38 -12q28 0 37 12t9 51v323h341v-340q0 -127 -92 -184t-297 -57q-83 0 -178 15v-167h-208v733zM74 547v-693h168v172q91 -20 202 -20q204 0 292 60q73 48 73 161v320h-301v-303q0 -47 -14.5 -65t-52.5 -18t-52 18t-14 65v303h-301z" />
    </font>
</defs>
</svg>
