<?xml version="1.0" encoding="UTF-8" standalone="no"?>
<svg
   viewBox="0 0 50 50"
   version="1.1"
   id="svg4"
   sodipodi:docname="021-facebook.svg"
   width="50"
   height="50"
   inkscape:version="1.1 (c68e22c387, 2021-05-23)"
   xmlns:inkscape="http://www.inkscape.org/namespaces/inkscape"
   xmlns:sodipodi="http://sodipodi.sourceforge.net/DTD/sodipodi-0.dtd"
   xmlns="http://www.w3.org/2000/svg"
   xmlns:svg="http://www.w3.org/2000/svg">
  <defs
     id="defs8" />
  <sodipodi:namedview
     id="namedview6"
     pagecolor="#ffffff"
     bordercolor="#666666"
     borderopacity="1.0"
     inkscape:pageshadow="2"
     inkscape:pageopacity="0.0"
     inkscape:pagecheckerboard="0"
     showgrid="false"
     fit-margin-top="0"
     fit-margin-left="0"
     fit-margin-right="0"
     fit-margin-bottom="0"
     inkscape:zoom="1.625"
     inkscape:cx="255.69231"
     inkscape:cy="256.30769"
     inkscape:window-width="1920"
     inkscape:window-height="1017"
     inkscape:window-x="-8"
     inkscape:window-y="-8"
     inkscape:window-maximized="1"
     inkscape:current-layer="svg4" />
  <path
     d="M 7.3242187,50 H 23.632812 V 32.226562 h -5.859375 v -5.859375 h 5.859375 v -7.324218 c 0,-4.03862 3.285599,-7.324219 7.324219,-7.324219 h 7.324219 v 5.859375 h -5.859375 c -1.615524,0 -2.929688,1.314163 -2.929688,2.929687 v 5.859375 h 8.524705 l -0.976563,5.859375 H 29.492187 V 50 H 42.675781 C 46.714401,50 50,46.714401 50,42.675781 V 7.3242187 C 50,3.2855987 46.714401,0 42.675781,0 H 7.3242187 C 3.2855987,0 0,3.2855987 0,7.3242187 V 42.675781 C 0,46.714401 3.2855987,50 7.3242187,50 Z M 2.9296875,7.3242187 c 0,-2.4230957 1.9714355,-4.3945312 4.3945312,-4.3945312 H 42.675781 c 2.423096,0 4.394531,1.9714355 4.394531,4.3945312 V 42.675781 c 0,2.423096 -1.971435,4.394531 -4.394531,4.394531 H 32.421875 V 35.15625 h 7.100296 L 41.475296,23.4375 h -9.053421 v -2.929688 h 8.789062 V 8.7890625 H 30.957031 c -5.654144,0 -10.253906,4.5997615 -10.253906,10.2539065 V 23.4375 H 14.84375 v 11.71875 h 5.859375 V 47.070312 H 7.3242187 c -2.4230957,0 -4.3945312,-1.971435 -4.3945312,-4.394531 z m 0,0"
     id="path2"
     style="stroke-width:0.0976562" />
</svg>
