<?xml version="1.0" encoding="UTF-8" standalone="no"?>
<svg
   viewBox="0 0 50 50"
   version="1.1"
   id="svg8"
   sodipodi:docname="025-instagram.svg"
   width="50"
   height="50"
   inkscape:version="1.1 (c68e22c387, 2021-05-23)"
   xmlns:inkscape="http://www.inkscape.org/namespaces/inkscape"
   xmlns:sodipodi="http://sodipodi.sourceforge.net/DTD/sodipodi-0.dtd"
   xmlns="http://www.w3.org/2000/svg"
   xmlns:svg="http://www.w3.org/2000/svg">
  <defs
     id="defs12" />
  <sodipodi:namedview
     id="namedview10"
     pagecolor="#ffffff"
     bordercolor="#666666"
     borderopacity="1.0"
     inkscape:pageshadow="2"
     inkscape:pageopacity="0.0"
     inkscape:pagecheckerboard="0"
     showgrid="false"
     fit-margin-top="0"
     fit-margin-left="0"
     fit-margin-right="0"
     fit-margin-bottom="0"
     inkscape:zoom="1.625"
     inkscape:cx="255.69231"
     inkscape:cy="108.61538"
     inkscape:window-width="1920"
     inkscape:window-height="1017"
     inkscape:window-x="-8"
     inkscape:window-y="-8"
     inkscape:window-maximized="1"
     inkscape:current-layer="svg8" />
  <g
     id="g17"
     transform="scale(0.09765625)">
    <path
       d="m 75,512 h 362 c 41.35547,0 75,-33.64453 75,-75 V 75 C 512,33.644531 478.35547,0 437,0 H 75 C 33.644531,0 0,33.644531 0,75 v 362 c 0,41.35547 33.644531,75 75,75 z M 30,75 C 30,50.1875 50.1875,30 75,30 h 362 c 24.8125,0 45,20.1875 45,45 v 362 c 0,24.8125 -20.1875,45 -45,45 H 75 C 50.1875,482 30,461.8125 30,437 Z m 0,0"
       id="path2" />
    <path
       d="m 256,391 c 74.4375,0 135,-60.5625 135,-135 0,-74.4375 -60.5625,-135 -135,-135 -74.4375,0 -135,60.5625 -135,135 0,74.4375 60.5625,135 135,135 z m 0,-240 c 57.89844,0 105,47.10156 105,105 0,57.89844 -47.10156,105 -105,105 -57.89844,0 -105,-47.10156 -105,-105 0,-57.89844 47.10156,-105 105,-105 z m 0,0"
       id="path4" />
    <path
       d="m 406,151 c 24.8125,0 45,-20.1875 45,-45 0,-24.8125 -20.1875,-45 -45,-45 -24.8125,0 -45,20.1875 -45,45 0,24.8125 20.1875,45 45,45 z m 0,-60 c 8.26953,0 15,6.730469 15,15 0,8.26953 -6.73047,15 -15,15 -8.26953,0 -15,-6.73047 -15,-15 0,-8.269531 6.73047,-15 15,-15 z m 0,0"
       id="path6" />
  </g>
</svg>
