<?xml version="1.0" encoding="UTF-8" standalone="no"?>
<svg
   viewBox="0 -47 49.999998 50"
   version="1.1"
   id="svg4"
   sodipodi:docname="043-twitter.svg"
   width="50"
   height="50"
   inkscape:version="1.1 (c68e22c387, 2021-05-23)"
   xmlns:inkscape="http://www.inkscape.org/namespaces/inkscape"
   xmlns:sodipodi="http://sodipodi.sourceforge.net/DTD/sodipodi-0.dtd"
   xmlns="http://www.w3.org/2000/svg"
   xmlns:svg="http://www.w3.org/2000/svg">
  <defs
     id="defs8" />
  <sodipodi:namedview
     id="namedview6"
     pagecolor="#ffffff"
     bordercolor="#666666"
     borderopacity="1.0"
     inkscape:pageshadow="2"
     inkscape:pageopacity="0.0"
     inkscape:pagecheckerboard="0"
     showgrid="false"
     inkscape:zoom="1.625"
     inkscape:cx="103.69231"
     inkscape:cy="9.5384615"
     inkscape:window-width="1920"
     inkscape:window-height="1017"
     inkscape:window-x="-8"
     inkscape:window-y="-8"
     inkscape:window-maximized="1"
     inkscape:current-layer="svg4" />
  <g
     id="g11"
     transform="matrix(0.09765625,0,0,0.09765625,0,-41.999667)">
    <path
       d="m 512,55.964844 c -32.20703,1.484375 -31.50391,1.363281 -35.14453,1.667968 L 495.92969,3.160156 c 0,0 -59.53907,21.902344 -74.63282,25.820313 C 381.65625,-6.648438 322.73437,-8.222656 280.60937,17.667969 246.11328,38.875 227.59766,75.292969 233.77344,117.85938 166.63672,108.54297 110.07031,76.71875 65.410156,23.070312 L 51.285156,6.105469 40.730469,25.488281 C 27.390625,49.980469 22.960938,77.984375 28.253906,104.33984 c 2.171875,10.8125 5.863282,21.125 10.976563,30.78125 l -12.117188,-4.69531 -1.4375,20.24609 c -1.457031,20.56641 5.390625,44.57422 18.320313,64.21485 3.640625,5.53125 8.328125,11.60547 14.269531,17.59765 l -6.261719,-0.96093 7.640625,23.19922 c 10.042969,30.48046 30.902344,54.0625 57.972659,67.17187 -27.035159,11.47266 -48.875002,18.79297 -84.77344,30.60156 L 0,363.29297 30.335938,379.87891 c 11.566406,6.32422 52.4375,27.44531 92.820312,33.78125 89.76562,14.07812 190.83203,2.61328 258.87109,-58.66407 57.3086,-51.61328 76.11328,-125.03125 72.20703,-201.43359 -0.58984,-11.56641 2.57813,-22.60547 8.92188,-31.07812 C 475.86328,105.51953 511.92187,56.078125 512,55.964844 Z m -72.83203,48.550786 c -10.53516,14.0664 -15.8125,32.03124 -14.86719,50.57812 3.94141,77.06641 -17.02734,136.83203 -62.32812,177.62891 -52.91797,47.66015 -138.27344,66.36718 -234.17188,51.32421 -17.36719,-2.72265 -35.316405,-8.82031 -50.171874,-14.91015 30.097654,-10.35547 53.339844,-19.58594 90.875004,-37.35156 l 52.39843,-24.80079 -57.85156,-3.70312 c -27.71094,-1.77344 -50.78516,-15.20313 -64.968749,-37.00781 7.531249,-0.4375 14.792969,-1.65625 22.023439,-3.67188 l 55.17578,-15.36719 -55.63672,-13.625 C 92.609375,226.98828 77.199219,210.8125 69.03125,198.40625 63.667969,190.25391 60.164062,181.90234 58.0625,174.20312 c 5.578125,1.4961 12.082031,2.5625 22.570312,3.60157 l 51.496098,5.09375 -40.800785,-31.82813 C 61.929688,128.14062 50.148438,93.691406 58.785156,60.574219 150.53516,155.73828 258.26172,148.58594 269.10547,151.10156 c -2.38672,-23.18359 -2.44922,-23.23828 -3.07422,-25.44531 -13.88672,-49.089844 16.54687,-74.015625 30.27344,-82.453125 28.67187,-17.621094 74.18359,-20.277344 105.70703,8.753906 6.80859,6.265625 16.01562,8.730469 24.63281,6.589844 7.73438,-1.921875 14.08203,-3.957031 20.29688,-6.171875 l -12.9375,36.945312 16.51562,0.01172 c -3.11719,4.179688 -6.85547,9.183594 -11.35156,15.183598 z m 0,0"
       id="path2" />
  </g>
</svg>
