<?xml version="1.0" encoding="UTF-8" standalone="no"?>
<svg
   viewBox="0 0 50 50"
   version="1.1"
   id="svg10"
   sodipodi:docname="045-linkedin.svg"
   width="50"
   height="50"
   inkscape:version="1.1 (c68e22c387, 2021-05-23)"
   xmlns:inkscape="http://www.inkscape.org/namespaces/inkscape"
   xmlns:sodipodi="http://sodipodi.sourceforge.net/DTD/sodipodi-0.dtd"
   xmlns="http://www.w3.org/2000/svg"
   xmlns:svg="http://www.w3.org/2000/svg">
  <defs
     id="defs14" />
  <sodipodi:namedview
     id="namedview12"
     pagecolor="#ffffff"
     bordercolor="#666666"
     borderopacity="1.0"
     inkscape:pageshadow="2"
     inkscape:pageopacity="0.0"
     inkscape:pagecheckerboard="0"
     showgrid="false"
     fit-margin-top="0"
     fit-margin-left="0"
     fit-margin-right="0"
     fit-margin-bottom="0"
     inkscape:zoom="1.1490485"
     inkscape:cx="237.15274"
     inkscape:cy="159.69735"
     inkscape:window-width="1920"
     inkscape:window-height="1017"
     inkscape:window-x="-8"
     inkscape:window-y="-8"
     inkscape:window-maximized="1"
     inkscape:current-layer="svg10" />
  <g
     id="g338"
     transform="scale(0.09765625)">
    <path
       d="M 437,0 H 75 C 33.644531,0 0,33.644531 0,75 v 362 c 0,41.35547 33.644531,75 75,75 h 362 c 41.35547,0 75,-33.64453 75,-75 V 75 C 512,33.644531 478.35547,0 437,0 Z m 45,437 c 0,24.8125 -20.1875,45 -45,45 H 75 C 50.1875,482 30,461.8125 30,437 V 75 C 30,50.1875 50.1875,30 75,30 h 362 c 24.8125,0 45,20.1875 45,45 z m 0,0"
       id="path2" />
    <path
       d="m 91,422 h 90 V 210 H 91 Z m 30,-182 h 30 v 152 h -30 z m 0,0"
       id="path4" />
    <path
       d="m 331.08594,210 c -0.0274,0 -0.0586,0 -0.0859,0 -10.37109,0 -20.47266,1.73437 -30,5.10156 V 210 h -90 v 212 h 90 V 315 c 0,-8.26953 6.73047,-15 15,-15 8.26953,0 15,6.73047 15,15 v 107 h 90 V 304.6875 C 421,256.14062 381.61719,210.04687 331.08594,210 Z M 391,392 h -30 v -77 c 0,-24.8125 -20.1875,-45 -45,-45 -24.8125,0 -44.99609,20.1875 -45,44.99609 V 392 H 241 V 240 h 30 v 30.01953 l 24.00781,-18.03125 C 305.44922,244.14453 317.89453,240 331,240 h 0.0586 C 362.98828,240.03125 391,270.25781 391,304.6875 Z m 0,0"
       id="path6" />
    <path
       d="m 91,180 h 90 V 90 H 91 Z m 30,-60 h 30 v 30 h -30 z m 0,0"
       id="path8" />
  </g>
</svg>
